<svg width="50" height="50" viewBox="0 0 50 50" fill="none" xmlns="http://www.w3.org/2000/svg">
<g clip-path="url(#clip0_105_2232)">
<path d="M50 25C50 38.807 38.807 50 25 50C11.193 50 0 38.807 0 25C0 25.006 25 0.00273438 25 0C38.807 0 50 11.193 50 25Z" fill="#0052B4"/>
<path d="M24.9331 25H25C25 24.9775 25 24.9557 25 24.9331C24.9777 24.9555 24.9555 24.9777 24.9331 25Z" fill="#F0F0F0"/>
<path d="M25 13.0435C25 8.64453 25 5.76221 25 0H24.9958C11.1905 0.00234375 0 11.1942 0 25H13.0435V17.6552L20.3883 25H24.9332C24.9555 24.9777 24.9777 24.9555 25.0001 24.9331C25.0001 23.2488 25.0001 21.746 25.0001 20.3885L17.6551 13.0435H25Z" fill="#F0F0F0"/>
<path d="M12.6479 3.26074C8.73779 5.48721 5.48711 8.73779 3.26074 12.6479V24.9999H9.78252V9.78272V9.78252H24.9999C24.9999 7.72559 24.9999 5.76602 24.9999 3.26074H12.6479Z" fill="#D80027"/>
<path d="M25 21.9256L16.1177 13.0435H13.0435V13.0437L24.9998 24.9999H25C25 24.9999 25 22.8801 25 21.9256Z" fill="#D80027"/>
<path d="M39.1307 15.2175L35.8697 16.3045L32.6089 15.2175L31.522 12.5001L32.6089 9.78271H39.1307L38.0437 12.5001L39.1307 15.2175Z" fill="#ACABB1"/>
<path d="M28.2607 15.2173V27.1737C28.2607 32.9979 35.8694 34.7825 35.8694 34.7825C35.8694 34.7825 43.4781 32.9979 43.4781 27.1737V15.2173H28.2607Z" fill="#338AF3"/>
<path d="M28.9468 30.0066C30.8171 33.5974 35.8696 34.7828 35.8696 34.7828C35.8696 34.7828 40.9222 33.5974 42.7925 30.0066L35.8696 18.4785L28.9468 30.0066Z" fill="#6DA544"/>
<path d="M43.4781 27.0529L35.8694 15.2173L28.2607 27.053V27.1737C28.2607 28.2517 28.5219 29.1909 28.9466 30.0063L35.8694 19.2373L42.7923 30.0063C43.217 29.1907 43.4781 28.2516 43.4781 27.1736V27.0529Z" fill="#FFDA44"/>
</g>
<defs>
<clipPath id="clip0_105_2232">
<rect width="50" height="50" fill="white"/>
</clipPath>
</defs>
</svg>
