<svg width="50" height="50" viewBox="0 0 50 50" fill="none" xmlns="http://www.w3.org/2000/svg">
<g clip-path="url(#clip0_105_2458)">
<path d="M48.445 33.6955C49.4499 30.9872 50 28.0579 50 24.9999C50 21.9419 49.4499 19.0126 48.445 16.3043L25 14.1304L1.55498 16.3043C0.550098 19.0126 0 21.9419 0 24.9999C0 28.0579 0.550098 30.9872 1.55498 33.6955L25 35.8694L48.445 33.6955Z" fill="#F0F0F0"/>
<path d="M24.9998 50.0002C35.7488 50.0002 44.9125 43.2158 48.4447 33.6958H1.55469C5.08711 43.2158 14.2506 50.0002 24.9998 50.0002Z" fill="#D80027"/>
<path d="M24.9998 0C14.2506 0 5.08711 6.78437 1.55469 16.3044H48.4448C44.9125 6.78437 35.7488 0 24.9998 0Z" fill="#496E2D"/>
<path d="M25.0001 19.5654L26.349 23.7171H30.7146L27.1828 26.2832L28.5319 30.435L25.0001 27.8692L21.4683 30.435L22.8174 26.2832L19.2856 23.7171H23.6512L25.0001 19.5654Z" fill="black"/>
<path d="M32.4272 4.89111V9.96348C32.4272 10.7628 31.7771 11.4128 30.978 11.4128V13.5867C32.9759 13.5867 34.6012 11.9614 34.6012 9.96348V4.89111H32.4272Z" fill="#F0F0F0"/>
<path d="M16.8478 9.96348C16.8478 10.7628 16.1977 11.4128 15.3984 11.4128V13.5867C17.3964 13.5867 19.0217 11.9614 19.0217 9.96348V4.89111H16.8478V9.96348Z" fill="#F0F0F0"/>
<path d="M29.166 4.89111H31.3399V9.96348H29.166V4.89111Z" fill="#F0F0F0"/>
<path d="M25.9056 7.78955C25.9056 7.98936 25.743 8.15195 25.5433 8.15195C25.3435 8.15195 25.1809 7.98936 25.1809 7.78955V4.89111H23.0069V7.78955C23.0069 7.98936 22.8444 8.15195 22.6446 8.15195C22.4448 8.15195 22.2823 7.98936 22.2823 7.78955V4.89111H20.1084V7.78955C20.1084 9.18818 21.2461 10.3259 22.6446 10.3259C23.1832 10.3259 23.6828 10.1566 24.0938 9.86924C24.5051 10.1566 25.0046 10.3259 25.5432 10.3259C25.6517 10.3259 25.7583 10.3183 25.8632 10.3049C25.7091 10.9396 25.1375 11.4128 24.4563 11.4128V13.5867C26.4541 13.5867 28.0794 11.9614 28.0794 9.96348V7.78955V4.89111H25.9055L25.9056 7.78955Z" fill="#F0F0F0"/>
<path d="M20.1084 11.4131H23.3692V13.587H20.1084V11.4131Z" fill="#F0F0F0"/>
</g>
<defs>
<clipPath id="clip0_105_2458">
<rect width="50" height="50" fill="white"/>
</clipPath>
</defs>
</svg>
