<svg width="50" height="50" viewBox="0 0 50 50" fill="none" xmlns="http://www.w3.org/2000/svg">
<g clip-path="url(#clip0_105_2531)">
<path d="M36.9566 3.03975C33.4048 1.10186 29.3312 0 25.0001 0C20.669 0 16.5954 1.10186 13.0436 3.03975L10.8696 25L13.0436 46.9603C16.5954 48.8981 20.669 50 25.0001 50C29.3312 50 33.4048 48.8981 36.9566 46.9603L39.1306 25L36.9566 3.03975Z" fill="#FFDA44"/>
<path d="M13.0435 46.96V3.03955C5.27236 7.27979 0 15.5238 0 24.9999C0 34.476 5.27236 42.72 13.0435 46.96Z" fill="#338AF3"/>
<path d="M50 24.9999C50 15.5238 44.7276 7.27979 36.9565 3.03955V46.96C44.7276 42.72 50 34.476 50 24.9999Z" fill="#6DA544"/>
<path d="M19.5652 31.5216L15.2173 24.9998L19.5651 18.478L23.9132 24.9998L19.5652 31.5216Z" fill="#6DA544"/>
<path d="M30.4348 31.5216L26.0869 24.9998L30.4348 18.478L34.7826 24.9998L30.4348 31.5216Z" fill="#6DA544"/>
<path d="M25 40.2173L20.6521 33.6955L25 27.1738L29.3478 33.6955L25 40.2173Z" fill="#6DA544"/>
</g>
<defs>
<clipPath id="clip0_105_2531">
<rect width="50" height="50" fill="white"/>
</clipPath>
</defs>
</svg>
