<svg width="50" height="50" viewBox="0 0 50 50" fill="none" xmlns="http://www.w3.org/2000/svg">
<g clip-path="url(#clip0_105_1812)">
<path d="M25 50C38.8071 50 50 38.8071 50 25C50 11.1929 38.8071 0 25 0C11.1929 0 0 11.1929 0 25C0 38.8071 11.1929 50 25 50Z" fill="#F0F0F0"/>
<path d="M25 0C13.4493 0 3.72996 7.83408 0.861206 18.4782H49.1388C46.27 7.83408 36.5507 0 25 0Z" fill="#A2001D"/>
<path d="M25 50.0002C36.5507 50.0002 46.27 42.1661 49.1387 31.522H0.861206C3.72996 42.166 13.4493 50.0002 25 50.0002Z" fill="#A2001D"/>
</g>
<defs>
<clipPath id="clip0_105_1812">
<rect width="50" height="50" fill="white"/>
</clipPath>
</defs>
</svg>
