<svg width="50" height="50" viewBox="0 0 50 50" fill="none" xmlns="http://www.w3.org/2000/svg">
<g clip-path="url(#clip0_105_2747)">
<path d="M25 50C38.8071 50 50 38.8071 50 25C50 11.1929 38.8071 0 25 0C11.1929 0 0 11.1929 0 25C0 38.8071 11.1929 50 25 50Z" fill="#F0F0F0"/>
<path d="M14.1304 33.6958L16.3043 48.4454C19.0125 49.4504 21.9419 50.0002 24.9999 50.0002C35.7489 50.0002 44.9126 43.2158 48.4448 33.6958H14.1304Z" fill="black"/>
<path d="M14.1304 16.3044L16.3043 1.55479C19.0125 0.549805 21.9419 0 24.9999 0C35.7489 0 44.9126 6.78437 48.4448 16.3044H14.1304Z" fill="#6DA544"/>
<path d="M0 25.0002C0 35.7493 6.78447 44.9129 16.3044 48.4452V1.55518C6.78447 5.0875 0 14.2511 0 25.0002Z" fill="#A2001D"/>
</g>
<defs>
<clipPath id="clip0_105_2747">
<rect width="50" height="50" fill="white"/>
</clipPath>
</defs>
</svg>
