<svg width="50" height="50" viewBox="0 0 50 50" fill="none" xmlns="http://www.w3.org/2000/svg">
<g clip-path="url(#clip0_105_1480)">
<path d="M50 25C50 38.807 38.807 50 25 50C11.193 50 0 38.807 0 25C0 25.006 25 0.00273438 25 0C38.807 0 50 11.193 50 25Z" fill="#0052B4"/>
<path d="M24.9331 25H25C25 24.9775 25 24.9557 25 24.9331C24.9777 24.9555 24.9555 24.9777 24.9331 25Z" fill="#F0F0F0"/>
<path d="M25 13.0435C25 8.64453 25 5.76221 25 0H24.9958C11.1906 0.00234375 0 11.1942 0 25H13.0435V17.6552L20.3884 25H24.9332L25.0001 24.9331C25.0001 23.2488 25.0001 21.746 25.0001 20.3885L17.6551 13.0435H25Z" fill="#F0F0F0"/>
<path d="M12.6479 3.26074C8.73788 5.48721 5.4873 8.73779 3.26083 12.6479V24.9999H9.78261V9.78272V9.78252H25C25 7.72559 25 5.76602 25 3.26074H12.6479Z" fill="#D80027"/>
<path d="M25 21.9256L16.1179 13.0435H13.0435V13.0437L24.9998 24.9999H25C25 24.9999 25 22.8801 25 21.9256Z" fill="#D80027"/>
<path d="M40.2174 29.3477V30.4346H31.5218V29.3477H28.2608V33.6954H30.4348V34.7824H41.3044V33.6954H43.4782V29.3477H40.2174Z" fill="#FFDA44"/>
<path d="M28.2608 13.0435V25C28.2608 30.8241 35.8695 32.6087 35.8695 32.6087C35.8695 32.6087 43.4782 30.8241 43.4782 25V13.0435H28.2608Z" fill="#338AF3"/>
<path d="M35.8691 21.9619C33.9671 21.9619 33.9671 23.7011 32.065 23.7011C30.163 23.7011 30.163 21.9619 28.2609 21.9619V25.0054C30.163 25.0054 30.163 26.7445 32.065 26.7445C33.9671 26.7445 33.9671 25.0054 35.8691 25.0054C37.7714 25.0054 37.7714 26.7445 39.6737 26.7445C41.5761 26.7445 41.576 25.0054 43.4783 25.0054V21.9619C41.5761 21.9619 41.5761 23.7011 39.6737 23.7011C37.7714 23.7011 37.7714 21.9619 35.8691 21.9619Z" fill="#F3F3F3"/>
<path d="M35.8691 15.8696C33.9671 15.8696 33.9671 17.6088 32.065 17.6088C30.163 17.6088 30.163 15.8696 28.2609 15.8696V18.9131C30.163 18.9131 30.163 20.6522 32.065 20.6522C33.9671 20.6522 33.9671 18.9131 35.8691 18.9131C37.7714 18.9131 37.7714 20.6522 39.6737 20.6522C41.5761 20.6522 41.576 18.9131 43.4783 18.9131V15.8696C41.5761 15.8696 41.5761 17.6088 39.6737 17.6088C37.7714 17.6088 37.7714 15.8696 35.8691 15.8696Z" fill="#F3F3F3"/>
</g>
<defs>
<clipPath id="clip0_105_1480">
<rect width="50" height="50" fill="white"/>
</clipPath>
</defs>
</svg>
