<svg width="50" height="50" viewBox="0 0 50 50" fill="none" xmlns="http://www.w3.org/2000/svg">
<g clip-path="url(#clip0_105_2887)">
<path d="M25 50C38.8071 50 50 38.8071 50 25C50 11.1929 38.8071 0 25 0C11.1929 0 0 11.1929 0 25C0 38.8071 11.1929 50 25 50Z" fill="#F0F0F0"/>
<path d="M47.6072 14.3165C46.3371 11.6335 44.6036 9.21328 42.5099 7.15811L25.0001 5.43457L7.49033 7.1582C7.43447 7.21299 7.37998 7.26904 7.32471 7.32441L14.3169 14.3166L25.0001 14.6429L47.6072 14.3165Z" fill="#FFDA44"/>
<path d="M7.32422 42.6753C7.41621 42.7673 7.50801 42.8594 7.60137 42.95L24.9999 44.5648L42.3982 42.95C44.5136 40.8992 46.2683 38.4788 47.5562 35.7916L15.2172 34.7822C12.4347 37.5648 9.22529 40.774 7.32422 42.6753Z" fill="#FFDA44"/>
<path d="M49.7516 21.4753L20.6523 20.6523L25.0002 25.0002C23.7124 26.288 21.7899 28.2104 20.6523 29.348L49.7363 28.6338C49.9092 27.4474 50.0002 26.2345 50.0002 25.0002C50.0002 23.8035 49.9143 22.6271 49.7516 21.4753Z" fill="black"/>
<path d="M25 0C18.1809 0 12.0006 2.73145 7.49023 7.1584H42.5098C37.9994 2.73145 31.8191 0 25 0Z" fill="#6DA544"/>
<path d="M21.4753 21.4753H49.7516C49.3948 18.948 48.6608 16.5424 47.6073 14.3169H14.3169L21.4753 21.4753Z" fill="#D80027"/>
<path d="M14.208 35.7922H47.5564C48.6223 33.5684 49.368 31.1624 49.7362 28.6338H21.3664C18.5942 31.406 16.2448 33.7554 14.208 35.7922Z" fill="#D80027"/>
<path d="M24.9999 49.9999C31.7631 49.9999 37.8979 47.3132 42.3982 42.9502H7.60156C12.102 47.3132 18.2367 49.9999 24.9999 49.9999Z" fill="#6DA544"/>
<path d="M8.92725 5.85303C8.37148 6.32002 7.83525 6.80957 7.32227 7.32236L25 25.0001L7.32227 42.6778C7.83516 43.1907 8.37148 43.6802 8.92725 44.1472L28.0743 25.0001L8.92725 5.85303Z" fill="black"/>
<path d="M10.0511 18.478L11.6697 23.4601H16.9085L12.6704 26.5394L14.2892 31.5216L10.0511 28.4424L5.81289 31.5216L7.43184 26.5394L3.19385 23.4601H8.43232L10.0511 18.478Z" fill="#D80027"/>
<path d="M14.504 25.4078L10.2854 23.9133C10.2854 23.9133 9.97373 20.9892 9.95488 20.89C9.81172 20.1358 9.14893 19.5654 8.35303 19.5654C7.45264 19.5654 6.72256 20.2954 6.72256 21.1959C6.72256 21.3452 6.74434 21.4891 6.78193 21.6266L5.59912 22.8173H7.70225C7.70225 25.0002 6.07334 25.0002 6.07334 27.1741L6.97695 29.348H12.4117L13.3176 27.1741H13.3172C13.4079 26.9655 13.463 26.7504 13.4857 26.5354C14.2666 26.2196 14.504 25.4078 14.504 25.4078Z" fill="#FFDA44"/>
</g>
<defs>
<clipPath id="clip0_105_2887">
<rect width="50" height="50" fill="white"/>
</clipPath>
</defs>
</svg>
