<svg width="50" height="50" viewBox="0 0 50 50" fill="none" xmlns="http://www.w3.org/2000/svg">
<g clip-path="url(#clip0_105_2265)">
<path d="M25 50C38.8071 50 50 38.8071 50 25C50 11.1929 38.8071 0 25 0C11.1929 0 0 11.1929 0 25C0 38.8071 11.1929 50 25 50Z" fill="#FCFCFC"/>
<path d="M32.6083 20.6523V22.8263H35.5919C34.3468 24.5567 32.6883 25.9694 30.7613 26.9207C30.267 26.4071 29.5729 26.0871 28.8039 26.0871C27.5075 26.0871 26.4239 26.9952 26.1525 28.21C25.7727 28.2434 25.3882 28.261 24.9996 28.261C24.611 28.261 24.2266 28.2432 23.8467 28.21C23.5753 26.9953 22.4917 26.0871 21.1953 26.0871C20.4263 26.0871 19.7324 26.4071 19.2379 26.9207C17.3109 25.9695 15.6525 24.5566 14.4074 22.8263H17.3909V20.6523H9.78223C9.78223 29.0565 16.5954 35.8697 24.9996 35.8697C33.404 35.8697 40.217 29.0565 40.217 20.6523H32.6083Z" fill="#D80027"/>
</g>
<defs>
<clipPath id="clip0_105_2265">
<rect width="50" height="50" fill="white"/>
</clipPath>
</defs>
</svg>
