<svg width="50" height="50" viewBox="0 0 50 50" fill="none" xmlns="http://www.w3.org/2000/svg">
<g clip-path="url(#clip0_105_1252)">
<path d="M25 50C38.8071 50 50 38.8071 50 25C50 11.1929 38.8071 0 25 0C11.1929 0 0 11.1929 0 25C0 38.8071 11.1929 50 25 50Z" fill="#6DA544"/>
<path d="M38.3775 35.8696L39.0636 37.3041L40.6128 36.9461L39.919 38.3769L41.1648 39.3647L39.6137 39.7144L39.6181 41.3045L38.3775 40.3097L37.1371 41.3045L37.1414 39.7144L35.5903 39.3647L36.8361 38.3769L36.1424 36.9461L37.6915 37.3041L38.3775 35.8696Z" fill="#FFDA44"/>
<path d="M31.9952 20.6523L32.6813 22.0868L34.2306 21.7287L33.5367 23.1596L34.7825 24.1475L33.2314 24.4971L33.2357 26.0871L31.9952 25.0924L30.7548 26.0871L30.759 24.4971L29.208 24.1475L30.4538 23.1596L29.76 21.7287L31.3093 22.0868L31.9952 20.6523Z" fill="#FFDA44"/>
<path d="M38.3774 11.9565L39.0635 13.391L40.6127 13.0328L39.919 14.4637L41.1647 15.4517L39.6136 15.8012L39.6178 17.3913L38.3774 16.3965L37.137 17.3913L37.1413 15.8012L35.5903 15.4517L36.836 14.4637L36.1423 13.0328L37.6914 13.391L38.3774 11.9565Z" fill="#FFDA44"/>
<path d="M43.9518 18.4785L44.6378 19.913L46.1871 19.5549L45.4933 20.9857L46.7391 21.9736L45.188 22.3232L45.1923 23.9134L43.9518 22.9186L42.7113 23.9134L42.7155 22.3232L41.1646 21.9736L42.4104 20.9857L41.7165 19.5549L43.2657 19.913L43.9518 18.4785Z" fill="#FFDA44"/>
<path d="M39.9659 26.0869L40.5057 27.7478H42.2519L40.8391 28.7741L41.3788 30.4348L39.9659 29.4085L38.5533 30.4348L39.0929 28.7741L37.6802 27.7478H39.4264L39.9659 26.0869Z" fill="#FFDA44"/>
<path d="M27.7173 32.0656C23.8152 32.0656 20.652 28.9023 20.652 25.0004C20.652 21.0984 23.8151 17.9352 27.7173 17.9352C28.9339 17.9352 30.0787 18.2429 31.0781 18.7844C29.5103 17.251 27.3662 16.3047 24.9997 16.3047C20.1974 16.3047 16.3042 20.1979 16.3042 25.0003C16.3042 29.8027 20.1974 33.6959 24.9997 33.6959C27.3661 33.6959 29.5103 32.7496 31.078 31.2162C30.0787 31.7579 28.9339 32.0656 27.7173 32.0656Z" fill="#FFDA44"/>
<path d="M15.7214 9.78281C14.9694 8.48359 13.5656 7.60889 11.9566 7.60889C10.3477 7.60889 8.94385 8.48359 8.19189 9.78281H15.7214Z" fill="#FFDA44"/>
<path d="M15.7358 9.80811L11.9566 13.5873L8.17744 9.80811C7.81621 10.442 7.60889 11.1751 7.60889 11.9569C7.60889 14.3582 9.55547 16.3048 11.9567 16.3048C14.358 16.3048 16.3046 14.3583 16.3046 11.9569C16.3045 11.1751 16.0971 10.442 15.7358 9.80811Z" fill="#FFDA44"/>
<path d="M10.8696 12.5V16.1674C11.217 16.2567 11.5812 16.3043 11.9565 16.3043C12.3318 16.3043 12.6961 16.2566 13.0435 16.1674V12.5H10.8696Z" fill="#A2001D"/>
</g>
<defs>
<clipPath id="clip0_105_1252">
<rect width="50" height="50" fill="white"/>
</clipPath>
</defs>
</svg>
