<svg width="50" height="50" viewBox="0 0 50 50" fill="none" xmlns="http://www.w3.org/2000/svg">
<g clip-path="url(#clip0_105_1377)">
<path d="M25 50C38.8071 50 50 38.8071 50 25C50 11.1929 38.8071 0 25 0C11.1929 0 0 11.1929 0 25C0 38.8071 11.1929 50 25 50Z" fill="#F0F0F0"/>
<path d="M29.8912 49.5205C39.7743 47.56 47.5596 39.7746 49.5201 29.8916H29.8912V49.5205Z" fill="#496E2D"/>
<path d="M0.479736 29.8916C2.44019 39.7746 10.2255 47.56 20.1086 49.5205V29.8916H0.479736Z" fill="#496E2D"/>
<path d="M49.5201 20.1089C47.5596 10.2259 39.7743 2.44053 29.8912 0.47998V20.1089H49.5201Z" fill="#496E2D"/>
<path d="M20.1086 0.47998C10.2255 2.44053 2.44019 10.2259 0.479736 20.1089H20.1086V0.47998Z" fill="#496E2D"/>
<path d="M23.3695 29.8911H20.1086V49.52C21.1728 49.7311 22.2614 49.874 23.3695 49.9454V29.8911Z" fill="#FFDA44"/>
<path d="M23.3695 20.1085V0.0541992C22.2614 0.125488 21.1727 0.268555 20.1086 0.47959V20.1085H23.3695Z" fill="#FFDA44"/>
<path d="M26.6304 0.0543945C26.0912 0.0195312 25.5479 0 25 0C24.452 0 23.9088 0.0195312 23.3695 0.0543945V20.1088H26.6303V0.0543945H26.6304Z" fill="black"/>
<path d="M23.3695 49.9454C23.9088 49.9803 24.452 49.9998 25 49.9998C25.5479 49.9998 26.0912 49.9803 26.6304 49.9454V29.8911H23.3696V49.9454H23.3695Z" fill="black"/>
<path d="M20.1087 23.3697V20.1089H0.479834C0.268701 21.1731 0.125732 22.2616 0.0544434 23.3697H20.1087Z" fill="#FFDA44"/>
<path d="M29.8914 23.3697H49.9458C49.8745 22.2616 49.7314 21.1731 49.5204 20.1089H29.8915V23.3697H29.8914Z" fill="#FFDA44"/>
<path d="M29.8914 26.6306H49.9458C49.9805 26.0914 50 25.548 50 25.0001C50 24.4521 49.9805 23.9088 49.9457 23.3696H29.8914V26.6306Z" fill="black"/>
<path d="M0.0543945 23.3696C0.0196289 23.9088 0 24.4521 0 25.0001C0 25.548 0.0196289 26.0914 0.0543945 26.6306H20.1088V23.3697H0.0543945V23.3696Z" fill="black"/>
<path d="M25 36.9565C31.6034 36.9565 36.9565 31.6034 36.9565 25C36.9565 18.3966 31.6034 13.0435 25 13.0435C18.3966 13.0435 13.0435 18.3966 13.0435 25C13.0435 31.6034 18.3966 36.9565 25 36.9565Z" fill="#D80027"/>
<path d="M27.724 26.3341C26.8346 24.5555 25.6786 22.7527 25.6786 22.7527C25.6786 22.7527 25.7073 21.9319 25.7073 21.4429C25.7073 20.7062 25.1101 20.1089 24.3734 20.1089C23.6754 20.1089 23.1035 20.6451 23.0452 21.3278C22.4964 21.3637 22.0621 21.8189 22.0621 22.3768C22.0621 22.7823 22.2919 23.1338 22.6282 23.3095C22.7954 22.9185 23.1228 22.6132 23.5277 22.474C23.5937 22.528 23.6646 22.5763 23.7403 22.6172L23.9112 22.699C23.9112 22.699 23.2775 24.4853 23.2775 25.4448C23.2775 28.1425 25.0562 28.9744 25.0562 28.9744V29.0022L24.1668 29.8915H25.9454V28.1128L26.8348 29.0021C26.8426 28.9854 28.5194 27.925 27.724 26.3341Z" fill="#496E2D"/>
<path d="M25 15.2173L25.4047 16.4628H26.7143L25.6548 17.2326L26.0596 18.4781L25 17.7084L23.9405 18.4781L24.3452 17.2326L23.2858 16.4628H24.5953L25 15.2173Z" fill="#496E2D"/>
<path d="M19.25 17.0855L20.3094 17.8554L21.3689 17.0854L20.9642 18.3312L22.0238 19.1008L20.7141 19.1009L20.3094 20.3464L19.9047 19.1009L18.5951 19.1008L19.6546 18.331L19.25 17.0855Z" fill="#496E2D"/>
<path d="M15.6962 21.977H17.0056L17.4104 20.7314L17.8151 21.977L19.1248 21.9769L18.0653 22.7468L18.4701 23.9923L17.4104 23.2225L16.351 23.9922L16.7555 22.7467L15.6962 21.977Z" fill="#496E2D"/>
<path d="M15.6962 28.023L16.7555 27.2534L16.3509 26.0078L17.4104 26.7776L18.47 26.0078L18.0653 27.2533L19.1249 28.0231L17.8151 28.0232L17.4104 29.2687L17.0056 28.023H15.6962Z" fill="#496E2D"/>
<path d="M19.25 32.9141L19.6545 31.6688L18.595 30.8989H19.9046L20.3094 29.6533L20.7141 30.8988H22.0238L20.9642 31.6688L21.3689 32.9142L20.3093 32.1443L19.25 32.9141Z" fill="#496E2D"/>
<path d="M25 34.7823L24.5953 33.537H23.2858L24.3452 32.7671L23.9405 31.5216L25 32.2912L26.0595 31.5215L25.6548 32.7671L26.7143 33.5369L25.4047 33.537L25 34.7823Z" fill="#496E2D"/>
<path d="M30.75 32.9141L29.6906 32.1443L28.6312 32.9143L29.0358 31.6688L27.9762 30.8989L29.2859 30.8988L29.6905 29.6533L30.0953 30.8989H31.4049L30.3454 31.6688L30.75 32.9141Z" fill="#496E2D"/>
<path d="M34.3038 28.0229H32.9944L32.5896 29.2686L32.1849 28.0231H30.8751L31.9347 27.2532L31.5299 26.0078L32.5896 26.7775L33.6489 26.0078L33.2445 27.2533L34.3038 28.0229Z" fill="#496E2D"/>
<path d="M34.3038 21.9769L33.2445 22.7466L33.649 23.9921L32.5896 23.2224L31.53 23.9923L31.9347 22.7467L30.8751 21.977L32.1849 21.9768L32.5895 20.7314L32.9944 21.9769H34.3038Z" fill="#496E2D"/>
<path d="M30.75 17.0854L30.3454 18.3309L31.4049 19.1007H30.0953L29.6906 20.3463L29.2859 19.1008L27.9762 19.1009L29.0358 18.3309L28.6311 17.0855L29.6906 17.8552L30.75 17.0854Z" fill="#496E2D"/>
</g>
<defs>
<clipPath id="clip0_105_1377">
<rect width="50" height="50" fill="white"/>
</clipPath>
</defs>
</svg>
