<svg width="50" height="50" viewBox="0 0 50 50" fill="none" xmlns="http://www.w3.org/2000/svg">
<g clip-path="url(#clip0_105_1631)">
<path d="M33.6959 1.55508C30.9875 0.550098 28.0581 0 25 0C21.9421 0 19.0128 0.550098 16.3046 1.55488L15.2176 25L16.3045 48.4451C19.0128 49.45 21.9421 50 25 50C28.0582 50 30.9875 49.45 33.6959 48.4449L34.7828 25L33.6959 1.55508Z" fill="#FFDA44"/>
<path d="M0 24.9998C0 35.7488 6.78437 44.9125 16.3044 48.4447V1.55469C6.78437 5.08711 0 14.2506 0 24.9998Z" fill="#D80027"/>
<path d="M50 24.9998C50 14.2506 43.2156 5.08711 33.6956 1.55469V48.4448C43.2156 44.9125 50 35.7488 50 24.9998Z" fill="#6DA544"/>
</g>
<defs>
<clipPath id="clip0_105_1631">
<rect width="50" height="50" fill="white"/>
</clipPath>
</defs>
</svg>
