<svg width="50" height="50" viewBox="0 0 50 50" fill="none" xmlns="http://www.w3.org/2000/svg">
<g clip-path="url(#clip0_105_1106)">
<path d="M25.0002 49.9966C38.8053 49.9966 49.9966 38.8053 49.9966 25.0002C49.9966 11.1951 38.8053 0.00390625 25.0002 0.00390625C11.1951 0.00390625 0.00390625 11.1951 0.00390625 25.0002C0.00390625 38.8053 11.1951 49.9966 25.0002 49.9966Z" fill="#F0F0F0"/>
<path d="M3.35259 12.502C2.22435 14.4559 1.3921 16.4987 0.837891 18.5795L42.6413 42.7149C44.1663 41.1945 45.5194 39.4521 46.6474 37.4983L3.35259 12.502Z" fill="black"/>
<path d="M37.4983 3.35251C27.4965 -2.42193 15.1642 -0.497379 7.35864 7.28521L49.1621 31.4204C51.9993 20.7696 47.4998 9.12705 37.4983 3.35251Z" fill="#FFDA44"/>
<path d="M12.502 46.6477C22.5036 52.4221 34.8361 50.4976 42.6415 42.7151L0.837954 18.5796C-1.99912 29.2307 2.5002 40.8732 12.502 46.6477Z" fill="#FFDA44"/>
<path d="M32.0643 22.2833C32.0643 26.1846 28.9015 29.3475 25.0001 29.3475C21.0986 29.3475 17.9359 26.1847 17.9359 22.2833C17.9359 21.0668 18.2434 19.9222 18.785 18.9229C17.2521 20.4906 16.3057 22.6344 16.3057 25.0002C16.3057 29.802 20.1982 33.6947 25.0001 33.6947C29.8019 33.6947 33.6945 29.8021 33.6945 25.0002C33.6945 22.6344 32.7482 20.4906 31.2152 18.9229C31.7568 19.9224 32.0643 21.0668 32.0643 22.2833Z" fill="#D80027"/>
<path d="M23.3701 14.1323H26.6305V30.4343H23.3701V14.1323Z" fill="#D80027"/>
<path d="M30.4341 17.3926H19.5662C19.5662 18.1429 20.2198 18.7511 20.97 18.7511H20.9247C20.9247 19.5014 21.533 20.1096 22.2832 20.1096C22.2832 20.8599 22.8915 21.4682 23.6417 21.4682H26.3587C27.109 21.4682 27.7172 20.8599 27.7172 20.1096C28.4675 20.1096 29.0757 19.5014 29.0757 18.7511H29.0305C29.7805 18.751 30.4341 18.143 30.4341 17.3926Z" fill="#D80027"/>
<path d="M17.3927 31.521H32.6079V34.7814H17.3927V31.521Z" fill="#D80027"/>
<path d="M28.2606 32.6079H34.7814V35.8683H28.2606V32.6079Z" fill="#D80027"/>
<path d="M15.2191 32.6079H21.7399V35.8683H15.2191V32.6079Z" fill="#D80027"/>
</g>
<defs>
<clipPath id="clip0_105_1106">
<rect width="50" height="50" fill="white"/>
</clipPath>
</defs>
</svg>
