<svg width="50" height="50" viewBox="0 0 50 50" fill="none" xmlns="http://www.w3.org/2000/svg">
<g clip-path="url(#clip0_105_2782)">
<path d="M25 50C38.8071 50 50 38.8071 50 25C50 11.1929 38.8071 0 25 0C11.1929 0 0 11.1929 0 25C0 38.8071 11.1929 50 25 50Z" fill="#F0F0F0"/>
<path d="M25 18.4783H49.1388C48.5119 16.1527 47.5592 13.9612 46.3307 11.9565H25V18.4783Z" fill="#338AF3"/>
<path d="M9.43789 44.5652H40.5622C42.8438 42.748 44.8004 40.5408 46.3307 38.0435H3.66943C5.1998 40.5407 7.15645 42.748 9.43789 44.5652Z" fill="#338AF3"/>
<path d="M25 0V5.43477H40.5622C36.2917 2.03359 30.8837 0 25 0Z" fill="#338AF3"/>
<path d="M25 18.4783H49.1388C48.5119 16.1527 47.5592 13.9612 46.3307 11.9565H25V18.4783Z" fill="#338AF3"/>
<path d="M0 25C0 27.2565 0.300781 29.4423 0.86123 31.5218H49.1389C49.6992 29.4423 50 27.2565 50 25H0Z" fill="#338AF3"/>
<path d="M21.7393 14.631L18.6859 16.0672L20.3118 19.0242L16.9964 18.39L16.5763 21.7392L14.2671 19.2759L11.9577 21.7392L11.5377 18.39L8.22227 19.024L9.84805 16.0671L6.79492 14.631L9.84814 13.1949L8.22227 10.2379L11.5376 10.8721L11.9578 7.52295L14.2671 9.98623L16.5764 7.52295L16.9964 10.8721L20.3119 10.2379L18.686 13.195L21.7393 14.631Z" fill="#FFDA44"/>
</g>
<defs>
<clipPath id="clip0_105_2782">
<rect width="50" height="50" fill="white"/>
</clipPath>
</defs>
</svg>
