<svg width="50" height="50" viewBox="0 0 50 50" fill="none" xmlns="http://www.w3.org/2000/svg">
<g clip-path="url(#clip0_105_2860)">
<path d="M25 50C38.8071 50 50 38.8071 50 25C50 11.1929 38.8071 0 25 0C11.1929 0 0 11.1929 0 25C0 38.8071 11.1929 50 25 50Z" fill="#FCFCFC"/>
<path d="M29.246 17.4656C29.246 15.1207 27.345 13.2197 25 13.2197C22.655 13.2197 20.754 15.1207 20.754 17.4656H11.4131C11.4131 19.7743 13.4242 21.6461 15.7329 21.6461H15.5938C15.5938 23.955 17.4653 25.8269 19.7744 25.8269C19.7744 27.8711 21.2426 29.5697 23.1815 29.9328L23.1707 29.9572H26.8294L26.8186 29.9328C28.7576 29.5695 30.2257 27.871 30.2257 25.8269C32.5347 25.8269 34.4063 23.955 34.4063 21.6461H34.267C36.5757 21.6461 38.5869 19.7743 38.5869 17.4656H29.246Z" fill="#FFDA44"/>
<path d="M23.1336 29.5239L20.501 35.4676C21.89 36.0322 23.4083 36.3461 25.0002 36.3461C26.5921 36.3461 28.1104 36.0323 29.4993 35.4676L26.8668 29.5239H23.1336Z" fill="#FFDA44"/>
<path d="M19.5654 19.5532V26.8668C19.5654 31.0268 25.0002 32.3016 25.0002 32.3016C25.0002 32.3016 30.435 31.0268 30.435 26.8668V19.5532H19.5654Z" fill="#F0F0F0"/>
<path d="M6.0626 25.1758L9.00195 33.3969L11.9107 25.1758H14.1307L9.88984 36.0453H8.11397L3.84277 25.1758H6.0626Z" fill="#338AF3"/>
<path d="M40.2178 36.0453V25.1758H42.3304V36.0453H40.2178Z" fill="#338AF3"/>
<path d="M21.7393 21.915V30.7777C22.4864 31.3276 23.2903 31.7059 23.9132 31.948V21.915H21.7393Z" fill="#D80027"/>
<path d="M28.2608 21.915V30.7777C27.5137 31.3276 26.7098 31.7059 26.0869 31.948V21.915H28.2608Z" fill="#D80027"/>
<path d="M19.5654 19.5532H30.435V23.0021H19.5654V19.5532Z" fill="#0052B4"/>
</g>
<defs>
<clipPath id="clip0_105_2860">
<rect width="50" height="50" fill="white"/>
</clipPath>
</defs>
</svg>
