<svg width="50" height="50" viewBox="0 0 50 50" fill="none" xmlns="http://www.w3.org/2000/svg">
<g clip-path="url(#clip0_105_2289)">
<path d="M25 50C38.8071 50 50 38.8071 50 25C50 11.1929 38.8071 0 25 0C11.1929 0 0 11.1929 0 25C0 38.8071 11.1929 50 25 50Z" fill="#F0F0F0"/>
<path d="M48.445 33.6954C49.45 30.9871 50 28.0578 50 24.9998C50 21.9418 49.45 19.0125 48.445 16.3042H1.55498C0.550098 19.0125 0 21.9418 0 24.9998C0 28.0578 0.550098 30.9871 1.55498 33.6954L25 35.8693L48.445 33.6954Z" fill="#0052B4"/>
<path d="M25 50.0002C35.7491 50.0002 44.9126 43.2158 48.445 33.6958H1.55493C5.08726 43.2158 14.2508 50.0002 25 50.0002Z" fill="#D80027"/>
</g>
<defs>
<clipPath id="clip0_105_2289">
<rect width="50" height="50" fill="white"/>
</clipPath>
</defs>
</svg>
