<svg width="50" height="50" viewBox="0 0 50 50" fill="none" xmlns="http://www.w3.org/2000/svg">
<g clip-path="url(#clip0_105_2307)">
<path d="M2.48066 14.1305C0.891406 17.4172 0 21.1044 0 25C0 28.8956 0.891406 32.5828 2.48066 35.8695L25 38.0435L47.5193 35.8695C49.1086 32.5828 50 28.8956 50 25C50 21.1044 49.1086 17.4172 47.5193 14.1305L25 11.9565L2.48066 14.1305Z" fill="#F0F0F0"/>
<path d="M2.48145 35.8696C6.525 44.232 15.0885 50.0001 24.9999 50.0001C34.9113 50.0001 43.4748 44.232 47.5184 35.8696H2.48145Z" fill="#496E2D"/>
<path d="M2.48145 14.1305H47.5184C43.4748 5.76807 34.9114 0 24.9999 0C15.0884 0 6.525 5.76807 2.48145 14.1305Z" fill="black"/>
<path d="M7.32231 7.32227C-2.44077 17.0854 -2.44077 32.9145 7.32231 42.6777C11.3568 38.6433 15.237 34.7631 25 25L7.32231 7.32227Z" fill="#D80027"/>
<path d="M31.5217 24.9998C31.5217 21.3574 34.0815 18.3146 37.4999 17.5681C36.9745 17.4533 36.4294 17.3911 35.8694 17.3911C31.6672 17.3911 28.2607 20.7976 28.2607 24.9998C28.2607 29.2021 31.6672 32.6085 35.8694 32.6085C36.4293 32.6085 36.9744 32.5463 37.4999 32.4315C34.0815 31.6851 31.5217 28.6422 31.5217 24.9998Z" fill="#D80027"/>
<path d="M37.8195 20.1089L38.8989 23.4306H42.3912L39.5658 25.4831L40.6451 28.8046L37.8195 26.7519L34.9942 28.8046L36.0736 25.4831L33.248 23.4306H36.7403L37.8195 20.1089Z" fill="#D80027"/>
</g>
<defs>
<clipPath id="clip0_105_2307">
<rect width="50" height="50" fill="white"/>
</clipPath>
</defs>
</svg>
