<svg width="50" height="50" viewBox="0 0 50 50" fill="none" xmlns="http://www.w3.org/2000/svg">
<g clip-path="url(#clip0_105_1903)">
<path d="M25 50C38.8071 50 50 38.8071 50 25C50 11.1929 38.8071 0 25 0C11.1929 0 0 11.1929 0 25C0 38.8071 11.1929 50 25 50Z" fill="#D80027"/>
<path d="M8.69562 13.0435H41.3043V36.9565H8.69562V13.0435Z" fill="#6DA544"/>
<path d="M29.0261 32.0651C25.1241 32.0651 21.9609 28.9019 21.9609 24.9999C21.9609 21.0979 25.1241 17.9347 29.0261 17.9347C30.2427 17.9347 31.3875 18.2423 32.3869 18.7839C30.8191 17.2506 28.675 16.3042 26.3087 16.3042C21.5064 16.3042 17.6131 20.1974 17.6131 24.9998C17.6131 29.8022 21.5064 33.6954 26.3087 33.6954C28.675 33.6954 30.8192 32.749 32.3869 31.2157C31.3875 31.7575 30.2427 32.0651 29.0261 32.0651Z" fill="#F0F0F0"/>
</g>
<defs>
<clipPath id="clip0_105_1903">
<rect width="50" height="50" fill="white"/>
</clipPath>
</defs>
</svg>
