<svg width="50" height="50" viewBox="0 0 50 50" fill="none" xmlns="http://www.w3.org/2000/svg">
<g clip-path="url(#clip0_105_2539)">
<path d="M2.48066 14.1305C0.891406 17.4172 0 21.1044 0 25C0 28.8956 0.891406 32.5828 2.48066 35.8695L25 38.0435L47.5193 35.8695C49.1086 32.5828 50 28.8956 50 25C50 21.1044 49.1086 17.4172 47.5193 14.1305L25 11.9565L2.48066 14.1305Z" fill="#F0F0F0"/>
<path d="M2.48145 35.8696C6.525 44.232 15.0884 50.0001 24.9999 50.0001C34.9114 50.0001 43.4748 44.232 47.5184 35.8696H2.48145Z" fill="black"/>
<path d="M2.48145 14.1305H47.5184C43.4748 5.76807 34.9114 0 24.9999 0C15.0884 0 6.525 5.76807 2.48145 14.1305Z" fill="#D80027"/>
<path d="M7.32231 7.32227C-2.44077 17.0854 -2.44077 32.9145 7.32231 42.6777C11.3568 38.6433 15.237 34.7631 25 25L7.32231 7.32227Z" fill="#496E2D"/>
</g>
<defs>
<clipPath id="clip0_105_2539">
<rect width="50" height="50" fill="white"/>
</clipPath>
</defs>
</svg>
