<svg width="50" height="50" viewBox="0 0 50 50" fill="none" xmlns="http://www.w3.org/2000/svg">
<g clip-path="url(#clip0_105_2315)">
<path d="M50 25C50 38.807 38.807 50 25 50C11.193 50 0 38.807 0 25C8.58691 16.4131 15.8695 9.13047 25 0C38.807 0 50 11.193 50 25Z" fill="#D80027"/>
<path d="M25 25C25 11.193 25 9.56523 25 0C11.193 0 0 11.193 0 25H25Z" fill="#0052B4"/>
<path d="M20.0249 16.3047L20.4297 17.5503H21.7393L20.6797 18.3199L21.0845 19.5655L20.0249 18.7957L18.9653 19.5655L19.3701 18.3199L18.3105 17.5503H19.6201L20.0249 16.3047Z" fill="#F0F0F0"/>
<path d="M13.4471 6.52197L14.1216 8.59805H16.3044L14.5384 9.88076L15.2131 11.9567L13.4471 10.6736L11.6812 11.9567L12.3558 9.88076L10.5898 8.59805H12.7725L13.4471 6.52197Z" fill="#F0F0F0"/>
<path d="M19.969 8.6958L20.6436 10.772H22.8263L21.0604 12.0547L21.7349 14.1307L19.969 12.8476L18.2031 14.1307L18.8777 12.0547L17.1118 10.772H19.2944L19.969 8.6958Z" fill="#F0F0F0"/>
<path d="M14.8138 17.3916L15.4884 19.4677H17.671L15.9051 20.7504L16.5797 22.8264L14.8138 21.5434L13.0479 22.8264L13.7225 20.7504L11.9565 19.4677H14.1393L14.8138 17.3916Z" fill="#F0F0F0"/>
<path d="M9.09932 11.9565L9.77393 14.0326H11.9566L10.1906 15.3153L10.8652 17.3913L9.09932 16.1083L7.3335 17.3913L8.00801 15.3153L6.24219 14.0326H8.4248L9.09932 11.9565Z" fill="#F0F0F0"/>
</g>
<defs>
<clipPath id="clip0_105_2315">
<rect width="50" height="50" fill="white"/>
</clipPath>
</defs>
</svg>
