<svg width="50" height="50" viewBox="0 0 50 50" fill="none" xmlns="http://www.w3.org/2000/svg">
<g clip-path="url(#clip0_105_1161)">
<path d="M25 50C38.8071 50 50 38.8071 50 25C50 11.1929 38.8071 0 25 0C11.1929 0 0 11.1929 0 25C0 38.8071 11.1929 50 25 50Z" fill="#F0F0F0"/>
<path d="M25.0001 49.9998C32.5773 49.9998 39.3667 46.6283 43.9514 41.3042H6.04883C10.6335 46.6283 17.4229 49.9998 25.0001 49.9998Z" fill="#0052B4"/>
<path d="M50 25C50 11.193 38.807 0 25 0C11.193 0 0 11.193 0 25C0 27.2565 0.300781 29.4423 0.86123 31.5218H49.1389C49.6992 29.4423 50 27.2565 50 25Z" fill="#0052B4"/>
<path d="M1.98706 34.7827C2.46899 35.9151 3.03237 37.0042 3.66938 38.0436H46.3307C46.9675 37.0041 47.5309 35.915 48.013 34.7827H1.98706Z" fill="#D80027"/>
<path d="M17.87 26.6304L18.2747 27.8759H19.5844L18.5249 28.6457L18.9296 29.8912L17.87 29.1214L16.8104 29.8912L17.2152 28.6457L16.1558 27.8759H17.4654L17.87 26.6304Z" fill="#FFDA44"/>
<path d="M17.87 42.9346L18.2747 44.1802H19.5844L18.5249 44.9499L18.9296 46.1954L17.87 45.4257L16.8104 46.1954L17.2152 44.9499L16.1558 44.1802H17.4654L17.87 42.9346Z" fill="#FFDA44"/>
<path d="M10.2807 37.4209L10.6854 38.6663H11.995L10.9355 39.436L11.3402 40.6817L10.2807 39.9119L9.22109 40.6817L9.62598 39.436L8.56641 38.6663H9.87598L10.2807 37.4209Z" fill="#FFDA44"/>
<path d="M13.1797 28.2607L13.5844 29.5063H14.8939L13.8346 30.2761L14.2393 31.5217L13.1797 30.7519L12.1201 31.5217L12.525 30.2761L11.4653 29.5063H12.775L13.1797 28.2607Z" fill="#FFDA44"/>
<path d="M8.56641 33.3902L9.87578 33.3903L10.2806 32.1445L10.6854 33.3902L11.995 33.3901L10.9354 34.16L11.3402 35.4056L10.2806 34.6357L9.22109 35.4053L9.62578 34.1599L8.56641 33.3902Z" fill="#FFDA44"/>
<path d="M12.1201 44.3271L12.5248 43.0817L11.4651 42.312H12.7748L13.1795 41.0664L13.5843 42.3119H14.8939L13.8343 43.0816L14.239 44.3273L13.1794 43.5574L12.1201 44.3271Z" fill="#FFDA44"/>
<path d="M25.4567 37.4209L25.0521 38.6663H23.7424L24.8018 39.436L24.3971 40.6817L25.4567 39.9119L26.5163 40.6817L26.1115 39.436L27.171 38.6663H25.8614L25.4567 37.4209Z" fill="#FFDA44"/>
<path d="M22.5578 28.2607L22.1532 29.5063H20.8435L21.9029 30.2761L21.4982 31.5217L22.5578 30.7519L23.6173 31.5217L23.2125 30.2761L24.2721 29.5063H22.9625L22.5578 28.2607Z" fill="#FFDA44"/>
<path d="M27.171 33.3902L25.8616 33.3903L25.4568 32.1445L25.0521 33.3902L23.7424 33.3901L24.8019 34.16L24.3971 35.4056L25.4568 34.6357L26.5163 35.4053L26.1116 34.1599L27.171 33.3902Z" fill="#FFDA44"/>
<path d="M23.6173 44.3271L23.2127 43.0817L24.2723 42.312H22.9626L22.5579 41.0664L22.1532 42.3119H20.8435L21.9031 43.0816L21.4984 44.3273L22.558 43.5574L23.6173 44.3271Z" fill="#FFDA44"/>
</g>
<defs>
<clipPath id="clip0_105_1161">
<rect width="50" height="50" fill="white"/>
</clipPath>
</defs>
</svg>
