<svg width="50" height="50" viewBox="0 0 50 50" fill="none" xmlns="http://www.w3.org/2000/svg">
<g clip-path="url(#clip0_105_1452)">
<path d="M22.8261 22.8262C22.8261 22.8262 7.33691 42.6813 7.32227 42.6777C11.8463 47.2019 18.0964 50.0001 25 50.0001C38.807 50.0001 50 38.8071 50 25.0001L22.8261 22.8262Z" fill="#338AF3"/>
<path d="M22.8261 25C22.8261 25 7.33691 7.31885 7.32227 7.32236C11.8463 2.79824 18.0964 0 25 0C38.807 0 50 11.193 50 25H22.8261Z" fill="#6DA544"/>
<path d="M7.32231 7.32227C-2.44077 17.0854 -2.44077 32.9145 7.32231 42.6777C7.32163 42.6817 50 25 50 25L7.32231 7.32227Z" fill="#D80027"/>
<path d="M13.0435 14.6738C8.24868 14.6738 4.3479 18.5747 4.3479 23.3694V26.6303C4.3479 31.4251 8.24878 35.3259 13.0435 35.3259C17.8382 35.3259 21.7391 31.425 21.7391 26.6303V23.3694C21.7392 18.5747 17.8383 14.6738 13.0435 14.6738ZM18.4783 26.6304C18.4783 29.0593 16.8765 31.1207 14.6739 31.8149V28.2608L16.9809 25.9538L14.6751 23.648L14.6739 22.8274V21.7392H11.4131V24.9999L9.10767 27.3053L11.4131 29.6106V31.815C9.2105 31.1208 7.60874 29.0594 7.60874 26.6305V23.3696C7.60874 20.3729 10.0468 17.9349 13.0435 17.9349C16.0402 17.9349 18.4783 20.3729 18.4783 23.3696V26.6304Z" fill="#FFDA44"/>
</g>
<defs>
<clipPath id="clip0_105_1452">
<rect width="50" height="50" fill="white"/>
</clipPath>
</defs>
</svg>
