<svg width="50" height="50" viewBox="0 0 50 50" fill="none" xmlns="http://www.w3.org/2000/svg">
<g clip-path="url(#clip0_105_1461)">
<path d="M0 24.9999C0 28.0581 0.550098 30.9874 1.55508 33.6958L25 35.8694L48.4449 33.6957C49.45 30.9874 50 28.058 50 24.9999C50 21.9838 49.4657 19.0925 48.4869 16.4154L25 14.1304L1.51309 16.4155C0.534277 19.0925 0 21.9838 0 24.9999H0Z" fill="#FFDA44"/>
<path d="M25 50.0002C35.7491 50.0002 44.9126 43.2158 48.445 33.6958H1.55493C5.08726 43.2158 14.2508 50.0002 25 50.0002Z" fill="#D80027"/>
<path d="M25 0C14.2508 0 5.08726 6.78437 1.55493 16.3044H48.4451C44.9126 6.78437 35.7491 0 25 0Z" fill="#6DA544"/>
<path d="M25 36.9565C31.6034 36.9565 36.9565 31.6034 36.9565 25C36.9565 18.3966 31.6034 13.0435 25 13.0435C18.3966 13.0435 13.0435 18.3966 13.0435 25C13.0435 31.6034 18.3966 36.9565 25 36.9565Z" fill="#0052B4"/>
<path d="M24.9975 15.7412L27.1559 22.384H34.1517L28.4898 26.4896L30.6652 33.1521L24.9975 29.027L19.3385 33.1444L21.5051 26.4896L15.8484 22.384H22.8391L24.9975 15.7412Z" fill="#FFDA44"/>
<path d="M33.6059 26.6533L26.7586 24.4283L30.9904 18.6041L29.2318 17.3262L24.9998 23.1508L20.7683 17.3263L19.0095 18.604L23.2411 24.4287L16.3942 26.6532L17.0658 28.7209L23.9131 26.4962V33.6956H26.0869V26.4961L32.9339 28.7209L33.6059 26.6533Z" fill="#FFDA44"/>
</g>
<defs>
<clipPath id="clip0_105_1461">
<rect width="50" height="50" fill="white"/>
</clipPath>
</defs>
</svg>
