<svg width="50" height="50" viewBox="0 0 50 50" fill="none" xmlns="http://www.w3.org/2000/svg">
<g clip-path="url(#clip0_105_1579)">
<path d="M25 50C38.8071 50 50 38.8071 50 25C50 11.1929 38.8071 0 25 0C11.1929 0 0 11.1929 0 25C0 38.8071 11.1929 50 25 50Z" fill="#FFDA44"/>
<path d="M10.9094 4.34785C14.9216 1.60508 19.773 0 25 0C30.2269 0 35.0783 1.60508 39.0905 4.34785L25 5.43477L10.9094 4.34785Z" fill="#A2001D"/>
<path d="M25.0001 24.9998L23.4046 23.4043L22.981 24.1632L25.0001 24.9998Z" fill="#0052B4"/>
<path d="M7.32231 7.32227C-2.44077 17.0854 -2.44077 32.9145 7.32231 42.6777C11.3568 38.6433 15.237 34.7631 25 25L7.32231 7.32227Z" fill="#496E2D"/>
<path d="M42.6777 7.32227C52.4408 17.0854 52.4408 32.9145 42.6777 42.6777C38.6433 38.6433 34.7631 34.7631 25 25L42.6777 7.32227Z" fill="#496E2D"/>
<path d="M25 33.6954C29.8025 33.6954 33.6957 29.8023 33.6957 24.9998C33.6957 20.1974 29.8025 16.3042 25 16.3042C20.1976 16.3042 16.3044 20.1974 16.3044 24.9998C16.3044 29.8023 20.1976 33.6954 25 33.6954Z" fill="#A2001D"/>
<path d="M25 16.3042L26.9491 22.3031H33.2575L28.1542 26.0114L30.1033 32.0106L25 28.303L19.8965 32.0106L21.846 26.0114L16.7427 22.3031H23.0507L25 16.3042Z" fill="#FFDA44"/>
<path d="M25.0085 0H24.9918C18.0921 0.00224609 11.8459 2.79941 7.32373 7.32109H42.6766C38.1543 2.79941 31.9081 0.00224609 25.0085 0Z" fill="#A2001D"/>
<path d="M7.32373 42.6792C11.8478 47.2025 18.0972 50.0002 25 50.0002C31.9028 50.0002 38.1522 47.2025 42.6763 42.6792H7.32373Z" fill="#A2001D"/>
<path d="M25 2.71729L25.4048 3.96279H26.7144L25.6549 4.73262L26.0597 5.97812L25 5.2084L23.9405 5.97812L24.3453 4.73262L23.2856 3.96279H24.5952L25 2.71729Z" fill="#FFDA44"/>
<path d="M18.9377 2.71729L19.3425 3.96279H20.6521L19.5926 4.73262L19.9974 5.97812L18.9377 5.2084L17.8784 5.97812L18.2831 4.73262L17.2234 3.96279H18.533L18.9377 2.71729Z" fill="#FFDA44"/>
<path d="M31.0623 2.71729L31.467 3.96279H32.7766L31.7171 4.73262L32.1219 5.97812L31.0623 5.2084L30.0028 5.97812L30.4076 4.73262L29.3479 3.96279H30.6575L31.0623 2.71729Z" fill="#FFDA44"/>
<path d="M25 44.0215L25.4048 45.267H26.7144L25.6549 46.0368L26.0597 47.2823L25 46.5125L23.9405 47.2823L24.3453 46.0368L23.2856 45.267H24.5952L25 44.0215Z" fill="#FFDA44"/>
<path d="M18.9377 44.0215L19.3425 45.267H20.6521L19.5926 46.0368L19.9974 47.2823L18.9377 46.5125L17.8784 47.2823L18.2831 46.0368L17.2234 45.267H18.533L18.9377 44.0215Z" fill="#FFDA44"/>
<path d="M31.0623 44.0215L31.467 45.267H32.7766L31.7171 46.0368L32.1219 47.2823L31.0623 46.5125L30.0028 47.2823L30.4076 46.0368L29.3479 45.267H30.6575L31.0623 44.0215Z" fill="#FFDA44"/>
<path d="M7.61742 24.5871C8.25951 25.6017 7.95775 26.9445 6.9432 27.5867C5.92875 28.2289 4.58578 27.9271 3.94359 26.9126C2.78099 25.0759 3.45512 22.0762 3.45512 22.0762C3.45512 22.0762 6.45472 22.7503 7.61742 24.5871Z" fill="#FFDA44"/>
<path d="M6.36182 27.7554C6.9621 27.7554 7.44873 27.2687 7.44873 26.6685C7.44873 26.0682 6.9621 25.5815 6.36182 25.5815C5.76153 25.5815 5.2749 26.0682 5.2749 26.6685C5.2749 27.2687 5.76153 27.7554 6.36182 27.7554Z" fill="#A2001D"/>
</g>
<defs>
<clipPath id="clip0_105_1579">
<rect width="50" height="50" fill="white"/>
</clipPath>
</defs>
</svg>
