<svg width="50" height="50" viewBox="0 0 50 50" fill="none" xmlns="http://www.w3.org/2000/svg">
<g clip-path="url(#clip0_105_2407)">
<path d="M10.9092 45.652C14.9215 48.3946 19.7728 49.9998 24.9997 49.9998C30.2267 49.9998 35.078 48.3946 39.0902 45.652L24.9997 43.478L10.9092 45.652Z" fill="#D80027"/>
<path d="M39.0902 4.34785C35.078 1.60518 30.2267 0 24.9997 0C19.7728 0 14.9213 1.60518 10.9092 4.34785L24.9997 6.52178L39.0902 4.34785Z" fill="#D80027"/>
<path d="M10.9092 45.652C14.9215 48.3946 19.7728 49.9998 24.9997 49.9998C30.2267 49.9998 35.078 48.3946 39.0902 45.652L24.9997 43.478L10.9092 45.652Z" fill="#D80027"/>
<path d="M39.0902 4.34785C35.078 1.60518 30.2267 0 24.9997 0C19.7728 0 14.9213 1.60518 10.9092 4.34785L24.9997 6.52178L39.0902 4.34785Z" fill="#D80027"/>
<path d="M49.9365 23.3694C49.3442 15.6536 44.6561 8.15205 39.0907 4.34766H10.9097C4.74404 8.5626 0.561719 15.4657 0.0527344 23.3694L25.0002 24.9999L49.9365 23.3694Z" fill="#0052B4"/>
<path d="M0.0527344 26.6305C0.561719 34.5343 4.74394 41.4373 10.9096 45.6522H39.0906C45.2565 41.4374 49.4386 34.5343 49.9476 26.6305L25.0002 25L0.0527344 26.6305Z" fill="#0052B4"/>
<path d="M49.9363 23.3693H26.6305V3.26074H23.3696V23.3693H0.0526367C0.0179687 23.9084 0 24.4521 0 24.9999C0 25.5477 0.0178711 26.0912 0.0525391 26.6303H23.3696V46.7391H26.6305V26.6303H49.9476C49.9821 26.0912 50 25.5477 50 24.9999C50 24.4561 49.978 23.9122 49.9363 23.3693Z" fill="#D80027"/>
<path d="M9.78223 25.0002L24.9995 15.4355L40.217 25.0002L24.9995 34.5649L9.78223 25.0002Z" fill="#F0F0F0"/>
<path d="M16.3047 29.3479H35.8698L31.5221 22.8262L29.3481 25.0001L27.1742 23.9132L25.0003 27.174H20.6524L18.4785 25.0001L16.3047 29.3479Z" fill="#6DA544"/>
<path d="M25.0005 18.478L25.5401 20.1387H27.2861L25.8735 21.1651L26.4132 22.8259L25.0005 21.7995L23.5878 22.8259L24.1274 21.1651L22.7148 20.1387H24.4608L25.0005 18.478Z" fill="#FFDA44"/>
<path d="M24.9997 12.7026L5.43457 25.0001L24.9997 37.2976L44.565 25.0001L24.9997 12.7026ZM11.5623 25.0001L24.9997 16.5541L38.4373 25.0001L24.9997 33.4461L11.5623 25.0001Z" fill="#D80027"/>
</g>
<defs>
<clipPath id="clip0_105_2407">
<rect width="50" height="50" fill="white"/>
</clipPath>
</defs>
</svg>
