<svg width="50" height="50" viewBox="0 0 50 50" fill="none" xmlns="http://www.w3.org/2000/svg">
<g clip-path="url(#clip0_105_2566)">
<path d="M25 50C38.8071 50 50 38.8071 50 25C50 11.1929 38.8071 0 25 0C11.1929 0 0 11.1929 0 25C0 38.8071 11.1929 50 25 50Z" fill="#FFDA44"/>
<path d="M19.565 21.7392H49.7881C48.1901 9.47285 37.7016 0 24.9997 0C23.1331 0 21.3148 0.206348 19.5649 0.594238V21.7392H19.565Z" fill="#0052B4"/>
<path d="M13.0433 21.7389V3.03955C6.17861 6.78506 1.26445 13.6553 0.211426 21.739H13.0433V21.7389Z" fill="#0052B4"/>
<path d="M13.0432 28.2607H0.211426C1.26445 36.3444 6.17861 43.2147 13.0433 46.9601L13.0432 28.2607Z" fill="#0052B4"/>
<path d="M19.5649 28.2608V49.4057C21.3148 49.7936 23.1331 49.9999 24.9997 49.9999C37.7016 49.9999 48.1901 40.5271 49.7881 28.2607H19.5649V28.2608Z" fill="#0052B4"/>
</g>
<defs>
<clipPath id="clip0_105_2566">
<rect width="50" height="50" fill="white"/>
</clipPath>
</defs>
</svg>
