<svg width="50" height="50" viewBox="0 0 50 50" fill="none" xmlns="http://www.w3.org/2000/svg">
<g clip-path="url(#clip0_105_1887)">
<path d="M0 24.9999C0 28.0579 0.550098 30.9872 1.55498 33.6955L25 34.7825L48.445 33.6956C49.45 30.9872 50 28.0579 50 24.9999C50 21.9419 49.45 19.0126 48.445 16.3043L25 15.2173L1.55498 16.3042C0.550098 19.0126 0 21.9419 0 24.9999H0Z" fill="#D80027"/>
<path d="M25.0002 0C14.2511 0 5.0875 6.78437 1.55518 16.3044H48.4453C44.9129 6.78437 35.7493 0 25.0002 0Z" fill="black"/>
<path d="M48.4452 33.6958H1.55518C5.0875 43.2157 14.2511 50.0002 25.0002 50.0002C35.7493 50.0002 44.9129 43.2157 48.4452 33.6958Z" fill="#496E2D"/>
<path d="M32.4722 11.9563L29.419 10.5202L31.0449 7.56328L27.7295 8.19756L27.3094 4.84814L25 7.31152L22.6907 4.84814L22.2705 8.19756L18.9552 7.56328L20.5811 10.5202L17.5278 11.9563H32.4722Z" fill="#D80027"/>
</g>
<defs>
<clipPath id="clip0_105_1887">
<rect width="50" height="50" fill="white"/>
</clipPath>
</defs>
</svg>
