<svg width="50" height="50" viewBox="0 0 50 50" fill="none" xmlns="http://www.w3.org/2000/svg">
<g clip-path="url(#clip0_105_1342)">
<path d="M25 50C38.8071 50 50 38.8071 50 25C50 11.1929 38.8071 0 25 0C11.1929 0 0 11.1929 0 25C0 38.8071 11.1929 50 25 50Z" fill="#FFDA44"/>
<path d="M24.9999 49.9999C33.203 49.9999 40.4832 46.0489 45.0418 39.9463H4.95801C9.5166 46.0489 16.7968 49.9999 24.9999 49.9999Z" fill="#0052B4"/>
<path d="M50 25C50 11.193 38.807 0 25 0C11.193 0 0 11.193 0 25C0 27.9563 0.514551 30.7922 1.45664 33.4247H48.5433C49.4855 30.7922 50 27.9563 50 25Z" fill="#0052B4"/>
<path d="M17.1113 16.0332L18.4603 20.1848H22.8259L19.2941 22.751L20.6431 26.9027L17.1113 24.3367L13.5796 26.9027L14.9287 22.751L11.397 20.1848H15.7624L17.1113 16.0332Z" fill="#F0F0F0"/>
<path d="M9.61455 11.6855L10.4239 14.1766H13.0434L10.9243 15.7162L11.7337 18.2073L9.61455 16.6677L7.49551 18.2073L8.30498 15.7162L6.18604 14.1766H8.80537L9.61455 11.6855Z" fill="#F0F0F0"/>
</g>
<defs>
<clipPath id="clip0_105_1342">
<rect width="50" height="50" fill="white"/>
</clipPath>
</defs>
</svg>
