<svg width="50" height="50" viewBox="0 0 50 50" fill="none" xmlns="http://www.w3.org/2000/svg">
<g clip-path="url(#clip0_105_2517)">
<path d="M25 50C38.8071 50 50 38.8071 50 25C50 11.1929 38.8071 0 25 0C11.1929 0 0 11.1929 0 25C0 38.8071 11.1929 50 25 50Z" fill="#F0F0F0"/>
<path d="M44.6377 20.1085H36.413C36.413 18.6077 35.1964 17.3911 33.6957 17.3911L31.5217 21.7389C31.5217 21.7389 33.8406 28.2607 33.7681 28.2607H36.4855C37.9863 28.2607 39.2028 27.0442 39.2028 25.5433C40.7037 25.5433 41.9202 24.3268 41.9202 22.8259H41.8297C43.3304 22.8258 44.6377 21.6093 44.6377 20.1085Z" fill="#ACABB1"/>
<path d="M5.3623 20.1085H13.5869C13.5869 18.6077 14.8035 17.3911 16.3043 17.3911L18.4782 21.7389C18.4782 21.7389 16.1593 28.2607 16.2319 28.2607H13.5145C12.0137 28.2607 10.7971 27.0442 10.7971 25.5433C9.29629 25.5433 8.07977 24.3268 8.07977 22.8259H8.17027C6.66943 22.8258 5.3623 21.6093 5.3623 20.1085Z" fill="#ACABB1"/>
<path d="M33.6957 34.7827V35.8696H16.3043V34.7827H11.9565V39.1305H16.3043V40.2174H33.6957V39.1305H38.0435V34.7827H33.6957Z" fill="#FFDA44"/>
<path d="M16.3042 17.3911V28.2606C16.3042 34.9167 24.9998 36.9563 24.9998 36.9563C24.9998 36.9563 33.6954 34.9167 33.6954 28.2606V17.3911L24.9998 16.3042L16.3042 17.3911Z" fill="#0052B4"/>
<path d="M16.3044 21.7397H33.6957V28.2615H16.3044V21.7397Z" fill="#D80027"/>
<path d="M29.3476 11.9567V13.5871L28.2607 14.1306L27.1738 13.0436V9.78271H22.826V13.0436L21.739 14.1306L20.652 13.5871V11.9567H16.3042V17.3914H33.6955V11.9567H29.3476Z" fill="#FFDA44"/>
</g>
<defs>
<clipPath id="clip0_105_2517">
<rect width="50" height="50" fill="white"/>
</clipPath>
</defs>
</svg>
