<svg width="50" height="50" viewBox="0 0 50 50" fill="none" xmlns="http://www.w3.org/2000/svg">
<g clip-path="url(#clip0_105_2146)">
<path d="M25 50C38.8071 50 50 38.8071 50 25C50 11.1929 38.8071 0 25 0C11.1929 0 0 11.1929 0 25C0 38.8071 11.1929 50 25 50Z" fill="#338AF3"/>
<path d="M24.212 40.741C23.538 40.7084 22.9804 40.2704 22.762 39.6757C22.3761 40.179 21.713 40.4323 21.0598 40.2638C20.4054 40.0954 19.9479 39.5541 19.8533 38.9257C19.3728 39.3409 18.6728 39.4539 18.0674 39.1573C17.4609 38.8594 17.1218 38.2365 17.1566 37.6028C16.6034 37.9136 15.8947 37.8833 15.361 37.4702C14.8284 37.0571 14.6208 36.3799 14.7816 35.7658C14.1772 35.9592 13.4903 35.7876 13.05 35.2755C12.6098 34.7647 12.5423 34.0592 12.8229 33.4908C12.1924 33.5581 11.5534 33.2516 11.225 32.6626C10.8957 32.0734 10.9718 31.368 11.362 30.8668C10.7304 30.8059 10.1652 30.3765 9.96304 29.7331C9.75981 29.0896 9.9772 28.4135 10.4609 28.0015C9.85434 27.8144 9.38911 27.2796 9.32065 26.6091C9.2522 25.9385 9.60005 25.3222 10.1554 25.0157C9.59995 24.7113 9.24995 24.0951 9.31626 23.4254H9.31733C9.38364 22.7537 9.84888 22.2179 10.4542 22.0287C9.97056 21.6178 9.75102 20.9428 9.9521 20.2993C10.1532 19.6547 10.7172 19.2243 11.3489 19.1612C10.9586 18.6612 10.8804 17.9556 11.2076 17.3656C11.5347 16.7764 12.1739 16.4688 12.8054 16.5351C12.5228 15.9667 12.5891 15.2612 13.0283 14.7482C13.4664 14.2363 14.1533 14.0634 14.7587 14.2547C14.5957 13.6417 14.8022 12.9634 15.3348 12.5494C15.8664 12.1351 16.575 12.1036 17.1283 12.4123C17.0924 11.7787 17.4304 11.1557 18.0359 10.8568C18.6403 10.5589 19.3414 10.6699 19.8228 11.085C19.9152 10.4569 20.3728 9.91343 21.026 9.7437C21.6782 9.57417 22.3413 9.82525 22.7282 10.3274C22.9466 9.73286 23.5032 9.2937 24.1771 9.26001C24.8499 9.22534 25.4477 9.60347 25.726 10.1721C26.0586 9.63296 26.6913 9.31343 27.3576 9.41451C28.0249 9.51451 28.537 10.0057 28.6957 10.62C29.1304 10.1568 29.8152 9.9732 30.4478 10.2057C31.0815 10.4394 31.4836 11.0242 31.5141 11.6589C32.0326 11.2938 32.7413 11.2513 33.3141 11.6079C33.887 11.9633 34.162 12.6166 34.0641 13.2437C34.6457 12.9905 35.3478 13.0916 35.837 13.5545C36.3261 14.0187 36.4652 14.7132 36.2435 15.3078C36.8641 15.1762 37.5316 15.4154 37.9185 15.9686C38.3054 16.5208 38.3022 17.2294 37.9664 17.7675C38.6 17.7631 39.2055 18.1328 39.474 18.7512C39.7414 19.3708 39.5946 20.0654 39.1566 20.5251C39.7794 20.6491 40.2979 21.1328 40.4348 21.7936C40.5707 22.4544 40.287 23.1034 39.7664 23.4654C40.349 23.7123 40.7598 24.2893 40.7609 24.9632V24.985V24.9992C40.7609 25.673 40.3522 26.2513 39.7696 26.5002C40.2914 26.8601 40.5772 27.5089 40.4414 28.1698C40.3066 28.8306 39.7892 29.3155 39.1664 29.4416C39.6055 29.9002 39.7544 30.5937 39.4881 31.2144C39.2218 31.8339 38.6164 32.2046 37.9816 32.2013C38.3185 32.7394 38.324 33.4481 37.9381 34.0013C37.5523 34.5547 36.886 34.7959 36.2653 34.6655C36.4881 35.2589 36.35 35.9546 35.8621 36.4199C35.3729 36.8841 34.6718 36.9862 34.0903 36.7351C34.1892 37.3612 33.9153 38.0156 33.3435 38.3732C32.7717 38.7308 32.063 38.6894 31.5435 38.3253C31.5141 38.9601 31.1141 39.546 30.4816 39.7808C29.8491 40.0156 30.4816 39.7808 30.4805 39.7808C29.8479 40.0145 29.1631 39.832 28.7273 39.3701C28.5707 39.9853 28.0599 40.4776 27.3925 40.5798C26.7262 40.6809 26.0925 40.3635 25.7588 39.8244C25.4936 40.3711 24.9328 40.7428 24.2936 40.7428C24.2664 40.7432 24.2392 40.7421 24.212 40.741Z" fill="#F3F3F3"/>
<path d="M25 35.8694C31.0031 35.8694 35.8696 31.003 35.8696 24.9999C35.8696 18.9968 31.0031 14.1304 25 14.1304C18.9969 14.1304 14.1305 18.9968 14.1305 24.9999C14.1305 31.003 18.9969 35.8694 25 35.8694Z" fill="#338AF3"/>
<path d="M27.3792 21.3103C27.9132 20.9142 28.2608 20.2811 28.2608 19.565V18.4781C28.2608 17.2774 27.2876 16.3042 26.0869 16.3042H23.9131C22.7124 16.3042 21.7391 17.2774 21.7391 18.4781V19.565C21.7391 20.2811 22.0868 20.9142 22.6208 21.3103L20.6522 41.3041C20.6522 41.3041 21.7391 42.3912 25.0001 42.3912C28.261 42.3912 29.3479 41.3041 29.3479 41.3041L27.3792 21.3103Z" fill="#BDBCC1"/>
<path d="M25 16.3042L26.8884 22.1165H33.0002L28.0559 25.7091L29.9443 31.5216L25 27.9293L20.0554 31.5216L21.9442 25.7091L16.9998 22.1165H23.1114L25 16.3042Z" fill="#F0F0F0"/>
</g>
<defs>
<clipPath id="clip0_105_2146">
<rect width="50" height="50" fill="white"/>
</clipPath>
</defs>
</svg>
