<svg width="50" height="50" viewBox="0 0 50 50" fill="none" xmlns="http://www.w3.org/2000/svg">
<g clip-path="url(#clip0_105_934)">
<path d="M25 50C38.8071 50 50 38.8071 50 25C50 11.1929 38.8071 0 25 0C11.1929 0 0 11.1929 0 25C0 38.8071 11.1929 50 25 50Z" fill="#F0F0F0"/>
<path d="M0.211914 28.2607C0.793555 32.7249 2.55352 36.8182 5.16846 40.2201L18.4784 28.2607H0.211914Z" fill="#D80027"/>
<path d="M21.7392 49.7881V31.5215L9.77979 44.8315C13.1818 47.4465 17.275 49.2065 21.7392 49.7881Z" fill="#D80027"/>
<path d="M21.7392 0.211426C17.275 0.793066 13.1818 2.55303 9.77979 5.16797L21.7392 18.4781V0.211426Z" fill="#D80027"/>
<path d="M0.211914 21.7392H18.4784L5.16836 9.77979C2.55342 13.1817 0.793457 17.275 0.211914 21.7392Z" fill="#D80027"/>
<path d="M28.2612 0.211426V18.478L40.2208 5.16797C36.8188 2.55322 32.7255 0.792969 28.2612 0.211426Z" fill="#D80027"/>
<path d="M49.7886 21.7388C49.2069 17.2746 47.447 13.1813 44.832 9.7793L31.522 21.7388H49.7886Z" fill="#D80027"/>
<path d="M31.522 28.2607L44.8321 40.2202C47.447 36.8182 49.207 32.7249 49.7887 28.2607H31.522Z" fill="#D80027"/>
<path d="M28.2612 49.7881C32.7254 49.2064 36.8187 47.4465 40.2207 44.8314L28.2612 31.5215V49.7881Z" fill="#D80027"/>
<path d="M44.8336 40.2221L29.6115 24.9999L29.6114 24.9998L44.8336 9.77754C44.1771 8.92441 43.459 8.10371 42.6775 7.32207C41.8961 6.54063 41.0753 5.82236 40.2221 5.16602L24.9999 20.3882H24.9998L9.77764 5.16602C8.92451 5.82246 8.10371 6.54053 7.32207 7.32207C6.54063 8.10371 5.82236 8.92441 5.16602 9.77764L20.3882 24.9997L20.3883 24.9998L5.16611 40.2221C5.82256 41.0751 6.54072 41.8959 7.32217 42.6775C8.10371 43.459 8.92451 44.1772 9.77773 44.8336L24.9998 29.6114L40.2221 44.8336C41.0751 44.1771 41.8959 43.459 42.6775 42.6775C43.4591 41.8959 44.1771 41.0751 44.8336 40.2221Z" fill="#496E2D"/>
<path d="M28.2608 49.7884V28.2611V28.2609H49.7884C49.9275 27.1935 50 26.1052 50 25C50 23.8949 49.9274 22.8066 49.7884 21.7393H28.261L28.2609 21.7392V0.211719C27.1936 0.0727539 26.1054 0 25 0C23.8948 9.76563e-05 22.8065 0.0727539 21.7392 0.211719L21.7393 21.739V21.7392H0.211719C0.0726562 22.8065 0 23.8948 0 25C9.76563e-05 26.1054 0.0726562 27.1935 0.211719 28.2608H21.7391L21.7392 49.7884C22.8066 49.9273 23.8946 50 25 50C26.1054 50 27.1936 49.9273 28.2608 49.7884Z" fill="#F0F0F0"/>
</g>
<defs>
<clipPath id="clip0_105_934">
<rect width="50" height="50" fill="white"/>
</clipPath>
</defs>
</svg>
