<svg width="50" height="50" viewBox="0 0 50 50" fill="none" xmlns="http://www.w3.org/2000/svg">
<g clip-path="url(#clip0_105_2212)">
<path d="M25 50C38.8071 50 50 38.8071 50 25C50 11.1929 38.8071 0 25 0C11.1929 0 0 11.1929 0 25C0 38.8071 11.1929 50 25 50Z" fill="#F0F0F0"/>
<path d="M25 0C15.0885 0 6.52446 5.76807 2.48071 14.1305H47.5193C43.4756 5.76807 34.9115 0 25 0Z" fill="#D80027"/>
<path d="M25 50.0001C34.9115 50.0001 43.4756 44.232 47.5194 35.8696H2.48071C6.52446 44.232 15.0885 50.0001 25 50.0001Z" fill="#0052B4"/>
<path d="M31.1487 17.7642L28.8429 20.0699C29.8264 21.0534 30.4348 22.4121 30.4348 23.9129C30.4348 26.9145 28.0015 29.3477 25.0001 29.3477C21.9986 29.3477 19.5653 26.9144 19.5653 23.9129C19.5653 22.4121 20.1737 21.0534 21.1572 20.0699L18.8514 17.7642C17.2777 19.3376 16.3044 21.5115 16.3044 23.9129C16.3044 28.7154 20.1976 32.6085 25.0001 32.6085C29.8025 32.6085 33.6957 28.7153 33.6957 23.9129C33.6956 21.5115 32.7223 19.3376 31.1487 17.7642Z" fill="#6DA544"/>
<path d="M25 20.6523L25.8095 23.1436H28.4287L26.3097 24.683L27.1191 27.1741L25 25.6346L22.8809 27.1741L23.6903 24.683L21.5713 23.1436H24.1905L25 20.6523Z" fill="#FFDA44"/>
</g>
<defs>
<clipPath id="clip0_105_2212">
<rect width="50" height="50" fill="white"/>
</clipPath>
</defs>
</svg>
