<svg width="50" height="50" viewBox="0 0 50 50" fill="none" xmlns="http://www.w3.org/2000/svg">
<g clip-path="url(#clip0_105_2469)">
<path d="M25 50C38.8071 50 50 38.8071 50 25C50 11.1929 38.8071 0 25 0C11.1929 0 0 11.1929 0 25C0 38.8071 11.1929 50 25 50Z" fill="#F0F0F0"/>
<path d="M7.32231 42.6777C-2.44077 32.9145 -2.44077 17.0854 7.32231 7.32227C7.32163 7.32334 21.7392 25 21.7392 25L7.32231 42.6777Z" fill="black"/>
<path d="M21.7393 25.0002L3.31582 12.5503C2.74463 13.5432 2.24092 14.5795 1.80811 15.6521L11.1352 25.0003L1.8084 34.3489C2.24082 35.4208 2.74404 36.4564 3.31484 37.4486L21.7393 25.0002Z" fill="#FFDA44"/>
<path d="M49.7886 21.7393H21.7387L7.32227 7.32275C5.76875 8.87627 4.41904 10.6332 3.31592 12.5503L15.7416 25.0001L3.31494 37.4483C4.41807 39.3659 5.76836 41.1234 7.32227 42.6773L21.7387 28.2609H49.7886C49.9275 27.1936 50.0002 26.1053 50.0002 25.0001C50.0002 23.8949 49.9275 22.8066 49.7886 21.7393Z" fill="#6DA544"/>
<path d="M9.7793 44.8319C13.995 48.0724 19.2721 50.0002 25.0002 50.0002C36.5509 50.0002 46.2702 42.1661 49.139 31.522H23.0894L9.7793 44.8319Z" fill="#0052B4"/>
<path d="M49.139 18.4782C46.2702 7.83408 36.5509 0 25.0002 0C19.2721 0 13.995 1.92783 9.7793 5.16826L23.0893 18.4782H49.139Z" fill="#D80027"/>
</g>
<defs>
<clipPath id="clip0_105_2469">
<rect width="50" height="50" fill="white"/>
</clipPath>
</defs>
</svg>
