<svg width="50" height="50" viewBox="0 0 50 50" fill="none" xmlns="http://www.w3.org/2000/svg">
<g clip-path="url(#clip0_105_1268)">
<path d="M25 50C38.8071 50 50 38.8071 50 25C50 11.1929 38.8071 0 25 0C11.1929 0 0 11.1929 0 25C0 38.8071 11.1929 50 25 50Z" fill="#F0F0F0"/>
<path d="M49.999 24.9277H22.8984C17.5179 30.3084 14.2642 34.4624 10.9419 37.7847L25.0724 39.0581L46.9995 36.8842C48.9131 33.3495 49.9999 29.3018 49.9999 25.0001C49.9999 24.9759 49.999 24.952 49.999 24.9277Z" fill="#D80027"/>
<path d="M10.9422 12.9711H46.9199C42.6682 5.23984 34.4465 0 25.0001 0C18.1148 0 11.8809 2.78428 7.35986 7.2875L10.9422 12.9711Z" fill="#FFDA44"/>
<path d="M12.029 36.8843C9.78149 39.1317 8.91294 41.0147 7.28687 42.6407C11.8137 47.1863 18.0779 50.0002 25 50.0002C34.5054 50.0002 42.7714 44.695 46.9997 36.8843H12.029Z" fill="#0052B4"/>
<path d="M7.32231 7.25C-2.44077 17.0131 -2.44077 32.8423 7.32231 42.6055C11.3568 38.571 15.237 34.6908 25 24.9277L7.32231 7.25Z" fill="#6DA544"/>
<path d="M6.59419 24.9275C6.59419 21.2852 9.15405 18.2423 12.5724 17.4958C12.047 17.3811 11.5019 17.3188 10.9419 17.3188C6.7397 17.3188 3.33325 20.7253 3.33325 24.9275C3.33325 29.1298 6.7397 32.5362 10.9419 32.5362C11.5018 32.5362 12.0469 32.474 12.5724 32.3593C9.15405 31.6127 6.59419 28.5699 6.59419 24.9275Z" fill="#F0F0F0"/>
<path d="M12.4885 18.4058L12.8933 19.6513H14.2029L13.1433 20.4211L13.5481 21.6666L12.4885 20.8969L11.429 21.6666L11.8337 20.4211L10.7742 19.6513H12.0837L12.4885 18.4058Z" fill="#F0F0F0"/>
<path d="M12.4885 21.6665L12.8933 22.9121H14.2029L13.1433 23.6818L13.5481 24.9274L12.4885 24.1576L11.429 24.9274L11.8337 23.6818L10.7742 22.9121H12.0837L12.4885 21.6665Z" fill="#F0F0F0"/>
<path d="M12.4885 24.9277L12.8933 26.1732H14.2029L13.1433 26.9431L13.5481 28.1886L12.4885 27.4187L11.429 28.1886L11.8337 26.9431L10.7742 26.1732H12.0837L12.4885 24.9277Z" fill="#F0F0F0"/>
<path d="M12.4885 28.1885L12.8933 29.434H14.2029L13.1433 30.2038L13.5481 31.4493L12.4885 30.6796L11.429 31.4493L11.8337 30.2038L10.7742 29.434H12.0837L12.4885 28.1885Z" fill="#F0F0F0"/>
</g>
<defs>
<clipPath id="clip0_105_1268">
<rect width="50" height="50" fill="white"/>
</clipPath>
</defs>
</svg>
