<svg width="50" height="50" viewBox="0 0 50 50" fill="none" xmlns="http://www.w3.org/2000/svg">
<g clip-path="url(#clip0_105_1350)">
<path d="M25 50C38.8071 50 50 38.8071 50 25C50 11.1929 38.8071 0 25 0C11.1929 0 0 11.1929 0 25C0 38.8071 11.1929 50 25 50Z" fill="#FCFCFC"/>
<path d="M39.1304 21.7393C38.3695 21.7393 37.4274 21.7393 35.8695 21.7393C35.8695 27.7424 31.0029 32.6088 25 32.6088C18.9968 32.6088 14.1305 27.7424 14.1305 21.7393C13.0797 21.7393 11.9202 21.7393 10.8696 21.7393C10.8696 28.2056 15.213 33.6574 21.1417 35.3364C20.4917 36.5712 20.5907 38.1258 21.5192 39.2845C22.7388 38.307 24.0014 37.2952 25.0725 36.437C26.1436 37.2953 27.4062 38.3071 28.6257 39.2845C29.5634 38.1143 29.6557 36.5399 28.9841 35.2992C34.8479 33.579 39.1304 28.1596 39.1304 21.7393Z" fill="#6DA544"/>
<path d="M16.3042 20.6521C16.3042 20.6521 16.3042 26.0869 21.739 26.0869L22.8259 27.1738H24.9998C24.9998 27.1738 26.0867 23.913 28.2606 23.913C28.2606 23.913 28.2606 21.7391 30.4346 21.7391C32.6085 21.7391 33.6954 21.7391 33.6954 21.7391C33.6954 21.7391 32.6085 17.3912 38.0433 14.1304L35.8693 13.0435C35.8693 13.0435 28.2606 18.4782 22.8259 17.3913V19.5652H20.652L19.565 18.4783L16.3042 20.6521Z" fill="#FFDA44"/>
</g>
<defs>
<clipPath id="clip0_105_1350">
<rect width="50" height="50" fill="white"/>
</clipPath>
</defs>
</svg>
