<svg width="50" height="50" viewBox="0 0 50 50" fill="none" xmlns="http://www.w3.org/2000/svg">
<g clip-path="url(#clip0_105_2583)">
<path d="M50 25C50 38.807 38.807 50 25 50C11.193 50 0 38.807 0 25C8.58691 16.4131 15.8695 9.13047 25 0C38.807 0 50 11.193 50 25Z" fill="#D80027"/>
<path d="M25 25C25 11.193 25 9.56523 25 0C11.193 0 0 11.193 0 25H25Z" fill="#0052B4"/>
<path d="M21.7391 14.631L18.6859 16.0673L20.3117 19.0242L16.9964 18.3898L16.5761 21.7392L14.267 19.2759L11.9576 21.7392L11.5376 18.3898L8.22214 19.024L9.84792 16.0671L6.7948 14.631L9.84802 13.1949L8.22214 10.2379L11.5375 10.8722L11.9577 7.52295L14.267 9.98623L16.5762 7.52295L16.9964 10.8722L20.3118 10.2379L18.6859 13.195L21.7391 14.631Z" fill="#F0F0F0"/>
<path d="M14.2674 19.2843C16.8375 19.2843 18.921 17.2008 18.921 14.6307C18.921 12.0605 16.8375 9.97705 14.2674 9.97705C11.6973 9.97705 9.61377 12.0605 9.61377 14.6307C9.61377 17.2008 11.6973 19.2843 14.2674 19.2843Z" fill="#0052B4"/>
<path d="M14.2669 17.1107C12.8997 17.1107 11.7874 15.9983 11.7874 14.6311C11.7874 13.2638 12.8998 12.1514 14.2669 12.1514C15.6342 12.1514 16.7466 13.2638 16.7466 14.6311C16.7465 15.9983 15.634 17.1107 14.2669 17.1107Z" fill="#F0F0F0"/>
</g>
<defs>
<clipPath id="clip0_105_2583">
<rect width="50" height="50" fill="white"/>
</clipPath>
</defs>
</svg>
