<svg width="50" height="50" viewBox="0 0 50 50" fill="none" xmlns="http://www.w3.org/2000/svg">
<g clip-path="url(#clip0_105_992)">
<path d="M42.6776 42.6779C32.9145 52.441 17.0854 52.441 7.32225 42.6779C-2.44083 32.9148 -2.44083 17.0856 7.32225 7.32244C7.32577 7.32244 29.7889 0.685034 39.552 10.4481C49.3152 20.2112 42.6844 42.6711 42.6776 42.6779Z" fill="#FFDA44"/>
<path d="M42.6776 42.6778C52.4407 32.9147 52.4407 17.0855 42.6776 7.32235C32.9146 -2.44083 17.0854 -2.44073 7.32227 7.32235L42.6776 42.6778Z" fill="#D80027"/>
<path d="M31.5348 31.537C30.5078 31.9403 29.3145 31.8976 28.2793 31.3166C26.4502 30.29 25.7973 27.9664 26.8241 26.137L26.5124 25.9622C29.6443 25.207 31.9614 22.3643 31.9208 19.0096C31.8956 16.9239 30.9637 15.058 29.5059 13.7812L27.2234 16.1197C28.0863 16.8074 28.6458 17.8623 28.6601 19.0491C28.6855 21.1468 26.9998 22.874 24.9022 22.8993L24.9066 23.2564C22.6866 20.9219 19.0663 20.3366 16.1814 22.0491C14.3879 23.114 13.2381 24.8538 12.861 26.7547L16.0274 27.5623C16.1916 26.4711 16.8253 25.4592 17.8459 24.8532C19.6497 23.7824 21.9884 24.3789 23.0592 26.1826L23.3666 26.0003C22.4547 29.0899 23.7579 32.518 26.6836 34.1602C28.5025 35.1811 30.5842 35.3069 32.4189 34.683L31.5348 31.537ZM24.9285 25.0728L24.9283 25.0729L24.9285 25.0728Z" fill="#FF9811"/>
<path d="M34.2564 16.9315L32.4894 23.2373L27.1877 22.2583L23.775 15.2236L14.5555 18.4952L13.8285 16.4464L11.4164 16.1492L13.2339 21.2712L19.5785 19.6485L21.3815 24.7295L16.9956 31.2022L24.4386 37.5505L23.0278 39.2045L23.9765 41.4423L27.5037 37.3071L22.9261 32.6238L26.4249 28.522L34.2235 29.0839L35.9998 19.4638L38.1376 19.8586L39.6013 17.9182L34.2564 16.9315ZM24.9981 25.1699V25.1701V25.1699Z" fill="#FFEACF"/>
</g>
<defs>
<clipPath id="clip0_105_992">
<rect width="50" height="50" fill="white"/>
</clipPath>
</defs>
</svg>
