<svg width="50" height="50" viewBox="0 0 50 50" fill="none" xmlns="http://www.w3.org/2000/svg">
<g clip-path="url(#clip0_105_2661)">
<path d="M25 50C38.8071 50 50 38.8071 50 25C50 11.1929 38.8071 0 25 0C11.1929 0 0 11.1929 0 25C0 38.8071 11.1929 50 25 50Z" fill="#D80027"/>
<path d="M25 36.9565C31.6034 36.9565 36.9565 31.6034 36.9565 25C36.9565 18.3966 31.6034 13.0435 25 13.0435C18.3966 13.0435 13.0435 18.3966 13.0435 25C13.0435 31.6034 18.3966 36.9565 25 36.9565Z" fill="#F0F0F0"/>
<path d="M26.473 20.4282L28.5242 23.2549L31.8462 22.1777L29.7918 25.002L31.8427 27.8285L28.5218 26.7473L26.4675 29.5715L26.4696 26.0792L23.1488 24.9979L26.4709 23.9208L26.473 20.4282Z" fill="#D80027"/>
<path d="M27.7174 32.0651C23.8155 32.0651 20.6522 28.9019 20.6522 24.9999C20.6522 21.0979 23.8155 17.9347 27.7174 17.9347C28.934 17.9347 30.0789 18.2423 31.0783 18.7839C29.5104 17.2506 27.3664 16.3042 25 16.3042C20.1977 16.3042 16.3044 20.1974 16.3044 24.9998C16.3044 29.8022 20.1977 33.6954 25 33.6954C27.3664 33.6954 29.5105 32.749 31.0783 31.2157C30.0789 31.7575 28.934 32.0651 27.7174 32.0651Z" fill="#D80027"/>
</g>
<defs>
<clipPath id="clip0_105_2661">
<rect width="50" height="50" fill="white"/>
</clipPath>
</defs>
</svg>
