<svg width="50" height="50" viewBox="0 0 50 50" fill="none" xmlns="http://www.w3.org/2000/svg">
<g clip-path="url(#clip0_105_2432)">
<path d="M25 50C38.8071 50 50 38.8071 50 25C50 11.1929 38.8071 0 25 0C11.1929 0 0 11.1929 0 25C0 38.8071 11.1929 50 25 50Z" fill="#F0F0F0"/>
<path d="M25 49.9998C38.807 49.9998 50 38.8068 50 24.9998C50 21.9418 49.45 19.0124 48.445 16.3042H1.55498C0.550098 19.0124 0 21.9418 0 24.9998C0 38.8068 11.193 49.9998 25 49.9998Z" fill="#0052B4"/>
<path d="M25 50.0002C35.7491 50.0002 44.9126 43.2158 48.445 33.6958H1.55493C5.08726 43.2158 14.2508 50.0002 25 50.0002Z" fill="#D80027"/>
<path d="M6.4646 14.1304V26.6017C6.4646 33.6958 15.7323 35.8695 15.7323 35.8695C15.7323 35.8695 24.9999 33.6958 24.9999 26.6017V14.1304H6.4646Z" fill="#F0F0F0"/>
<path d="M8.63867 14.1304V26.6017C8.63867 27.4345 8.82363 28.221 9.19004 28.9584H22.2747C22.6411 28.2211 22.8261 27.4345 22.8261 26.6017V14.1304H8.63867Z" fill="#D80027"/>
<path d="M20.0801 22.8259H16.8194V20.652H18.9933V18.478H16.8194V16.3042H14.6455V18.478H12.4716V20.652H14.6455V22.8259H11.3845V24.9998H14.6455V27.1737H16.8194V24.9998H20.0801V22.8259Z" fill="#F0F0F0"/>
<path d="M12.1553 31.9931C13.5562 32.8734 14.9955 33.3846 15.7323 33.6119C16.4691 33.3847 17.9083 32.8734 19.3092 31.9931C20.7219 31.1052 21.7123 30.0897 22.2746 28.9584C21.6543 28.5196 20.8976 28.2608 20.0801 28.2608C19.7825 28.2608 19.4933 28.2961 19.2153 28.3608C18.6261 27.0222 17.2887 26.0869 15.7324 26.0869C14.176 26.0869 12.8385 27.0222 12.2495 28.3608C11.9714 28.2961 11.6822 28.2608 11.3846 28.2608C10.5671 28.2608 9.8104 28.5196 9.19019 28.9584C9.7522 30.0896 10.7425 31.1051 12.1553 31.9931Z" fill="#0052B4"/>
</g>
<defs>
<clipPath id="clip0_105_2432">
<rect width="50" height="50" fill="white"/>
</clipPath>
</defs>
</svg>
