<svg width="50" height="50" viewBox="0 0 50 50" fill="none" xmlns="http://www.w3.org/2000/svg">
<g clip-path="url(#clip0_105_1127)">
<path d="M25 50C38.8071 50 50 38.8071 50 25C50 11.1929 38.8071 0 25 0C11.1929 0 0 11.1929 0 25C0 38.8071 11.1929 50 25 50Z" fill="#F0F0F0"/>
<path d="M40.2224 5.16598C31.272 -1.72133 18.7282 -1.72133 9.77783 5.16588L25.0001 20.3881L40.2224 5.16598Z" fill="#D80027"/>
<path d="M24.9999 29.6115L9.77783 44.8336C18.7282 51.7209 31.272 51.7209 40.2224 44.8336L25.0001 29.6113L24.9999 29.6115Z" fill="#D80027"/>
<path d="M20.3881 25.0001L5.16597 9.77783C-1.72134 18.7282 -1.72134 31.272 5.16597 40.2224L20.3881 25.0001Z" fill="#6DA544"/>
<path d="M29.6113 25.0001L44.8334 40.2224C51.7207 31.272 51.7207 18.7282 44.8334 9.77783L29.6113 25.0001Z" fill="#6DA544"/>
<path d="M24.9999 35.8694C31.003 35.8694 35.8694 31.003 35.8694 24.9999C35.8694 18.9968 31.003 14.1304 24.9999 14.1304C18.9968 14.1304 14.1304 18.9968 14.1304 24.9999C14.1304 31.003 18.9968 35.8694 24.9999 35.8694Z" fill="#F0F0F0"/>
<path d="M24.9997 17.3911L25.941 19.0216H27.8237L26.8823 20.652L27.8237 22.2824H25.941L24.9997 23.9129L24.0584 22.2824H22.1758L23.1171 20.652L22.1758 19.0216H24.0584L24.9997 17.3911Z" fill="#D80027"/>
<path d="M20.2151 25L21.1564 26.6305H23.0391L22.0978 28.2608L23.0391 29.8913H21.1564L20.2151 31.5218L19.2737 29.8913H17.3911L18.3324 28.2608L17.3911 26.6305H19.2737L20.2151 25Z" fill="#D80027"/>
<path d="M29.7845 25L30.7258 26.6305H32.6084L31.6671 28.2608L32.6084 29.8913H30.7258L29.7845 31.5218L28.8431 29.8913H26.9604L27.9018 28.2608L26.9604 26.6305H28.8431L29.7845 25Z" fill="#D80027"/>
</g>
<defs>
<clipPath id="clip0_105_1127">
<rect width="50" height="50" fill="white"/>
</clipPath>
</defs>
</svg>
