<svg width="50" height="50" viewBox="0 0 50 50" fill="none" xmlns="http://www.w3.org/2000/svg">
<g clip-path="url(#clip0_105_997)">
<path d="M50 24.9999C50 21.9419 49.45 19.0125 48.445 16.3043L25 15.2173L1.55498 16.3042C0.55 19.0125 0 21.9419 0 24.9999C0 28.0579 0.55 30.9873 1.55498 33.6955L25 34.7825L48.445 33.6956C49.45 30.9873 50 28.0579 50 24.9999Z" fill="#FFDA44"/>
<path d="M25 50.0002C35.7491 50.0002 44.9127 43.2158 48.445 33.6958H1.55498C5.08731 43.2158 14.2509 50.0002 25 50.0002Z" fill="#6DA544"/>
<path d="M1.55498 16.3044H48.4451C44.9127 6.78437 35.7491 0 25 0C14.2509 0 5.08731 6.78437 1.55498 16.3044Z" fill="#D80027"/>
</g>
<defs>
<clipPath id="clip0_105_997">
<rect width="50" height="50" fill="white"/>
</clipPath>
</defs>
</svg>
