<svg width="50" height="50" viewBox="0 0 50 50" fill="none" xmlns="http://www.w3.org/2000/svg">
<g clip-path="url(#clip0_105_2268)">
<path d="M25 50C38.8071 50 50 38.8071 50 25C50 11.1929 38.8071 0 25 0C11.1929 0 0 11.1929 0 25C0 38.8071 11.1929 50 25 50Z" fill="#FFDA44"/>
<path d="M28.802 49.7126C32.868 49.0923 36.6107 47.4911 39.784 45.1601L25 25L28.802 49.7126Z" fill="#D80027"/>
<path d="M21.1979 0.287598C17.132 0.90791 13.3893 2.50908 10.2158 4.84004L25 25.0002L21.1979 0.287598Z" fill="#D80027"/>
<path d="M10.2158 45.1601C13.3891 47.491 17.1318 49.0922 21.1978 49.7127L25 25L10.2158 45.1601Z" fill="#D80027"/>
<path d="M4.8398 10.2158C2.50874 13.3893 0.907764 17.1319 0.287354 21.1979L25 25L4.8398 10.2158Z" fill="#D80027"/>
<path d="M0.287354 28.802C0.907666 32.868 2.50884 36.6107 4.83989 39.784L25 25L0.287354 28.802Z" fill="#D80027"/>
<path d="M49.7126 21.1983C49.0922 17.1324 47.4911 13.3896 45.1601 10.2163L25 25.0004L49.7126 21.1983Z" fill="#D80027"/>
<path d="M39.784 4.83994C36.6106 2.50898 32.868 0.90791 28.802 0.287598L25 25.0002L39.784 4.83994Z" fill="#D80027"/>
<path d="M45.1603 39.7841C47.4912 36.6107 49.0923 32.8679 49.7128 28.8021L25 25L45.1603 39.7841Z" fill="#D80027"/>
<path d="M24.9999 33.6959C29.8024 33.6959 33.6955 29.8027 33.6955 25.0003C33.6955 20.1978 29.8024 16.3047 24.9999 16.3047C20.1975 16.3047 16.3043 20.1978 16.3043 25.0003C16.3043 29.8027 20.1975 33.6959 24.9999 33.6959Z" fill="#D80027"/>
<path d="M25 31.5216C28.6019 31.5216 31.5218 28.6017 31.5218 24.9998C31.5218 21.3979 28.6019 18.478 25 18.478C21.3982 18.478 18.4783 21.3979 18.4783 24.9998C18.4783 28.6017 21.3982 31.5216 25 31.5216Z" fill="#FFDA44"/>
</g>
<defs>
<clipPath id="clip0_105_2268">
<rect width="50" height="50" fill="white"/>
</clipPath>
</defs>
</svg>
