<svg width="50" height="50" viewBox="0 0 50 50" fill="none" xmlns="http://www.w3.org/2000/svg">
<g clip-path="url(#clip0_105_2700)">
<path d="M50 25C50 38.807 38.807 50 25 50C11.193 50 0 38.807 0 25C0 25.006 25 0.00273438 25 0C38.807 0 50 11.193 50 25Z" fill="#0052B4"/>
<path d="M24.9331 25H25C25 24.9775 25 24.9557 25 24.9331C24.9777 24.9555 24.9555 24.9777 24.9331 25Z" fill="#F0F0F0"/>
<path d="M25 13.0435C25 8.64453 25 5.76221 25 0H24.9958C11.1905 0.00234375 0 11.1942 0 25H13.0435V17.6552L20.3883 25H24.9332C24.9555 24.9777 24.9777 24.9555 25.0001 24.9331C25.0001 23.2488 25.0001 21.746 25.0001 20.3885L17.6551 13.0435H25Z" fill="#F0F0F0"/>
<path d="M12.6479 3.26074C8.73779 5.48721 5.48711 8.73779 3.26074 12.6479V24.9999H9.78252V9.78272V9.78252H24.9999C24.9999 7.72559 24.9999 5.76602 24.9999 3.26074H12.6479Z" fill="#D80027"/>
<path d="M25 21.9256L16.1177 13.0435H13.0435V13.0437L24.9998 24.9999H25C25 24.9999 25 22.8801 25 21.9256Z" fill="#D80027"/>
<path d="M28.2607 13.0435V24.9999C28.2607 30.8241 35.8694 32.6087 35.8694 32.6087C35.8694 32.6087 43.4781 30.8241 43.4781 24.9999V13.0435H28.2607Z" fill="#FFDA44"/>
<path d="M34.7827 17.3912C34.7827 18.5919 33.8094 21.7391 32.6087 21.7391C31.4081 21.7391 30.4348 18.5919 30.4348 17.3912C30.4348 16.1905 32.6087 15.2173 32.6087 15.2173C32.6087 15.2173 34.7827 16.1905 34.7827 17.3912Z" fill="#FF9811"/>
<path d="M40.5513 19.7589C40.9021 18.9029 41.175 17.6518 41.175 17.0289C41.175 16.0283 39.8706 15.2173 39.8706 15.2173C39.8706 15.2173 38.5662 16.0284 38.5662 17.0289C38.5662 17.6518 38.839 18.9029 39.1898 19.7589L38.4368 21.4591C38.8793 21.639 39.3631 21.739 39.8705 21.739C40.3778 21.739 40.8616 21.639 41.3042 21.4591L40.5513 19.7589Z" fill="#A2001D"/>
<path d="M34.2393 25C34.2393 25 33.1523 27.1739 33.1523 29.3479H38.5871C38.587 27.1739 37.5001 25 37.5001 25L35.8696 23.9131L34.2393 25Z" fill="#6DA544"/>
<path d="M37.5 25.0001V24.4566C37.5 23.5562 36.77 22.8262 35.8695 22.8262C34.9691 22.8262 34.239 23.5562 34.239 24.4566V25.0001H37.5Z" fill="#D80027"/>
</g>
<defs>
<clipPath id="clip0_105_2700">
<rect width="50" height="50" fill="white"/>
</clipPath>
</defs>
</svg>
