<svg width="50" height="50" viewBox="0 0 50 50" fill="none" xmlns="http://www.w3.org/2000/svg">
<g clip-path="url(#clip0_105_1407)">
<path d="M25 50C38.8071 50 50 38.8071 50 25C50 11.1929 38.8071 0 25 0C11.1929 0 0 11.1929 0 25C0 38.8071 11.1929 50 25 50Z" fill="#F0F0F0"/>
<path d="M0.861206 31.522C3.1696 40.0867 9.91345 46.8307 18.4783 49.1391V31.522H0.861206Z" fill="#D80027"/>
<path d="M18.4782 0.861328C9.91345 3.16963 3.16951 9.91357 0.861206 18.4783H18.4783V0.861328H18.4782Z" fill="#0052B4"/>
<path d="M49.1388 18.4783C46.8305 9.91357 40.0865 3.16963 31.5218 0.861328V18.4784H49.1388V18.4783Z" fill="#D80027"/>
<path d="M31.5218 49.1386C40.0865 46.8302 46.8305 40.0863 49.1389 31.5215H31.5218V49.1386Z" fill="#0052B4"/>
<path d="M31.5218 24.9998C31.5218 28.6018 28.6019 31.5216 25 31.5216C21.3981 31.5216 18.4782 28.6018 18.4782 24.9998C18.4782 21.3979 25 18.478 25 18.478C25 18.478 31.5218 21.3979 31.5218 24.9998Z" fill="#496E2D"/>
<path d="M18.4782 24.9998C18.4782 21.3979 21.3981 18.478 25 18.478C28.6019 18.478 31.5218 21.3979 31.5218 24.9998" fill="#0052B4"/>
<path d="M21.3315 21.7393V25.8153C21.3315 27.8414 22.9739 29.4838 25 29.4838C27.0261 29.4838 28.6685 27.8414 28.6685 25.8153V21.7393H21.3315Z" fill="#D80027"/>
</g>
<defs>
<clipPath id="clip0_105_1407">
<rect width="50" height="50" fill="white"/>
</clipPath>
</defs>
</svg>
