<svg width="50" height="50" viewBox="0 0 50 50" fill="none" xmlns="http://www.w3.org/2000/svg">
<g clip-path="url(#clip0_105_1178)">
<path d="M50 25C50 38.807 38.807 50 25 50C11.193 50 0 38.807 0 25C0 25.006 25 0.00273438 25 0C38.807 0 50 11.193 50 25Z" fill="#0052B4"/>
<path d="M24.9331 25H25C25 24.9775 25 24.9557 25 24.9331C24.9777 24.9555 24.9555 24.9777 24.9331 25Z" fill="#F0F0F0"/>
<path d="M25 13.0435C25 8.64453 25 5.76221 25 0H24.9958C11.1905 0.00234375 0 11.1942 0 25H13.0435V17.6552L20.3883 25H24.9332C24.9555 24.9777 24.9777 24.9555 25.0001 24.9331C25.0001 23.2488 25.0001 21.746 25.0001 20.3885L17.6551 13.0435H25Z" fill="#F0F0F0"/>
<path d="M35.8696 18.4784C38.2708 18.4784 40.2174 16.5318 40.2174 14.1306C40.2174 11.7293 38.2708 9.78271 35.8696 9.78271C33.4683 9.78271 31.5217 11.7293 31.5217 14.1306C31.5217 16.5318 33.4683 18.4784 35.8696 18.4784Z" fill="#6DA544"/>
<path d="M12.6479 3.26074C8.73779 5.48721 5.48711 8.73779 3.26074 12.6479V24.9999H9.78252V9.78272V9.78252H24.9999C24.9999 7.72559 24.9999 5.76602 24.9999 3.26074H12.6479Z" fill="#D80027"/>
<path d="M25 21.9256L16.1177 13.0435H13.0435V13.0437L24.9998 24.9999H25C25 24.9999 25 22.8801 25 21.9256Z" fill="#D80027"/>
<path d="M28.2607 13.0435H43.4781V19.5652H28.2607V13.0435Z" fill="#D80027"/>
<path d="M28.2607 29.3477V33.6955H30.5482C31.9198 35.0396 33.7973 35.8694 35.8694 35.8694C37.9416 35.8694 39.819 35.0396 41.1906 33.6955H41.3042H43.4781V29.3477H28.2607Z" fill="#FFDA44"/>
<path d="M28.2607 18.478V24.9998C28.2607 30.8239 35.8694 32.6085 35.8694 32.6085C35.8694 32.6085 43.4781 30.8239 43.4781 24.9998V18.478H28.2607Z" fill="#338AF3"/>
<path d="M35.8692 21.9619C33.9671 21.9619 33.9671 23.7011 32.0651 23.7011C30.163 23.7011 30.163 21.9619 28.261 21.9619V25.0054C30.163 25.0054 30.163 26.7445 32.0651 26.7445C33.9671 26.7445 33.9671 25.0054 35.8692 25.0054C37.7714 25.0054 37.7714 26.7445 39.6738 26.7445C41.5761 26.7445 41.576 25.0054 43.4784 25.0054V21.9619C41.5761 21.9619 41.5761 23.7011 39.6738 23.7011C37.7714 23.7011 37.7714 21.9619 35.8692 21.9619Z" fill="#F3F3F3"/>
<path d="M35.8692 15.8696C33.9671 15.8696 33.9671 17.6088 32.0651 17.6088C30.163 17.6088 30.163 15.8696 28.261 15.8696V18.9131C30.163 18.9131 30.163 20.6522 32.0651 20.6522C33.9671 20.6522 33.9671 18.9131 35.8692 18.9131C37.7714 18.9131 37.7714 20.6522 39.6738 20.6522C41.5761 20.6522 41.576 18.9131 43.4784 18.9131V15.8696C41.5761 15.8696 41.5761 17.6088 39.6738 17.6088C37.7714 17.6088 37.7714 15.8696 35.8692 15.8696Z" fill="#F3F3F3"/>
</g>
<defs>
<clipPath id="clip0_105_1178">
<rect width="50" height="50" fill="white"/>
</clipPath>
</defs>
</svg>
