<svg width="50" height="50" viewBox="0 0 50 50" fill="none" xmlns="http://www.w3.org/2000/svg">
<g clip-path="url(#clip0_105_1013)">
<path d="M1.18047 17.3911C0.414648 19.7904 -9.7639e-05 22.3464 1.72417e-08 24.9998C-9.7639e-05 27.653 0.414649 30.2091 1.18057 32.6085L25 33.6956L48.8193 32.6085C49.5851 30.2091 49.9999 27.6529 49.9999 24.9999C49.9999 22.3466 49.5852 19.7904 48.8193 17.3911L24.9999 16.3042L1.18047 17.3911Z" fill="#F0F0F0"/>
<path d="M50 24.9998C50 23.5167 49.8701 22.064 49.6224 20.6519H0.377734C0.129883 22.064 0 23.5165 0 24.9997C0 26.4829 0.12998 27.9354 0.377734 29.3476H49.6224C49.87 27.9354 50 26.4828 50 24.9998Z" fill="black"/>
<path d="M25.0001 49.9998C36.154 49.9998 45.6003 42.6948 48.8194 32.6084H1.18066C4.3999 42.6947 13.8463 49.9996 25.0001 49.9998Z" fill="#338AF3"/>
<path d="M25.0002 3.91634e-09C13.8464 3.91634e-09 4.4001 7.30498 1.18066 17.3911L48.8193 17.3912C45.6003 7.30498 36.1539 -0.000195309 25.0002 3.91634e-09Z" fill="#338AF3"/>
</g>
<defs>
<clipPath id="clip0_105_1013">
<rect width="50" height="50" fill="white"/>
</clipPath>
</defs>
</svg>
