<svg width="50" height="50" viewBox="0 0 50 50" fill="none" xmlns="http://www.w3.org/2000/svg">
<g clip-path="url(#clip0_105_1235)">
<path d="M25 0C21.942 0 19.0126 0.550098 16.3044 1.55498L15.2174 25L16.3043 48.445C19.0126 49.45 21.942 50 25 50C28.058 50 30.9874 49.45 33.6956 48.445L34.7826 25L33.6957 1.55498C30.9874 0.550098 28.058 0 25 0V0Z" fill="#FFDA44"/>
<path d="M50 25.0002C50 14.2511 43.2156 5.0875 33.6956 1.55518V48.4453C43.2156 44.9129 50 35.7493 50 25.0002Z" fill="#D80027"/>
<path d="M16.3044 48.4452V1.55518C6.78437 5.0875 0 14.2511 0 25.0002C0 35.7493 6.78437 44.9129 16.3044 48.4452Z" fill="#0052B4"/>
</g>
<defs>
<clipPath id="clip0_105_1235">
<rect width="50" height="50" fill="white"/>
</clipPath>
</defs>
</svg>
