<svg width="50" height="50" viewBox="0 0 50 50" fill="none" xmlns="http://www.w3.org/2000/svg">
<g clip-path="url(#clip0_105_2813)">
<path d="M50 25C50 23.8948 49.9274 22.8065 49.7883 21.7391H21.7389C16.6314 16.6319 7.32191 7.32305 7.3223 7.32227C-2.44077 17.0853 -2.44077 32.9144 7.3223 42.6777L21.7392 28.2609H49.7883C49.9273 27.1934 50 26.1051 50 25Z" fill="black"/>
<path d="M49.9928 25.5688C49.9917 25.6171 49.9906 25.6655 49.9893 25.7138C49.9904 25.6653 49.9916 25.6171 49.9928 25.5688Z" fill="#F0F0F0"/>
<path d="M49.9688 26.252C49.9666 26.2997 49.9632 26.3473 49.9607 26.3949C49.9632 26.3474 49.9664 26.2997 49.9688 26.252Z" fill="#F0F0F0"/>
<path d="M49.935 26.7969C49.93 26.8671 49.9251 26.9373 49.9194 27.0073C49.9251 26.9373 49.9299 26.8671 49.935 26.7969Z" fill="#F0F0F0"/>
<path d="M49.8516 22.2754C49.8607 22.359 49.8699 22.4425 49.8782 22.5263C49.8699 22.4424 49.8606 22.359 49.8516 22.2754Z" fill="#F0F0F0"/>
<path d="M49.9604 23.6055C49.9631 23.6531 49.9663 23.7007 49.9686 23.7484C49.9662 23.7007 49.9631 23.653 49.9604 23.6055Z" fill="#F0F0F0"/>
<path d="M49.9893 24.2866C49.9906 24.3349 49.9916 24.3833 49.9928 24.4315C49.9917 24.3831 49.9905 24.3349 49.9893 24.2866Z" fill="#F0F0F0"/>
<path d="M49.9194 22.9932C49.9251 23.0632 49.93 23.1334 49.935 23.2036C49.9299 23.1334 49.9251 23.0632 49.9194 22.9932Z" fill="#F0F0F0"/>
<path d="M49.7882 21.739C49.7995 21.8247 49.8094 21.9108 49.8197 21.9966C48.3359 9.60584 37.7904 0 24.9999 0C18.0962 0 11.8461 2.79834 7.32202 7.32264L21.7384 21.7391H49.7882V21.739Z" fill="#D80027"/>
<path d="M49.7882 28.261H21.7384L7.32202 42.6775C11.8461 47.2017 18.0962 50.0002 24.9999 50.0002C37.7904 50.0002 48.336 40.3943 49.8197 28.0034C49.8094 28.0893 49.7993 28.1754 49.7882 28.261Z" fill="#6DA544"/>
<path d="M49.8782 27.4736C49.8699 27.5574 49.8607 27.6409 49.8516 27.7245C49.8607 27.6409 49.87 27.5575 49.8782 27.4736Z" fill="#F0F0F0"/>
<path d="M49.9351 23.2031C49.9445 23.3368 49.9531 23.4708 49.9605 23.6051C49.953 23.4708 49.9445 23.3368 49.9351 23.2031Z" fill="black"/>
<path d="M49.8198 21.9966C49.8311 22.0893 49.8417 22.1821 49.8517 22.2751C49.8415 22.1821 49.8309 22.0894 49.8198 21.9966Z" fill="black"/>
<path d="M49.8782 22.5264C49.8934 22.6815 49.9072 22.8371 49.9196 22.9933C49.9073 22.8371 49.8935 22.6814 49.8782 22.5264Z" fill="black"/>
<path d="M49.9998 25C49.9998 25.1901 49.9969 25.3795 49.9927 25.5685C49.9969 25.3794 49.9998 25.19 49.9998 25Z" fill="black"/>
<path d="M49.9604 26.3945C49.953 26.5288 49.9444 26.6628 49.9351 26.7965C49.9444 26.6628 49.9529 26.5288 49.9604 26.3945Z" fill="black"/>
<path d="M49.9196 27.0073C49.9072 27.1633 49.8934 27.3189 49.8782 27.474C49.8935 27.3189 49.9073 27.1633 49.9196 27.0073Z" fill="black"/>
<path d="M49.8517 27.7246C49.8417 27.8176 49.8311 27.9104 49.8198 28.0031C49.8309 27.9104 49.8415 27.8176 49.8517 27.7246Z" fill="black"/>
<path d="M49.9927 24.4316C49.9969 24.6207 49.9998 24.8102 49.9998 25.0001C49.9998 24.8102 49.9969 24.6207 49.9927 24.4316Z" fill="black"/>
<path d="M49.9688 23.748C49.9775 23.927 49.9842 24.1065 49.9893 24.2864C49.9842 24.1064 49.9776 23.927 49.9688 23.748Z" fill="black"/>
<path d="M49.9893 25.7134C49.9842 25.8933 49.9775 26.0729 49.9688 26.2518C49.9777 26.0728 49.9843 25.8933 49.9893 25.7134Z" fill="black"/>
<path d="M49.976 23.9042H20.8203L5.84409 8.93018C5.36001 9.44072 4.8353 10.1536 4.51079 10.6613L18.8329 24.991L4.49878 39.3254C4.78257 39.8303 5.40083 40.5776 5.83491 41.0638L20.8206 26.0781H49.9796C49.9951 25.7175 50 25.3554 50 24.9912C49.9999 24.5031 49.9864 24.1432 49.976 23.9042Z" fill="#FFDA44"/>
<path d="M6.07289 30.3293V28.2352C8.16254 28.2352 9.86244 26.5351 9.86244 24.4457C9.86244 22.9673 8.65961 21.7645 7.18129 21.7645C6.17416 21.7645 5.35473 22.5839 5.35473 23.5912C5.35473 24.2352 5.87866 24.7593 6.5228 24.7593C6.88686 24.7593 7.18305 24.4629 7.18305 24.0988H9.27699C9.27699 25.6177 8.04145 26.8532 6.52289 26.8532C4.72417 26.8533 3.26099 25.3898 3.26099 23.5914C3.26099 21.4296 5.01977 19.6709 7.18139 19.6709C9.81439 19.6709 11.9566 21.8131 11.9566 24.446C11.9565 27.6898 9.31713 30.3293 6.07289 30.3293Z" fill="#FFDA44"/>
</g>
<defs>
<clipPath id="clip0_105_2813">
<rect width="50" height="50" fill="white"/>
</clipPath>
</defs>
</svg>
