<svg width="50" height="50" viewBox="0 0 50 50" fill="none" xmlns="http://www.w3.org/2000/svg">
<g clip-path="url(#clip0_105_2544)">
<path d="M25 50C38.8071 50 50 38.8071 50 25C50 11.1929 38.8071 0 25 0C11.1929 0 0 11.1929 0 25C0 38.8071 11.1929 50 25 50Z" fill="#F0F0F0"/>
<path d="M48.4449 16.3042H1.55488C0.550098 19.0126 0 21.9418 0 24.9998C0 28.0578 0.550098 30.9872 1.55488 33.6954H48.445C49.45 30.9872 50 28.0578 50 24.9998C50 21.9418 49.45 19.0126 48.4449 16.3042Z" fill="#A2001D"/>
<path d="M25.0723 49.9999C33.635 49.9999 41.1912 45.694 45.6969 39.1304H4.44775C8.95342 45.694 16.5095 49.9999 25.0723 49.9999Z" fill="#6DA544"/>
<path d="M25.0723 0C33.635 0 41.1912 4.30586 45.6969 10.8695H4.44775C8.95342 4.30586 16.5095 0 25.0723 0Z" fill="#6DA544"/>
<path d="M25.0001 16.3042L27.1584 22.9468H34.1433L28.4925 27.0526L30.651 33.6954L25.0001 29.59L19.3492 33.6954L21.5078 27.0526L15.8569 22.9468H22.8418L25.0001 16.3042Z" fill="#FFDA44"/>
</g>
<defs>
<clipPath id="clip0_105_2544">
<rect width="50" height="50" fill="white"/>
</clipPath>
</defs>
</svg>
