<svg width="50" height="50" viewBox="0 0 50 50" fill="none" xmlns="http://www.w3.org/2000/svg">
<g clip-path="url(#clip0_105_2445)">
<path d="M42.6784 42.6782C52.0545 33.3021 52.4247 18.3329 43.7929 8.5127L25 24.9997L8.51294 43.7927C18.3331 52.4244 33.3022 52.0542 42.6784 42.6782Z" fill="#496E2D"/>
<path d="M7.32162 7.32167C16.6977 -2.05439 31.6669 -2.4246 41.4871 6.20712L24.9999 25.0002L6.20717 41.4871C-2.42465 31.6669 -2.05434 16.6977 7.32162 7.32167Z" fill="#0052B4"/>
<path d="M41.4869 6.20703L6.20703 41.487C6.56367 41.8928 6.93398 42.2908 7.32158 42.6782C7.70908 43.0658 8.10722 43.4361 8.51308 43.7929L43.7928 8.51289C43.4362 8.10703 43.0658 7.70898 42.6782 7.32138C42.2909 6.93408 41.8927 6.56367 41.4869 6.20703Z" fill="#FFDA44"/>
<path d="M10.5334 8.69482L11.0731 10.3557H12.8193L11.4066 11.3819L11.9462 13.0428L10.5334 12.0163L9.1206 13.0428L9.66035 11.3819L8.24756 10.3557H9.99384L10.5334 8.69482Z" fill="#F0F0F0"/>
<path d="M19.4533 8.69482L19.9931 10.3557H21.7392L20.3265 11.3819L20.8661 13.0428L19.4533 12.0163L18.0405 13.0428L18.5803 11.3819L17.1675 10.3557H18.9137L19.4533 8.69482Z" fill="#F0F0F0"/>
<path d="M10.5334 17.3906L11.0731 19.0515H12.8193L11.4066 20.0778L11.9462 21.7387L10.5334 20.7122L9.1206 21.7387L9.66035 20.0778L8.24756 19.0515H9.99384L10.5334 17.3906Z" fill="#F0F0F0"/>
<path d="M19.4533 17.3906L19.9931 19.0515H21.7392L20.3265 20.0778L20.8661 21.7387L19.4533 20.7122L18.0405 21.7387L18.5803 20.0778L17.1675 19.0515H18.9137L19.4533 17.3906Z" fill="#F0F0F0"/>
<path d="M14.9935 13.043L15.5332 14.7038H17.2793L15.8666 15.7302L16.4062 17.391L14.9935 16.3645L13.5807 17.391L14.1203 15.7302L12.7075 14.7038H14.4538L14.9935 13.043Z" fill="#F0F0F0"/>
</g>
<defs>
<clipPath id="clip0_105_2445">
<rect width="50" height="50" fill="white"/>
</clipPath>
</defs>
</svg>
