<svg width="50" height="50" viewBox="0 0 50 50" fill="none" xmlns="http://www.w3.org/2000/svg">
<g clip-path="url(#clip0_105_2422)">
<path d="M22.8261 27.1739C22.8261 27.1739 7.33691 7.31885 7.32227 7.32236C11.8463 2.79824 18.0964 0 25 0C38.807 0 50 11.193 50 25L22.8261 27.1739Z" fill="#D80027"/>
<path d="M22.8261 25C22.8261 25 7.33691 42.6812 7.32227 42.6776C11.8463 47.2018 18.0964 50 25 50C38.807 50 50 38.807 50 25H22.8261Z" fill="#0052B4"/>
<path d="M7.32231 7.32227C-2.44077 17.0854 -2.44077 32.9145 7.32231 42.6777C11.3568 38.6433 15.237 34.7631 25 25L7.32231 7.32227Z" fill="#F0F0F0"/>
<path d="M2.74036 25C2.72668 25.1795 2.71741 25.3604 2.71741 25.5434C2.71741 29.4453 5.88069 32.6086 9.78264 32.6086C13.6846 32.6086 16.8479 29.4453 16.8479 25.5434C16.8479 25.3604 16.8386 25.1794 16.8249 25H2.74036Z" fill="#FFDA44"/>
<path d="M9.78269 21.739C10.9833 21.739 11.9566 20.7657 11.9566 19.565C11.9566 18.3644 10.9833 17.3911 9.78269 17.3911C8.58206 17.3911 7.60876 18.3644 7.60876 19.565C7.60876 20.7657 8.58206 21.739 9.78269 21.739Z" fill="#FFDA44"/>
<path d="M4.89136 19.022V26.0872C4.89136 29.8313 9.78267 30.9785 9.78267 30.9785C9.78267 30.9785 14.674 29.8313 14.674 26.0872V19.022H4.89136Z" fill="#D80027"/>
<path d="M9.78501 28.7033C8.87759 28.3768 7.06519 27.5422 7.06519 26.0871V21.1958H12.5V26.0871C12.5 27.547 10.6878 28.3795 9.78501 28.7033Z" fill="#338AF3"/>
<path d="M10.8695 23.9132V22.8262L9.78257 22.2827L8.69556 22.8262V23.9132L8.1521 24.4566V26.6306H11.413V24.4566L10.8695 23.9132Z" fill="#F3F3F3"/>
</g>
<defs>
<clipPath id="clip0_105_2422">
<rect width="50" height="50" fill="white"/>
</clipPath>
</defs>
</svg>
