<svg width="50" height="50" viewBox="0 0 50 50" fill="none" xmlns="http://www.w3.org/2000/svg">
<g clip-path="url(#clip0_105_1689)">
<path d="M25 50C38.8071 50 50 38.8071 50 25C50 11.1929 38.8071 0 25 0C11.1929 0 0 11.1929 0 25C0 38.8071 11.1929 50 25 50Z" fill="#F0F0F0"/>
<path d="M25 0C15.0885 0 6.52446 5.76807 2.48071 14.1305H47.5193C43.4756 5.76807 34.9115 0 25 0Z" fill="#FF9811"/>
<path d="M25 50.0001C34.9115 50.0001 43.4756 44.232 47.5194 35.8696H2.48071C6.52446 44.232 15.0885 50.0001 25 50.0001Z" fill="#6DA544"/>
<path d="M25 33.6954C29.8025 33.6954 33.6957 29.8023 33.6957 24.9998C33.6957 20.1974 29.8025 16.3042 25 16.3042C20.1976 16.3042 16.3044 20.1974 16.3044 24.9998C16.3044 29.8023 20.1976 33.6954 25 33.6954Z" fill="#0052B4"/>
<path d="M25 30.435C28.0015 30.435 30.4347 28.0017 30.4347 25.0002C30.4347 21.9987 28.0015 19.5654 25 19.5654C21.9984 19.5654 19.5652 21.9987 19.5652 25.0002C19.5652 28.0017 21.9984 30.435 25 30.435Z" fill="#F0F0F0"/>
<path d="M25 18.2935L26.6767 22.096L30.808 21.6467L28.3533 24.9999L30.808 28.3531L26.6767 27.9038L25 31.7063L23.3234 27.9038L19.1921 28.353L21.6468 24.9999L19.1921 21.6467L23.3234 22.096L25 18.2935Z" fill="#0052B4"/>
</g>
<defs>
<clipPath id="clip0_105_1689">
<rect width="50" height="50" fill="white"/>
</clipPath>
</defs>
</svg>
