<svg width="50" height="50" viewBox="0 0 50 50" fill="none" xmlns="http://www.w3.org/2000/svg">
<g clip-path="url(#clip0_105_1669)">
<path d="M25 50C38.8071 50 50 38.8071 50 25C50 11.1929 38.8071 0 25 0C11.1929 0 0 11.1929 0 25C0 38.8071 11.1929 50 25 50Z" fill="#D80027"/>
<path d="M27.581 18.9129C27.0128 21.2761 26.0034 20.8254 25.508 22.8864C22.5897 22.1847 20.7924 19.2502 21.4941 16.3317C22.1955 13.4134 25.1303 11.6162 28.0487 12.3178C27.0578 16.4396 28.0893 16.7994 27.581 18.9129Z" fill="#F0F0F0"/>
<path d="M20.0086 20.6643C22.0805 21.9348 21.3399 22.7558 23.1467 23.8639C21.5776 26.4226 18.2314 27.2248 15.6726 25.6558C13.1139 24.0867 12.3115 20.7403 13.8806 18.1816C17.4945 20.3977 18.1551 19.5278 20.0086 20.6643Z" fill="#F0F0F0"/>
<path d="M19.3338 28.4075C21.1826 26.8296 21.7342 27.7876 23.3464 26.4116C25.2952 28.6945 25.0241 32.125 22.7413 34.0737C20.4583 36.0225 17.0278 35.7511 15.0793 33.4684C18.3034 30.7161 17.6802 29.8187 19.3338 28.4075Z" fill="#F0F0F0"/>
<path d="M26.4898 31.4417C25.5601 29.1959 26.6417 28.967 25.8313 27.0087C28.6046 25.861 31.7835 27.1787 32.9314 29.9521C34.0792 32.7254 32.7612 35.9042 29.9878 37.0521C28.367 33.1352 27.3212 33.4505 26.4898 31.4417Z" fill="#F0F0F0"/>
<path d="M31.5869 25.574C29.1638 25.7641 29.2801 24.6645 27.1673 24.8303C26.9326 21.8382 29.1684 19.2219 32.1607 18.9871C35.1528 18.7528 37.7691 20.9883 38.0036 23.9807C33.7774 24.3121 33.754 25.4042 31.5869 25.574Z" fill="#F0F0F0"/>
</g>
<defs>
<clipPath id="clip0_105_1669">
<rect width="50" height="50" fill="white"/>
</clipPath>
</defs>
</svg>
