<svg width="50" height="50" viewBox="0 0 50 50" fill="none" xmlns="http://www.w3.org/2000/svg">
<g clip-path="url(#clip0_105_1624)">
<path d="M25 0C22.7435 0 20.5576 0.300781 18.4782 0.86123L16.3044 25L18.4783 49.1388C20.5576 49.6992 22.7435 50 25 50C38.807 50 50 38.807 50 25C50 11.193 38.807 0 25 0Z" fill="#FFDA44"/>
<path d="M16.3044 25L18.4783 49.1388C20.5576 49.6992 22.7435 50 25 50C38.807 50 50 38.807 50 25H16.3044Z" fill="#6DA544"/>
<path d="M0 25.0003C0 34.4764 5.27246 42.7205 13.0435 46.9605V3.04004C5.27246 7.28008 0 15.5242 0 25.0003Z" fill="#D80027"/>
<path d="M0 25.0001C0 36.5508 7.83408 46.2701 18.4782 49.1389V0.861328C7.83408 3.73008 0 13.4494 0 25.0001Z" fill="#D80027"/>
<path d="M9.44686 18.478L11.0655 23.4601H16.3044L12.0663 26.5394L13.6849 31.5216L9.44686 28.4424L5.20868 31.5216L6.82762 26.5394L2.58954 23.4601H7.82811L9.44686 18.478Z" fill="black"/>
</g>
<defs>
<clipPath id="clip0_105_1624">
<rect width="50" height="50" fill="white"/>
</clipPath>
</defs>
</svg>
