<svg width="50" height="50" viewBox="0 0 50 50" fill="none" xmlns="http://www.w3.org/2000/svg">
<g clip-path="url(#clip0_105_1747)">
<path d="M25 50C38.8071 50 50 38.8071 50 25C50 11.1929 38.8071 0 25 0C11.1929 0 0 11.1929 0 25C0 38.8071 11.1929 50 25 50Z" fill="#F0F0F0"/>
<path d="M15.2174 16.3044H48.4449C44.9127 6.78437 35.749 0 25 0C18.0963 0 11.8469 2.79873 7.32312 7.32314L15.2174 16.3044Z" fill="black"/>
<path d="M15.2174 33.6958H48.4449C44.9127 43.2158 35.749 50.0002 25 50.0002C18.0963 50.0002 11.8469 47.2015 7.32312 42.677L15.2174 33.6958Z" fill="#6DA544"/>
<path d="M7.32225 7.32227C-2.44083 17.0854 -2.44083 32.9145 7.32225 42.6777C11.3567 38.6433 15.2369 34.7631 25 25L7.32225 7.32227Z" fill="#D80027"/>
<path d="M9.92235 19.5654L11.2943 22.4345L14.3929 21.7184L13.0052 24.5798L15.4969 26.5558L12.3946 27.2549L12.4032 30.435L9.92235 28.4454L7.44139 30.435L7.45009 27.2549L4.34784 26.5558L6.83944 24.5798L5.45194 21.7184L8.55028 22.4345L9.92235 19.5654Z" fill="#F0F0F0"/>
</g>
<defs>
<clipPath id="clip0_105_1747">
<rect width="50" height="50" fill="white"/>
</clipPath>
</defs>
</svg>
