<svg width="50" height="50" viewBox="0 0 50 50" fill="none" xmlns="http://www.w3.org/2000/svg">
<g clip-path="url(#clip0_105_1197)">
<path d="M25 50C38.8071 50 50 38.8071 50 25C50 11.1929 38.8071 0 25 0C11.1929 0 0 11.1929 0 25C0 38.8071 11.1929 50 25 50Z" fill="#F0F0F0"/>
<path d="M46.9603 13.0435C43.7299 7.12266 38.1749 2.65303 31.5218 0.859863L30.4349 13.0435H46.9603Z" fill="#0052B4"/>
<path d="M3.03979 13.0435H19.5652L18.4783 0.859863C11.8252 2.65303 6.27036 7.12275 3.03979 13.0435Z" fill="#0052B4"/>
<path d="M30.4348 25V36.9565H46.9602C48.8982 33.4047 50 29.3311 50 25H30.4348Z" fill="#6DA544"/>
<path d="M19.5652 25H0C0 29.3311 1.10186 33.4047 3.03975 36.9565H19.5651V25H19.5652Z" fill="#6DA544"/>
<path d="M3.03979 36.9565C6.27036 42.8773 11.8252 47.347 18.4783 49.1401L19.5652 38.485L3.03979 36.9565Z" fill="#FFDA44"/>
<path d="M31.5218 49.1401C38.1749 47.347 43.7299 42.8773 46.9603 36.9565L30.4349 38.4848L31.5218 49.1401Z" fill="#FFDA44"/>
<path d="M30.4348 38.4848L46.9603 36.9565H30.4348V38.4848Z" fill="#FFDA44"/>
<path d="M19.5653 36.9565H3.03979L19.5653 38.4848V36.9565Z" fill="#FFDA44"/>
<path d="M25 0C22.7435 0 20.5578 0.300781 18.4783 0.86123V49.1389C20.5578 49.6992 22.7435 50 25 50C27.2566 50 29.4423 49.6992 31.5218 49.1388V0.86123C29.4423 0.300781 27.2566 0 25 0V0Z" fill="#D80027"/>
<path d="M13.4471 5.43457L14.1215 7.51045H16.3044L14.5386 8.79346L15.2131 10.8693L13.4471 9.58643L11.6812 10.8693L12.3559 8.79346L10.5901 7.51045H12.7728L13.4471 5.43457Z" fill="#FFDA44"/>
</g>
<defs>
<clipPath id="clip0_105_1197">
<rect width="50" height="50" fill="white"/>
</clipPath>
</defs>
</svg>
