<svg width="50" height="50" viewBox="0 0 50 50" fill="none" xmlns="http://www.w3.org/2000/svg">
<g clip-path="url(#clip0_105_1298)">
<path d="M25 50C38.8071 50 50 38.8071 50 25C50 11.1929 38.8071 0 25 0C11.1929 0 0 11.1929 0 25C0 38.8071 11.1929 50 25 50Z" fill="#FCFCFC"/>
<path d="M33.7047 21.1753C33.7047 15.8878 29.4184 11.6016 24.131 11.6016C20.2292 11.6016 16.875 13.9365 15.3836 17.2846L14.2029 21.5653L15.2898 22.6522L13.1158 27.0001L15.2898 28.087L14.2029 29.1739V30.2608L15.2898 31.3478V33.5217L16.3767 34.6086L19.6375 33.5217C19.6375 33.5217 19.6375 34.6086 20.7244 35.6956C21.8114 36.7825 22.8985 38.9565 22.8985 38.9565C22.8985 38.9565 26.1593 40.0435 28.3332 36.7826C30.5072 33.5218 32.6811 32.4348 32.6811 32.4348L30.5858 28.2439C32.502 26.4937 33.7047 23.9754 33.7047 21.1753Z" fill="black"/>
<path d="M34.4849 24.8359C38.9018 24.0909 39.6376 15.4419 39.6376 15.4419H33.5506C36.7028 23.0506 33.4035 23.5624 33.4035 23.5624C32.9565 23.2299 16.9606 15.6521 16.4536 15.4595C16.3314 15.623 15.8817 16.0523 15.335 17.3893C14.7882 18.7262 14.6541 19.9289 14.6541 19.9289C14.9101 20.0958 31.8977 26.0275 32.3467 26.077C33.2378 26.6596 34.3343 28.4019 33.7215 33.5677L39.5803 31.9165C39.5805 31.9165 37.5921 26.6271 34.4849 24.8359Z" fill="#ACABB1"/>
</g>
<defs>
<clipPath id="clip0_105_1298">
<rect width="50" height="50" fill="white"/>
</clipPath>
</defs>
</svg>
