<svg width="50" height="50" viewBox="0 0 50 50" fill="none" xmlns="http://www.w3.org/2000/svg">
<g clip-path="url(#clip0_105_2108)">
<path d="M50 25C50 38.807 38.807 50 25 50C11.193 50 0 38.807 0 25C0 25.006 25 0.00273438 25 0C38.807 0 50 11.193 50 25Z" fill="#FFDA44"/>
<path d="M24.9998 11.9565V20.3885L16.3042 11.9565H24.9998Z" fill="#0052B4"/>
<path d="M13.0435 24.9999H20.3883L13.0435 15.2173L11.9565 22.826L13.0435 24.9999Z" fill="#0052B4"/>
<path d="M24.9331 25H25C25 24.9775 25 24.9557 25 24.9331C24.9777 24.9555 24.9555 24.9777 24.9331 25Z" fill="#F0F0F0"/>
<path d="M25 13.0435C25 8.64453 25 5.76221 25 0H24.9958C11.1905 0.00234375 0 11.1942 0 25H13.0435V17.6552L20.3883 25H24.9332C24.9555 24.9777 24.9777 24.9555 25.0001 24.9331C25.0001 23.2488 25.0001 21.746 25.0001 20.3885L17.6551 13.0435H25Z" fill="#F0F0F0"/>
<path d="M25 21.9256L16.1177 13.0435H13.0435V13.0437L24.9998 24.9999H25C25 24.9999 25 22.8801 25 21.9256Z" fill="#D80027"/>
<path d="M12.6479 3.26074C11.6841 3.80957 10.7607 4.42119 9.88262 5.08887H10.9084L8.19727 7.05898L9.23262 10.2462L6.52148 8.27646L6.23301 8.48613C5.10732 9.76445 4.10928 11.1578 3.26074 12.6479V24.9999H9.78252V9.78272V9.78252H24.9999C24.9999 7.72559 24.9999 5.76602 24.9999 3.26074H12.6479Z" fill="#D80027"/>
<path d="M10.6796 4.50684C10.41 4.69561 10.1441 4.88965 9.88232 5.08877L8.19727 7.05889L6.52148 8.27627L6.23057 8.4876C5.6167 9.18486 5.04102 9.9165 4.50684 10.6795C5.11572 10.975 5.79922 11.1411 6.52148 11.1411C9.07285 11.1411 11.141 9.07295 11.141 6.52158C11.1412 5.79912 10.9752 5.11582 10.6796 4.50684Z" fill="#0052B4"/>
<path d="M6.23047 8.4877L6.52139 8.27637L9.23252 10.2462L8.19707 7.05898L10.908 5.08887H9.88203C8.55449 6.09854 7.33115 7.2376 6.23047 8.4877Z" fill="#FFDA44"/>
<path d="M17.2796 4.34766L17.8192 6.0083H19.5653L18.1527 7.03477L18.6921 8.69541L17.2796 7.66904L15.867 8.69541L16.4062 7.03477L14.9937 6.0083H16.7398L17.2796 4.34766Z" fill="#FFDA44"/>
<path d="M6.52168 15.2173L7.06133 16.8779H8.80742L7.39492 17.9045L7.93428 19.5651L6.52168 18.5387L5.10898 19.5651L5.64834 17.9045L4.23584 16.8779H5.98193L6.52168 15.2173Z" fill="#FFDA44"/>
</g>
<defs>
<clipPath id="clip0_105_2108">
<rect width="50" height="50" fill="white"/>
</clipPath>
</defs>
</svg>
