<svg width="50" height="50" viewBox="0 0 50 50" fill="none" xmlns="http://www.w3.org/2000/svg">
<g clip-path="url(#clip0_105_2131)">
<path d="M25 50C38.8071 50 50 38.8071 50 25C50 11.1929 38.8071 0 25 0C11.1929 0 0 11.1929 0 25C0 38.8071 11.1929 50 25 50Z" fill="#F0F0F0"/>
<path d="M25.0001 0C17.4229 0 10.6335 3.37148 6.04883 8.69561H43.9513C39.3667 3.37148 32.5773 0 25.0001 0Z" fill="#0052B4"/>
<path d="M43.9514 41.3042H6.04883C10.6335 46.6283 17.4229 49.9998 25.0001 49.9998C32.5773 49.9998 39.3667 46.6283 43.9514 41.3042Z" fill="#0052B4"/>
<path d="M46.3307 11.9565H3.66934C1.34229 15.7539 0 20.22 0 25C0 29.78 1.34229 34.2462 3.66934 38.0435H46.3307C48.6577 34.2462 50 29.78 50 25C50 20.22 48.6577 15.7539 46.3307 11.9565Z" fill="#D80027"/>
<path d="M15.3803 34.6194C20.693 34.6194 24.9998 30.3126 24.9998 24.9999C24.9998 19.6872 20.693 15.3804 15.3803 15.3804C10.0676 15.3804 5.76074 19.6872 5.76074 24.9999C5.76074 30.3126 10.0676 34.6194 15.3803 34.6194Z" fill="#F0F0F0"/>
<path d="M15.3806 15.3804L17.5389 22.023H24.5348L18.8729 26.1287L21.0481 32.7912L15.3806 28.666L9.72158 32.7835L11.8882 26.1287L6.23145 22.023H13.2222L15.3806 15.3804Z" fill="#D80027"/>
</g>
<defs>
<clipPath id="clip0_105_2131">
<rect width="50" height="50" fill="white"/>
</clipPath>
</defs>
</svg>
