<svg width="50" height="50" viewBox="0 0 50 50" fill="none" xmlns="http://www.w3.org/2000/svg">
<g clip-path="url(#clip0_105_1961)">
<path d="M25 50C38.8071 50 50 38.8071 50 25C50 11.1929 38.8071 0 25 0C11.1929 0 0 11.1929 0 25C0 38.8071 11.1929 50 25 50Z" fill="#F0F0F0"/>
<path d="M50.0001 24.9998C50.0001 15.0883 44.232 6.52422 35.8696 2.48047V47.519C44.232 43.4754 50.0001 34.9113 50.0001 24.9998Z" fill="#D80027"/>
<path d="M0 24.9998C0 34.9113 5.76807 43.4754 14.1305 47.5191V2.48047C5.76807 6.52422 0 15.0883 0 24.9998Z" fill="#6DA544"/>
<path d="M18.478 24.9996C18.478 28.6015 21.3979 31.5214 24.9998 31.5214C28.6017 31.5214 31.5216 28.6015 31.5216 24.9996V22.8257H18.478V24.9996Z" fill="#6DA544"/>
<path d="M33.6956 20.652H27.1738C27.1738 19.4514 26.2005 18.478 24.9999 18.478C23.7993 18.478 22.826 19.4514 22.826 20.652H16.3042C16.3042 21.8526 17.35 22.8259 18.5505 22.8259H18.4781C18.4781 24.0266 19.4514 24.9998 20.6521 24.9998C20.6521 26.2005 21.6253 27.1737 22.826 27.1737H27.1738C28.3745 27.1737 29.3478 26.2005 29.3478 24.9998C30.5484 24.9998 31.5217 24.0266 31.5217 22.8259H31.4492C32.6499 22.8259 33.6956 21.8526 33.6956 20.652Z" fill="#FF9811"/>
</g>
<defs>
<clipPath id="clip0_105_1961">
<rect width="50" height="50" fill="white"/>
</clipPath>
</defs>
</svg>
