<svg width="50" height="50" viewBox="0 0 50 50" fill="none" xmlns="http://www.w3.org/2000/svg">
<g clip-path="url(#clip0_105_2667)">
<path d="M25 50C38.8071 50 50 38.8071 50 25C50 11.1929 38.8071 0 25 0C11.1929 0 0 11.1929 0 25C0 38.8071 11.1929 50 25 50Z" fill="#D80027"/>
<path d="M23.9763 20.4282L26.0276 23.2549L29.3496 22.1777L27.2951 25.002L29.346 27.8285L26.0252 26.7473L23.9709 29.5715L23.973 26.0792L20.6521 24.9979L23.9742 23.9208L23.9763 20.4282Z" fill="#F0F0F0"/>
<path d="M18.3783 32.0651C14.4764 32.0651 11.3131 28.9019 11.3131 24.9999C11.3131 21.0979 14.4764 17.9347 18.3783 17.9347C19.5949 17.9347 20.7396 18.2424 21.7391 18.7839C20.1712 17.2505 18.027 16.3042 15.6609 16.3042C10.8584 16.3042 6.96533 20.1974 6.96533 24.9998C6.96533 29.8022 10.8585 33.6954 15.6609 33.6954C18.0271 33.6954 20.1713 32.749 21.7391 31.2157C20.7396 31.7574 19.5949 32.0651 18.3783 32.0651Z" fill="#F0F0F0"/>
</g>
<defs>
<clipPath id="clip0_105_2667">
<rect width="50" height="50" fill="white"/>
</clipPath>
</defs>
</svg>
