<svg width="50" height="50" viewBox="0 0 50 50" fill="none" xmlns="http://www.w3.org/2000/svg">
<g clip-path="url(#clip0_105_2324)">
<path d="M50 25.0001C50 38.8071 38.807 50.0001 25 50.0001C11.193 50.0001 0 38.8071 0 25.0001C1.08691 25.0001 25 21.7393 25 21.7393L50 25.0001Z" fill="#338AF3"/>
<path d="M0 25C0 11.193 11.193 0 25 0C38.807 0 50 11.193 50 25" fill="#F0F0F0"/>
<path d="M34.9238 17.2505L25.0004 27.174L15.077 17.2505C13.7937 19.1555 13.0439 21.4483 13.0439 23.9131V27.1739C13.0439 32.4099 16.4272 36.8701 21.1223 38.4845C20.4956 39.7126 20.6013 41.2453 21.5195 42.3913C22.7391 41.4139 24.0017 40.4021 25.0728 39.5438C26.1438 40.4021 27.4065 41.414 28.626 42.3913C29.555 41.2319 29.653 39.6763 29.0017 38.4409C33.6325 36.7915 36.9568 32.364 36.9568 27.1739V23.9132C36.9569 21.4483 36.2071 19.1556 34.9238 17.2505Z" fill="#6DA544"/>
<path d="M25.0003 35.8693C20.2055 35.8693 16.3047 31.9685 16.3047 27.1737V23.9129C16.3047 19.1181 20.2056 15.2173 25.0003 15.2173C29.795 15.2173 33.6959 19.1182 33.6959 23.9129V27.1737C33.6959 31.9685 29.7951 35.8693 25.0003 35.8693Z" fill="#FFDA44"/>
<path d="M30.435 27.1741V23.9133C30.435 20.9165 27.9969 18.4785 25.0002 18.4785C22.0035 18.4785 19.5654 20.9166 19.5654 23.9133V27.1741L25.0002 28.261L30.435 27.1741Z" fill="#338AF3"/>
<path d="M19.5654 27.1738C19.5654 30.1706 22.0035 32.6086 25.0002 32.6086C27.9969 32.6086 30.435 30.1705 30.435 27.1738H19.5654Z" fill="#6DA544"/>
<path d="M31.522 15.2176C31.522 13.4167 30.062 11.9567 28.2611 11.9567C27.4257 11.9567 26.6643 12.2712 26.0872 12.7877V10.8697H27.1741V8.6958H26.0872V7.60889H23.9133V8.6958H22.8264V10.8697H23.9133V12.7877C23.3362 12.2712 22.5747 11.9567 21.7394 11.9567C19.9385 11.9567 18.4785 13.4167 18.4785 15.2176C18.4785 16.1831 18.8985 17.0503 19.5654 17.6475V19.5654H30.435V17.6475C31.102 17.0503 31.522 16.1831 31.522 15.2176Z" fill="#FFDA44"/>
</g>
<defs>
<clipPath id="clip0_105_2324">
<rect width="50" height="50" fill="white"/>
</clipPath>
</defs>
</svg>
