<svg width="50" height="50" viewBox="0 0 50 50" fill="none" xmlns="http://www.w3.org/2000/svg">
<g clip-path="url(#clip0_105_1613)">
<path d="M25 50C38.8071 50 50 38.8071 50 25C50 11.1929 38.8071 0 25 0C11.1929 0 0 11.1929 0 25C0 38.8071 11.1929 50 25 50Z" fill="#F0F0F0"/>
<path d="M50.0001 24.9998C50.0001 15.0883 44.232 6.52422 35.8696 2.48047V47.519C44.232 43.4754 50.0001 34.9112 50.0001 24.9998Z" fill="#338AF3"/>
<path d="M0 24.9998C0 34.9112 5.76807 43.4754 14.1305 47.5191V2.48047C5.76807 6.52422 0 15.0883 0 24.9998Z" fill="#338AF3"/>
<path d="M31.5329 29.2271L27.3058 25L31.3295 20.9761L31.1472 18.8509L29.9952 17.6987L24.9999 22.694L20.0046 17.6987L18.8526 18.8509L18.6703 20.9761L22.694 25L18.4668 29.2271L20.7727 31.5328L24.9999 27.3058L29.2271 31.5328L31.5329 29.2271Z" fill="#ACABB1"/>
<path d="M31.1488 18.8511L28.843 21.1568C29.8265 22.1403 30.4349 23.499 30.4349 24.9998C30.4349 28.0014 28.0016 30.4346 25.0001 30.4346C21.9987 30.4346 19.5653 28.0014 19.5653 24.9998C19.5653 23.499 20.1737 22.1403 21.1572 21.1568L18.8514 18.8511C17.2777 20.4245 16.3044 22.5984 16.3044 24.9998C16.3044 29.8023 20.1976 33.6954 25 33.6954C29.8025 33.6954 33.6957 29.8022 33.6957 24.9998C33.6957 22.5985 32.7224 20.4246 31.1488 18.8511Z" fill="#6DA544"/>
</g>
<defs>
<clipPath id="clip0_105_1613">
<rect width="50" height="50" fill="white"/>
</clipPath>
</defs>
</svg>
