<svg width="50" height="50" viewBox="0 0 50 50" fill="none" xmlns="http://www.w3.org/2000/svg">
<g clip-path="url(#clip0_105_2397)">
<path d="M25 50C38.8071 50 50 38.8071 50 25C50 11.1929 38.8071 0 25 0C11.1929 0 0 11.1929 0 25C0 38.8071 11.1929 50 25 50Z" fill="#F0F0F0"/>
<path d="M0 25.0001C0 11.193 11.193 0 25 0C38.807 0 50 11.193 50 25.0001" fill="#D80027"/>
<path d="M15.2175 13.0432C15.2175 9.40078 17.7773 6.35801 21.1957 5.61143C20.6703 5.49678 20.1253 5.43457 19.5652 5.43457C15.363 5.43457 11.9565 8.84102 11.9565 13.0433C11.9565 17.2455 15.363 20.652 19.5652 20.652C20.1251 20.652 20.6702 20.5897 21.1957 20.475C17.7773 19.7284 15.2175 16.6856 15.2175 13.0432Z" fill="#F0F0F0"/>
<path d="M25.0001 5.97803L25.5397 7.63867H27.2859L25.8731 8.66514L26.4128 10.3258L25.0001 9.29951L23.5874 10.3258L24.1271 8.66514L22.7144 7.63867H24.4604L25.0001 5.97803Z" fill="#F0F0F0"/>
<path d="M20.7645 9.23877L21.304 10.8995H23.0502L21.6375 11.9259L22.1771 13.5865L20.7645 12.5603L19.3516 13.5865L19.8913 11.9259L18.4785 10.8995H20.2247L20.7645 9.23877Z" fill="#F0F0F0"/>
<path d="M29.2359 9.23877L29.7757 10.8995H31.5218L30.109 11.9259L30.6487 13.5865L29.2359 12.5603L27.8232 13.5865L28.3629 11.9259L26.9502 10.8995H28.6963L29.2359 9.23877Z" fill="#F0F0F0"/>
<path d="M27.6056 14.1304L28.1452 15.7911H29.8913L28.4786 16.8175L29.0183 18.4781L27.6056 17.4519L26.1929 18.4781L26.7325 16.8175L25.3198 15.7911H27.0658L27.6056 14.1304Z" fill="#F0F0F0"/>
<path d="M22.3947 14.1304L22.9343 15.7911H24.6806L23.2678 16.8175L23.8075 18.4781L22.3947 17.4519L20.9819 18.4781L21.5216 16.8175L20.1089 15.7911H21.8551L22.3947 14.1304Z" fill="#F0F0F0"/>
</g>
<defs>
<clipPath id="clip0_105_2397">
<rect width="50" height="50" fill="white"/>
</clipPath>
</defs>
</svg>
