<svg width="50" height="50" viewBox="0 0 50 50" fill="none" xmlns="http://www.w3.org/2000/svg">
<g clip-path="url(#clip0_105_1001)">
<path d="M25 50C38.8071 50 50 38.8071 50 25C50 11.1929 38.8071 0 25 0C11.1929 0 0 11.1929 0 25C0 38.8071 11.1929 50 25 50Z" fill="#F0F0F0"/>
<path d="M7.32207 7.32248C1.96416 12.6804 -0.452542 19.8654 0.0702122 26.8718L26.8713 0.0707243C19.8648 -0.452127 12.68 1.96457 7.32207 7.32248Z" fill="#FFDA44"/>
<path d="M8.92676 44.1476C18.7491 52.4114 33.4326 51.9227 42.6777 42.6776C51.9229 33.4326 52.4116 18.749 44.1477 8.92676L8.92676 44.1476Z" fill="#0052B4"/>
<path d="M24.9109 23.9929L27.0653 22.8259L24.9109 21.6589C24.4079 18.3912 21.8261 15.8093 18.5584 15.3063L17.3913 13.1519L16.2243 15.3063C12.9567 15.8092 10.3749 18.3911 9.87178 21.6588L7.71729 22.8259L9.87168 23.9929C10.3747 27.2605 12.9565 29.8425 16.2242 30.3454L17.3913 32.4999L18.5583 30.3455C21.8261 29.8425 24.4079 27.2605 24.9109 23.9929ZM17.3914 27.1737C14.9901 27.1737 13.0436 25.2272 13.0436 22.8259C13.0436 20.4245 14.99 18.478 17.3914 18.478C19.7928 18.478 21.7393 20.4245 21.7393 22.8259C21.7393 25.2272 19.7927 27.1737 17.3914 27.1737Z" fill="black"/>
<path d="M17.3913 19.5654L18.3326 21.1958H20.2153L19.2739 22.8263L20.2153 24.4567H18.3326L17.3913 26.0871L16.45 24.4567H14.5674L15.5087 22.8263L14.5674 21.1958H16.45L17.3913 19.5654Z" fill="#D80027"/>
</g>
<defs>
<clipPath id="clip0_105_1001">
<rect width="50" height="50" fill="white"/>
</clipPath>
</defs>
</svg>
