<svg width="50" height="50" viewBox="0 0 50 50" fill="none" xmlns="http://www.w3.org/2000/svg">
<g clip-path="url(#clip0_105_1457)">
<path d="M0 24.9999C0 28.0579 0.550098 30.9872 1.55498 33.6955L25 34.7825L48.445 33.6956C49.45 30.9872 50 28.0579 50 24.9999C50 21.9419 49.45 19.0126 48.445 16.3043L25 15.2173L1.55498 16.3042C0.550098 19.0126 0 21.9419 0 24.9999H0Z" fill="black"/>
<path d="M25 0C14.2508 0 5.08726 6.78437 1.55493 16.3044H48.4451C44.9126 6.78437 35.7491 0 25 0Z" fill="#0052B4"/>
<path d="M48.445 33.6958H1.55493C5.08726 43.2157 14.2508 50.0002 25 50.0002C35.7491 50.0002 44.9126 43.2157 48.445 33.6958Z" fill="#F0F0F0"/>
</g>
<defs>
<clipPath id="clip0_105_1457">
<rect width="50" height="50" fill="white"/>
</clipPath>
</defs>
</svg>
