<svg width="50" height="50" viewBox="0 0 50 50" fill="none" xmlns="http://www.w3.org/2000/svg">
<g clip-path="url(#clip0_105_2607)">
<path d="M25 50C38.8071 50 50 38.8071 50 25C50 11.1929 38.8071 0 25 0C11.1929 0 0 11.1929 0 25C0 38.8071 11.1929 50 25 50Z" fill="#F0F0F0"/>
<path d="M48.445 16.3042H1.55498C0.55 19.0125 0 21.9418 0 24.9998C0 28.0578 0.55 30.9871 1.55498 33.6954H48.4451C49.45 30.9871 50 28.0578 50 24.9998C50 21.9418 49.45 19.0125 48.445 16.3042Z" fill="#0052B4"/>
<path d="M25.0001 0C17.4229 0 10.6335 3.37148 6.04883 8.69561H43.9513C39.3667 3.37148 32.5773 0 25.0001 0Z" fill="#D80027"/>
<path d="M43.9514 41.3042H6.04883C10.6335 46.6283 17.4229 49.9998 25.0001 49.9998C32.5773 49.9998 39.3667 46.6283 43.9514 41.3042Z" fill="#D80027"/>
</g>
<defs>
<clipPath id="clip0_105_2607">
<rect width="50" height="50" fill="white"/>
</clipPath>
</defs>
</svg>
