<svg width="50" height="50" viewBox="0 0 50 50" fill="none" xmlns="http://www.w3.org/2000/svg">
<g clip-path="url(#clip0_105_2139)">
<path d="M25 50C38.8071 50 50 38.8071 50 25C50 11.1929 38.8071 0 25 0C11.1929 0 0 11.1929 0 25C0 38.8071 11.1929 50 25 50Z" fill="#F0F0F0"/>
<path d="M6.04874 8.6958C5.1715 9.71465 4.37511 10.8048 3.66925 11.9566H46.3306C45.6247 10.8048 44.8284 9.71455 43.9511 8.6958H6.04874Z" fill="#D80027"/>
<path d="M6.04877 41.3048H43.9512C44.8285 40.2859 45.6248 39.1958 46.3307 38.0439H3.66937C4.37513 39.1957 5.17152 40.2859 6.04877 41.3048Z" fill="#D80027"/>
<path d="M21.8008 20.4287L23.852 23.2554L27.1739 22.1782L25.1195 25.0024L27.1705 27.829L23.8497 26.7478L21.7953 29.572L21.7974 26.0797L18.4766 24.9984L21.7986 23.9213L21.8008 20.4287Z" fill="#D80027"/>
<path d="M16.2027 32.0656C12.3007 32.0656 9.13743 28.9023 9.13743 25.0004C9.13743 21.0984 12.3007 17.9352 16.2027 17.9352C17.4193 17.9352 18.5641 18.2428 19.5635 18.7844C17.9956 17.2511 15.8514 16.3047 13.4853 16.3047C8.68274 16.3047 4.78967 20.1979 4.78967 25.0003C4.78967 29.8027 8.68284 33.6959 13.4853 33.6959C15.8514 33.6959 17.9956 32.7495 19.5635 31.2162C18.5641 31.758 17.4194 32.0656 16.2027 32.0656Z" fill="#D80027"/>
</g>
<defs>
<clipPath id="clip0_105_2139">
<rect width="50" height="50" fill="white"/>
</clipPath>
</defs>
</svg>
