<svg width="50" height="50" viewBox="0 0 50 50" fill="none" xmlns="http://www.w3.org/2000/svg">
<g clip-path="url(#clip0_105_1123)">
<path d="M0 25C0 11.193 11.193 0 25 0C38.807 0 50 11.193 50 25C48.9131 25 25 28.2608 25 28.2608L0 25Z" fill="#D80027"/>
<path d="M50 25C50 38.807 38.807 50 25 50C11.193 50 0 38.807 0 25" fill="#6DA544"/>
<path d="M24.9999 16.3042L26.8883 22.1165H33.0003L28.0558 25.7089L29.9442 31.5216L24.9999 27.9293L20.0555 31.5216L21.9442 25.7089L16.9996 22.1165H23.1113L24.9999 16.3042Z" fill="#FFDA44"/>
</g>
<defs>
<clipPath id="clip0_105_1123">
<rect width="50" height="50" fill="white"/>
</clipPath>
</defs>
</svg>
