<svg width="50" height="50" viewBox="0 0 50 50" fill="none" xmlns="http://www.w3.org/2000/svg">
<g clip-path="url(#clip0_105_1333)">
<path d="M0.001 4.34766H0V45.652H0.001V24.9999V4.34766Z" fill="#FF9811"/>
<path d="M24.9999 49.9998C38.807 49.9998 49.9998 38.807 49.9998 24.9999C49.9998 11.1928 38.807 0 24.9999 0C11.1928 0 0 11.1928 0 24.9999C0 38.807 11.1928 49.9998 24.9999 49.9998Z" fill="#F0F0F0"/>
<path d="M25.0001 0C16.8212 0 9.56006 3.92803 4.99902 10H45.0011C40.4401 3.92793 33.1789 0 25.0001 0Z" fill="#0052B4"/>
<path d="M25.0001 49.9995C33.179 49.9995 40.4401 46.0715 45.0012 39.9995H4.99902C9.55996 46.0716 16.8212 49.9995 25.0001 49.9995Z" fill="#0052B4"/>
<path d="M0 25C0 26.7124 0.172656 28.3845 0.500684 30H49.4994C49.8274 28.3845 50 26.7124 50 25C50 23.2876 49.8273 21.6155 49.4994 20H0.500684C0.172656 21.6155 0 23.2876 0 25Z" fill="#0052B4"/>
<path d="M7.32224 7.32227C-2.44075 17.0853 -2.44075 32.9145 7.32224 42.6776C11.3567 38.6432 15.2368 34.763 24.9999 25L7.32224 7.32227Z" fill="#D80027"/>
<path d="M10.1181 18.4785L11.7366 23.4604H16.9755L12.7375 26.5397L14.3561 31.5218L10.1181 28.4427L5.87988 31.5218L7.49883 26.5397L3.26074 23.4604H8.49922L10.1181 18.4785Z" fill="#F0F0F0"/>
</g>
<defs>
<clipPath id="clip0_105_1333">
<rect width="50" height="50" fill="white"/>
</clipPath>
</defs>
</svg>
