<svg width="50" height="50" viewBox="0 0 50 50" fill="none" xmlns="http://www.w3.org/2000/svg">
<g clip-path="url(#clip0_105_2202)">
<path d="M42.6777 42.6775C32.9146 52.4406 17.0855 52.4406 7.32224 42.6775C-2.44084 32.9144 -2.44084 17.0852 7.32234 7.32204C17.0854 -2.44104 31.3773 -0.903837 41.1404 8.85935C50.9034 18.6224 52.4407 32.9144 42.6777 42.6775Z" fill="black"/>
<path d="M7.32239 7.32223C17.0855 -2.44086 32.9145 -2.44066 42.6778 7.32233C52.4408 17.0854 52.4408 32.9145 42.6778 42.6777" fill="#A2001D"/>
<path d="M19.1057 33.6958L19.5103 34.9414H20.82L19.7604 35.7111L20.1652 36.9567L19.1057 36.1869L18.0461 36.9567L18.4508 35.7111L17.3913 34.9414H18.7009L19.1057 33.6958Z" fill="#F0F0F0"/>
<path d="M15.7609 21.7393L16.4356 23.8152H18.6182L16.8523 25.0981L17.5268 27.1741L15.7609 25.891L13.995 27.1741L14.6696 25.0981L12.9036 23.8152H15.0864L15.7609 21.7393Z" fill="#F0F0F0"/>
<path d="M15.7609 36.9565L16.4354 39.0325H18.6182L16.8521 40.3153L17.5268 42.3913L15.7609 41.1082L13.995 42.3913L14.6694 40.3153L12.9036 39.0325H15.0861L15.7609 36.9565Z" fill="#F0F0F0"/>
<path d="M22.1427 27.1743L22.8174 29.2503H25L23.2341 30.5331L23.9086 32.6091L22.1427 31.326L20.3768 32.6091L21.0514 30.5331L19.2855 29.2503H21.4682L22.1427 27.1743Z" fill="#F0F0F0"/>
<path d="M9.37889 27.1743L10.0536 29.2503H12.2361L10.4703 30.5331L11.1447 32.6091L9.37889 31.326L7.61298 32.6091L8.28768 30.5331L6.52167 29.2503H8.70438L9.37889 27.1743Z" fill="#F0F0F0"/>
<path d="M41.8505 18.5118C40.7332 17.3945 39.2814 16.7345 37.7214 16.6211L42.3913 12.989C40.5314 11.1291 38.0387 10.2892 35.6062 10.4668C35.315 9.42031 34.7599 8.43184 33.9369 7.60889L32.0923 11.2981C31.9713 11.0776 31.8181 10.8701 31.6312 10.6833C30.5698 9.62207 28.8493 9.62207 27.7882 10.6833C26.727 11.7445 26.7269 13.465 27.7882 14.5263C27.975 14.7131 28.1826 14.8663 28.4031 14.9874L24.7139 16.832C25.537 17.6553 26.5262 18.2108 27.5732 18.5019C27.395 20.9343 28.2341 23.4267 30.094 25.2866L34.1741 20.0407C34.4811 19.7385 34.8864 19.5716 35.3177 19.5716C35.7532 19.5716 36.1626 19.7411 36.4705 20.0492C36.7785 20.3571 36.9481 20.7666 36.9481 21.2021C36.9481 21.6376 36.7785 22.047 36.4705 22.355L38.0078 23.8923C38.7263 23.1737 39.1221 22.2184 39.1221 21.2021C39.1221 20.3707 38.8568 19.5803 38.3672 18.9268C39.0807 19.1173 39.755 19.4905 40.3136 20.0492C42.0089 21.7444 42.0089 24.5028 40.3136 26.1979L41.8509 27.7353C43.0826 26.5034 43.761 24.8657 43.761 23.1236C43.7607 21.3813 43.0822 19.7437 41.8505 18.5118Z" fill="#FFDA44"/>
</g>
<defs>
<clipPath id="clip0_105_2202">
<rect width="50" height="50" fill="white"/>
</clipPath>
</defs>
</svg>
