<svg width="50" height="50" viewBox="0 0 50 50" fill="none" xmlns="http://www.w3.org/2000/svg">
<g clip-path="url(#clip0_105_1280)">
<path d="M50 25C50 38.807 38.807 50 25 50C11.193 50 0 38.807 0 25C0 25.006 25 0.00273438 25 0C38.807 0 50 11.193 50 25Z" fill="#0052B4"/>
<path d="M24.9331 25H25C25 24.9775 25 24.9557 25 24.9331C24.9777 24.9555 24.9555 24.9777 24.9331 25Z" fill="#F0F0F0"/>
<path d="M25 13.0435C25 8.64453 25 5.76221 25 0H24.9958C11.1905 0.00234375 0 11.1942 0 25H13.0435V17.6552L20.3883 25H24.9332C24.9555 24.9777 24.9777 24.9555 25.0001 24.9331C25.0001 23.2488 25.0001 21.746 25.0001 20.3885L17.6551 13.0435H25Z" fill="#F0F0F0"/>
<path d="M12.648 3.26074C8.73792 5.48721 5.48723 8.73779 3.26086 12.6479V24.9999H9.78264V9.78272V9.78252H25C25 7.72559 25 5.76602 25 3.26074H12.648Z" fill="#D80027"/>
<path d="M25 21.9256L16.1177 13.0435H13.0435V13.0437L24.9998 24.9999H25C25 24.9999 25 22.8801 25 21.9256Z" fill="#D80027"/>
<path d="M33.6957 25L34.1584 26.4234H35.6549L34.4442 27.3031L34.9067 28.7267L33.6957 27.8469L32.4848 28.7267L32.9473 27.3031L31.7366 26.4234H33.2332L33.6957 25Z" fill="#F0F0F0"/>
<path d="M27.547 27.5469L28.8805 28.2263L29.9389 27.168L29.7047 28.6463L31.0383 29.3258L29.56 29.5598L29.3259 31.0383L28.6463 29.7046L27.1681 29.9388L28.2266 28.8805L27.547 27.5469Z" fill="#F0F0F0"/>
<path d="M25 33.6958L26.4234 33.2333L26.4236 31.7368L27.3031 32.9475L28.7267 32.4849L27.8469 33.6958L28.7267 34.9068L27.3031 34.4443L26.4236 35.6551V34.1585L25 33.6958Z" fill="#F0F0F0"/>
<path d="M27.547 39.8443L28.2264 38.5107L27.1681 37.4525L28.6464 37.6866L29.3259 36.353L29.56 37.8313L31.0383 38.0653L29.7047 38.7449L29.9389 40.2233L28.8805 39.1647L27.547 39.8443Z" fill="#F0F0F0"/>
<path d="M33.6956 42.3912L33.2331 40.9677H31.7365L32.9473 40.088L32.4848 38.6646L33.6956 39.5442L34.9067 38.6646L34.4442 40.088L35.6549 40.9677H34.1583L33.6956 42.3912Z" fill="#F0F0F0"/>
<path d="M39.8443 39.8443L38.5107 39.165L37.4525 40.2233L37.6866 38.7449L36.353 38.0655L37.8313 37.8313L38.0655 36.353L38.7449 37.6866L40.2232 37.4525L39.1647 38.5108L39.8443 39.8443Z" fill="#F0F0F0"/>
<path d="M42.3913 33.6958L40.9678 34.1585V35.6551L40.0881 34.4442L38.6647 34.9068L39.5445 33.6958L38.6647 32.4849L40.0881 32.9475L40.9678 31.7368V33.2333L42.3913 33.6958Z" fill="#F0F0F0"/>
<path d="M39.8443 27.5469L39.165 28.8804L40.2232 29.9387L38.7449 29.7045L38.0655 31.0382L37.8313 29.5597L36.353 29.3256L37.6866 28.6462L37.4525 27.168L38.5108 28.2262L39.8443 27.5469Z" fill="#F0F0F0"/>
</g>
<defs>
<clipPath id="clip0_105_1280">
<rect width="50" height="50" fill="white"/>
</clipPath>
</defs>
</svg>
