<svg width="50" height="50" viewBox="0 0 50 50" fill="none" xmlns="http://www.w3.org/2000/svg">
<g clip-path="url(#clip0_105_1007)">
<path d="M25 50C38.8071 50 50 38.8071 50 25C50 11.1929 38.8071 0 25 0C11.1929 0 0 11.1929 0 25C0 38.8071 11.1929 50 25 50Z" fill="#F0F0F0"/>
<path d="M25.0001 0C16.1358 0 8.34971 4.61357 3.91064 11.5702L37.8129 46.4696C45.112 42.1042 50.0001 34.1233 50.0001 25C50.0001 11.193 38.8071 0 25.0001 0Z" fill="#FFDA44"/>
<path d="M49.9998 24.9998C49.9998 18.5133 47.5293 12.6043 43.478 8.16113V41.8386C47.5293 37.3953 49.9998 31.4863 49.9998 24.9998Z" fill="#0052B4"/>
<path d="M31.2294 47.0578L33.848 47.0561L34.6559 44.565L35.4666 47.0552L36.7801 47.0544C37.5854 46.6232 38.3645 46.1494 39.1141 45.6355L4.36416 10.8857C3.7915 11.7213 3.26924 12.5937 2.79961 13.498L3.1084 14.4465L5.72705 14.4448L3.60947 15.9854L4.42021 18.4755L2.30068 16.9376L1.03652 17.8571C0.362598 20.1204 0 22.5178 0 24.9999C0 38.8069 11.193 49.9999 25 49.9999C27.9191 49.9999 30.721 49.4987 33.3252 48.5788L31.2294 47.0578ZM5.57607 23.913L6.38369 21.422L4.26436 19.8839L6.88301 19.8822L7.69072 17.3911L8.50146 19.8813L11.1201 19.8796L9.00244 21.4201L9.81318 23.9103L7.69365 22.3724L5.57607 23.913ZM10.9691 29.3478L11.7768 26.8567L9.65742 25.3187L12.2761 25.317L13.0838 22.8259L13.8945 25.316L16.5132 25.3144L14.3956 26.8549L15.2063 29.345L13.0868 27.8071L10.9691 29.3478ZM16.3621 34.7825L17.1697 32.2915L15.0504 30.7534L17.669 30.7518L18.4768 28.2606L19.2875 30.7508L21.9062 30.7491L19.7886 32.2896L20.5993 34.7798L18.4798 33.2417L16.3621 34.7825ZM23.8728 38.6768L21.7551 40.2173L22.5627 37.7263L20.4434 36.1882L23.062 36.1865L23.8698 33.6954L24.6806 36.1855L27.2992 36.1839L25.1816 37.7244L25.9924 40.2146L23.8728 38.6768ZM27.1481 45.6521L27.9558 43.161L25.8364 41.6229L28.4551 41.6213L29.2628 39.1302L30.0735 41.6203L32.6922 41.6187L30.5746 43.1592L31.3853 45.6493L29.2658 44.1112L27.1481 45.6521Z" fill="#0052B4"/>
</g>
<defs>
<clipPath id="clip0_105_1007">
<rect width="50" height="50" fill="white"/>
</clipPath>
</defs>
</svg>
