<svg width="50" height="50" viewBox="0 0 50 50" fill="none" xmlns="http://www.w3.org/2000/svg">
<g clip-path="url(#clip0_105_2248)">
<path d="M0 25.0002C0 35.7492 6.78438 44.9128 16.3042 48.4451L18.4782 25.0001L16.3042 1.55518C6.78438 5.0876 0 14.2511 0 25.0002Z" fill="#6DA544"/>
<path d="M50 25C50 11.193 38.807 0 25 0C21.942 0 19.0126 0.550098 16.3042 1.55498V48.445C19.0126 49.45 21.942 50 25 50C38.807 50 50 38.807 50 25Z" fill="#D80027"/>
<path d="M16.3045 33.6954C21.1069 33.6954 25.0001 29.8023 25.0001 24.9998C25.0001 20.1974 21.1069 16.3042 16.3045 16.3042C11.502 16.3042 7.60889 20.1974 7.60889 24.9998C7.60889 29.8023 11.502 33.6954 16.3045 33.6954Z" fill="#FFDA44"/>
<path d="M11.4131 20.6523V26.0871C11.4131 28.7885 13.6029 30.9784 16.3044 30.9784C19.0059 30.9784 21.1957 28.7886 21.1957 26.0871V20.6523H11.4131Z" fill="#D80027"/>
<path d="M16.3043 27.7174C15.4053 27.7174 14.6738 26.9859 14.6738 26.0869V23.9131H17.9347V26.087C17.9347 26.9859 17.2032 27.7174 16.3043 27.7174Z" fill="#F0F0F0"/>
</g>
<defs>
<clipPath id="clip0_105_2248">
<rect width="50" height="50" fill="white"/>
</clipPath>
</defs>
</svg>
