<svg width="50" height="50" viewBox="0 0 50 50" fill="none" xmlns="http://www.w3.org/2000/svg">
<g clip-path="url(#clip0_105_2510)">
<path d="M0.001 4.34766H0V45.6519H0.001V24.9999V4.34766Z" fill="#FF9811"/>
<path d="M25 49.9999C38.807 49.9999 49.9999 38.807 49.9999 25C49.9999 11.1929 38.807 0 25 0C11.1929 0 0 11.1929 0 25C0 38.807 11.1929 49.9999 25 49.9999Z" fill="#FFDA44"/>
<path d="M19.5653 4.34766H10.9096C10.526 4.60986 10.1506 4.88281 9.78269 5.16533L7.60876 24.9997L9.78269 44.8342C10.1506 45.1168 10.526 45.3897 10.9096 45.6518H19.5653V4.34766Z" fill="#FF9811"/>
<path d="M0.00012207 25C0.00012207 33.0806 3.8349 40.2644 9.78276 44.8345V5.16553C3.8349 9.73565 0.00012207 16.9195 0.00012207 25Z" fill="#6DA544"/>
<path d="M40.2174 15.2407V15.8662L40.2407 15.8697L40.2174 15.2407Z" fill="#FFDA44"/>
<path d="M48.0074 31.5215H43.2971L41.3044 33.6955V38.0433H36.9566V35.8694H39.1305V31.5215H29.3479V34.2389H27.1739V29.0601C26.5069 28.463 26.087 27.5957 26.087 26.6302V12.4998C26.087 10.6989 27.547 9.23897 29.3479 9.23897V29.3477H33.6957L35.1875 28.1044C34.927 27.4838 34.7826 26.8023 34.7826 26.0869V22.826H31.5218V16.3043H38.0435C38.0435 15.2174 39.674 14.1304 39.674 14.1304C39.674 14.1304 41.3044 15.2173 41.3044 16.3043V17.9348V22.8261C42.5137 22.8405 44.435 22.8091 46.5107 22.8261C45.9654 21.873 45.6522 20.742 45.6522 19.5653C45.6522 17.6472 46.4803 15.9228 47.7985 14.7294C45.8985 10.519 42.8666 6.92891 39.0906 4.34766H22.8262V45.652H39.0907C43.6824 42.5133 47.1735 37.8833 48.8672 32.4596L48.0074 31.5215Z" fill="#A2001D"/>
</g>
<defs>
<clipPath id="clip0_105_2510">
<rect width="50" height="50" fill="white"/>
</clipPath>
</defs>
</svg>
