<svg width="50" height="50" viewBox="0 0 50 50" fill="none" xmlns="http://www.w3.org/2000/svg">
<g clip-path="url(#clip0_105_1602)">
<path d="M10.9094 45.652C14.9215 48.3946 19.7731 49.9998 25 49.9998C30.2268 49.9998 35.0783 48.3946 39.0905 45.652L25 43.478L10.9094 45.652Z" fill="#D80027"/>
<path d="M39.0905 4.34785C35.0783 1.60518 30.2268 0 25 0C19.7731 0 14.9215 1.60518 10.9094 4.34785L25 6.52178L39.0905 4.34785Z" fill="#D80027"/>
<path d="M50 24.9998C50 16.7273 45.0473 8.41973 39.0905 4.34766H10.9095C4.32324 8.85 0 16.4197 0 24.9998C0 33.5802 4.32324 41.1496 10.9095 45.652H39.0905C45.6769 41.1496 50 33.5802 50 24.9998Z" fill="#0052B4"/>
<path d="M23.5852 40.781C23.2436 40.488 15.2173 33.5106 15.2173 25C15.2173 16.4894 23.2435 9.51191 23.5852 9.21904L24.9999 8.00635L26.4146 9.21895C26.7562 9.51191 34.7825 16.4893 34.7825 25C34.7825 33.5107 26.7563 40.4882 26.4146 40.781L24.9999 41.9937L23.5852 40.781Z" fill="#D80027"/>
<path d="M32.6087 25.0001C32.6087 17.3914 25 10.8696 25 10.8696C25 10.8696 17.3914 17.3916 17.3914 25.0001C17.3914 27.3277 18.104 29.5532 19.0924 31.5219H30.9077C31.8961 29.5532 32.6087 27.3277 32.6087 25.0001Z" fill="#338AF3"/>
<path d="M32.6087 25C32.6087 27.3276 31.8961 29.5531 30.9077 31.5218L25 32.6087L19.0924 31.5218C18.104 29.5532 17.3914 27.3276 17.3914 25H32.6087Z" fill="#0052B4"/>
<path d="M24.9999 39.1307C24.9999 39.1307 28.6647 35.9884 30.9075 31.522H19.0923C21.3351 35.9884 24.9999 39.1307 24.9999 39.1307Z" fill="#FFDA44"/>
<path d="M20.1086 20.6523H29.8913L25 25.5437L20.1086 20.6523Z" fill="#6DA544"/>
<path d="M23.3696 23.9131H26.6305V33.6957H23.3696V23.9131Z" fill="#A2001D"/>
</g>
<defs>
<clipPath id="clip0_105_1602">
<rect width="50" height="50" fill="white"/>
</clipPath>
</defs>
</svg>
