<svg width="50" height="50" viewBox="0 0 50 50" fill="none" xmlns="http://www.w3.org/2000/svg">
<g clip-path="url(#clip0_105_2285)">
<path d="M33.6955 1.55488C30.9871 0.550098 28.0579 1.29978e-08 24.9999 1.29978e-08C21.9419 -9.76433e-05 19.0126 0.550098 16.3043 1.55488L14.1304 24.9999L16.3043 48.4449C19.0125 49.45 21.9418 50 24.9999 50C28.0578 50 30.9872 49.45 33.6955 48.4449L35.8693 25L33.6955 1.55488Z" fill="#FFDA44"/>
<path d="M50 25.0002C50 14.2512 43.2156 5.0874 33.6956 1.55518V48.4454C43.2156 44.9128 49.9999 35.7494 50 25.0002Z" fill="#D80027"/>
<path d="M0 25C0 35.7493 6.78438 44.9127 16.3042 48.4452L16.3043 1.55518C6.78437 5.0874 0 14.2509 0 25H0Z" fill="#0052B4"/>
</g>
<defs>
<clipPath id="clip0_105_2285">
<rect width="50" height="50" fill="white"/>
</clipPath>
</defs>
</svg>
