<svg width="50" height="50" viewBox="0 0 50 50" fill="none" xmlns="http://www.w3.org/2000/svg">
<g clip-path="url(#clip0_105_947)">
<path d="M25 50C38.8071 50 50 38.8071 50 25C50 11.1929 38.8071 0 25 0C11.1929 0 0 11.1929 0 25C0 38.8071 11.1929 50 25 50Z" fill="#FCFCFC"/>
<path d="M10.3258 23.1884L7.6084 18.2584L10.3258 13.4058L13.0432 18.2584L10.3258 23.1884Z" fill="#A2001D"/>
<path d="M4.89121 23.1884L2.17383 18.2584L4.89121 13.4058L7.60859 18.2584L4.89121 23.1884Z" fill="#A2001D"/>
<path d="M10.3258 36.5941L7.6084 31.6642L10.3258 26.8115L13.0432 31.6642L10.3258 36.5941Z" fill="#A2001D"/>
<path d="M4.89121 36.5941L2.17383 31.6642L4.89121 26.8115L7.60859 31.6642L4.89121 36.5941Z" fill="#A2001D"/>
<path d="M13.0432 4.85283L12.2738 3.479C10.8939 4.29658 9.59971 5.24316 8.40723 6.30215L10.3258 9.78272L13.0432 4.85283Z" fill="#A2001D"/>
<path d="M10.3261 40.2173L8.38721 43.6798C9.57861 44.7401 10.872 45.6882 12.2513 46.5074L13.0436 45.07L10.3261 40.2173Z" fill="#A2001D"/>
<path d="M15.2173 31.522V48.0125C18.2221 49.2915 21.528 50.0002 24.9999 50.0002C35.749 50.0002 44.9126 43.2158 48.4449 33.6958L15.2173 31.522Z" fill="#6DA544"/>
<path d="M48.4449 33.6956C49.4499 30.9873 49.9999 28.058 49.9999 25C49.9999 11.193 38.8069 0 24.9999 0C21.5283 0 18.2221 0.708301 15.2173 1.98711V33.6957H48.4449V33.6956Z" fill="#A2001D"/>
</g>
<defs>
<clipPath id="clip0_105_947">
<rect width="50" height="50" fill="white"/>
</clipPath>
</defs>
</svg>
