<svg width="50" height="50" viewBox="0 0 50 50" fill="none" xmlns="http://www.w3.org/2000/svg">
<g clip-path="url(#clip0_105_2035)">
<path d="M25 50C38.8071 50 50 38.8071 50 25C50 11.1929 38.8071 0 25 0C11.1929 0 0 11.1929 0 25C0 38.8071 11.1929 50 25 50Z" fill="#F0F0F0"/>
<path d="M7.32246 42.6777C8.37119 43.7265 9.49014 44.6617 10.6639 45.4852L45.4851 10.6639C44.6617 9.49014 43.7265 8.37119 42.6776 7.32246C41.6289 6.27373 40.51 5.33857 39.3362 4.51514L4.51514 39.3364C5.33848 40.51 6.27373 41.629 7.32246 42.6777Z" fill="#A2001D"/>
<path d="M7.32239 7.32216C-0.564715 15.2093 -2.07878 27.0542 2.77698 36.4626L36.4627 2.77694C27.0543 -2.07882 15.2093 -0.564562 7.32239 7.32216Z" fill="#0052B4"/>
<path d="M42.6774 42.6775C50.5644 34.7906 52.0784 22.9456 47.2229 13.5371L13.5371 47.2229C22.9454 52.0786 34.7904 50.5645 42.6774 42.6775Z" fill="#496E2D"/>
<path d="M20.652 14.1307L17.8506 15.4483L19.3424 18.1614L16.3005 17.5796L15.9149 20.6523L13.7962 18.3923L11.6773 20.6523L11.292 17.5796L8.25 18.1613L9.7417 15.4482L6.94043 14.1307L9.7418 12.8129L8.25 10.1L11.2919 10.6818L11.6774 7.60889L13.7962 9.86904L15.915 7.60889L16.3005 10.6818L19.3424 10.1L17.8508 12.813L20.652 14.1307Z" fill="#FFDA44"/>
</g>
<defs>
<clipPath id="clip0_105_2035">
<rect width="50" height="50" fill="white"/>
</clipPath>
</defs>
</svg>
