<svg width="50" height="50" viewBox="0 0 50 50" fill="none" xmlns="http://www.w3.org/2000/svg">
<g clip-path="url(#clip0_105_2551)">
<path d="M47.5193 35.8695C49.1086 32.5829 50 28.8955 50 25C50 21.1045 49.1086 17.4171 47.5193 14.1305L25 13.0435L2.48066 14.1304C0.891406 17.4171 0 21.1045 0 25C0 28.8955 0.891406 32.5829 2.48066 35.8695L25 36.9565L47.5193 35.8695Z" fill="#FFDA44"/>
<path d="M24.9998 0C15.0883 0 6.52422 5.76807 2.48047 14.1305H47.519C43.4754 5.76807 34.9112 0 24.9998 0Z" fill="black"/>
<path d="M24.9998 50.0001C15.0883 50.0001 6.52422 44.232 2.48047 35.8696H47.519C43.4754 44.232 34.9112 50.0001 24.9998 50.0001Z" fill="#0052B4"/>
<path d="M48.8194 17.3911H1.18057C0.414746 19.7904 0 22.3466 0 24.9998C0 27.653 0.414746 30.2092 1.18057 32.6085H48.8193C49.5853 30.2092 50 27.653 50 24.9998C50 22.3466 49.5853 19.7904 48.8194 17.3911Z" fill="#A2001D"/>
<path d="M8.6958 23.9131H41.3045V26.087H8.6958V23.9131Z" fill="#FFDA44"/>
<path d="M13.0435 19.5654H36.9565V21.7394H13.0435V19.5654Z" fill="#FFDA44"/>
<path d="M37.1116 24.9998C37.1116 24.9998 31.5215 31.5216 24.9998 31.5216C18.4781 31.5216 18.478 24.9998 18.478 24.9998C18.478 24.9998 18.478 18.478 24.9998 18.478C31.5216 18.478 37.1116 24.9998 37.1116 24.9998Z" fill="#F0F0F0"/>
<path d="M25 31.5216C18.4782 31.5216 12.8882 24.9998 12.8882 24.9998C12.8882 24.9998 18.4782 18.478 25 18.478" fill="black"/>
<path d="M20.6523 22.8262H22.8263V27.174H20.6523V22.8262Z" fill="#F0F0F0"/>
<path d="M27.1738 22.8262H29.3478V27.174H27.1738V22.8262Z" fill="black"/>
<path d="M8.69541 27.174C9.89604 27.174 10.8693 26.2007 10.8693 25.0001C10.8693 23.7995 9.89604 22.8262 8.69541 22.8262C7.49478 22.8262 6.52148 23.7995 6.52148 25.0001C6.52148 26.2007 7.49478 27.174 8.69541 27.174Z" fill="#0052B4"/>
<path d="M41.3043 27.174C42.5049 27.174 43.4782 26.2007 43.4782 25.0001C43.4782 23.7995 42.5049 22.8262 41.3043 22.8262C40.1037 22.8262 39.1304 23.7995 39.1304 25.0001C39.1304 26.2007 40.1037 27.174 41.3043 27.174Z" fill="#0052B4"/>
</g>
<defs>
<clipPath id="clip0_105_2551">
<rect width="50" height="50" fill="white"/>
</clipPath>
</defs>
</svg>
