<svg width="50" height="50" viewBox="0 0 50 50" fill="none" xmlns="http://www.w3.org/2000/svg">
<g clip-path="url(#clip0_105_1823)">
<path d="M0 25C0 28.8955 0.891309 32.5828 2.48066 35.8695L25 36.9565L47.5193 35.8696C49.1087 32.5828 50 28.8955 50 25C50 21.1045 49.1087 17.4172 47.5193 14.1305L25 13.0435L2.48066 14.1304C0.891309 17.4172 0 21.1045 0 25H0Z" fill="#F0F0F0"/>
<path d="M25 50.0001C34.9114 50.0001 43.4756 44.232 47.5193 35.8696H2.48065C6.5244 44.232 15.0885 50.0001 25 50.0001Z" fill="#6DA544"/>
<path d="M25 0C15.0885 0 6.5244 5.76807 2.48065 14.1305H47.5192C43.4756 5.76807 34.9114 0 25 0Z" fill="#0052B4"/>
<path d="M26.6305 24.4567V18.4785H23.3696V24.4567L19.4312 28.3953C20.5766 30.2703 22.6421 31.522 25.0001 31.522C27.3581 31.522 29.4235 30.2703 30.569 28.3953L26.6305 24.4567Z" fill="black"/>
</g>
<defs>
<clipPath id="clip0_105_1823">
<rect width="50" height="50" fill="white"/>
</clipPath>
</defs>
</svg>
