<svg width="50" height="50" viewBox="0 0 50 50" fill="none" xmlns="http://www.w3.org/2000/svg">
<g clip-path="url(#clip0_105_2088)">
<path d="M25 50C38.8071 50 50 38.8071 50 25C50 11.1929 38.8071 0 25 0C11.1929 0 0 11.1929 0 25C0 38.8071 11.1929 50 25 50Z" fill="#F0F0F0"/>
<path d="M24.9998 0C15.0883 0 6.52422 5.76807 2.48047 14.1305H47.519C43.4754 5.76807 34.9112 0 24.9998 0Z" fill="#338AF3"/>
<path d="M24.9998 50.0001C34.9112 50.0001 43.4754 44.232 47.5191 35.8696H2.48047C6.52422 44.232 15.0883 50.0001 24.9998 50.0001Z" fill="#338AF3"/>
<path d="M24.9998 17.3911C20.7977 17.3911 17.3911 20.7977 17.3911 24.9998C17.3911 29.202 20.7977 32.6085 24.9998 32.6085C29.202 32.6085 32.6085 29.202 32.6085 24.9998C32.6085 20.7977 29.202 17.3911 24.9998 17.3911ZM24.9998 29.3477C22.5986 29.3477 20.652 27.4012 20.652 24.9998C20.652 22.5984 22.5985 20.652 24.9998 20.652C27.4011 20.652 29.3477 22.5984 29.3477 24.9998C29.3477 27.4012 27.401 29.3477 24.9998 29.3477Z" fill="#FFDA44"/>
<path d="M28.7654 26.0869L25 25L21.2346 26.0869L19.9795 28.2608H30.0204L28.7654 26.0869Z" fill="#0052B4"/>
<path d="M25 19.5654L22.4897 23.9133L25 25.0002L27.5103 23.9133L25 19.5654Z" fill="#338AF3"/>
<path d="M21.2344 26.0869H28.7652L27.5101 23.9131H22.4896L21.2344 26.0869Z" fill="#6DA544"/>
</g>
<defs>
<clipPath id="clip0_105_2088">
<rect width="50" height="50" fill="white"/>
</clipPath>
</defs>
</svg>
