<svg width="50" height="50" viewBox="0 0 50 50" fill="none" xmlns="http://www.w3.org/2000/svg">
<g clip-path="url(#clip0_105_1302)">
<path d="M25 50C38.8071 50 50 38.8071 50 25C50 11.1929 38.8071 0 25 0C11.1929 0 0 11.1929 0 25C0 38.8071 11.1929 50 25 50Z" fill="#F0F0F0"/>
<path d="M48.445 16.3042H1.55498C0.550098 19.0125 0 21.9418 0 24.9998C0 28.0578 0.550098 30.9871 1.55498 33.6954H48.4451C49.45 30.9871 50 28.0578 50 24.9998C50 21.9418 49.45 19.0125 48.445 16.3042Z" fill="#D80027"/>
<path d="M25 0C17.4227 0 10.6334 3.37148 6.04871 8.69561H43.9511C39.3666 3.37148 32.5772 0 25 0Z" fill="#0052B4"/>
<path d="M43.9512 41.3042H6.04871C10.6334 46.6283 17.4227 49.9998 25 49.9998C32.5772 49.9998 39.3666 46.6283 43.9512 41.3042Z" fill="#0052B4"/>
</g>
<defs>
<clipPath id="clip0_105_1302">
<rect width="50" height="50" fill="white"/>
</clipPath>
</defs>
</svg>
