<svg width="50" height="50" viewBox="0 0 50 50" fill="none" xmlns="http://www.w3.org/2000/svg">
<g clip-path="url(#clip0_105_2589)">
<path d="M2.48066 14.1305C0.891406 17.4172 0 21.1045 0 25C0 28.8955 0.891406 32.5828 2.48066 35.8695L25 38.0435L47.5193 35.8695C49.1086 32.5828 50 28.8955 50 25C50 21.1045 49.1086 17.4172 47.5193 14.1305L25 11.9565L2.48066 14.1305Z" fill="#F0F0F0"/>
<path d="M2.48145 35.8696C6.5251 44.2319 15.0885 50.0001 24.9999 50.0001C34.9113 50.0001 43.4748 44.2319 47.5184 35.8696H2.48145Z" fill="#6DA544"/>
<path d="M2.48145 14.1305H47.5184C43.4748 5.76816 34.9113 0 24.9999 0C15.0885 0 6.5251 5.76816 2.48145 14.1305Z" fill="#D80027"/>
<path d="M20.6521 31.5218H29.3478V27.8261L27.6086 28.6956L25 26.0869L22.3913 28.6956L20.6521 27.8261V31.5218Z" fill="#FFDA44"/>
<path d="M15.677 27.1738L16.0818 28.4193H17.3914L16.3318 29.1892L16.7366 30.4347L15.677 29.6649L14.6174 30.4347L15.0222 29.1892L13.9626 28.4193H15.2722L15.677 27.1738Z" fill="#FFDA44"/>
<path d="M16.9319 22.8262L17.3367 24.0717H18.6462L17.5867 24.8415L17.9914 26.087L16.9319 25.3173L15.8723 26.087L16.2771 24.8415L15.2175 24.0717H16.5271L16.9319 22.8262Z" fill="#FFDA44"/>
<path d="M20.5188 19.5649L20.9236 20.8104H22.2331L21.1737 21.5803L21.5783 22.8258L20.5188 22.0561L19.4593 22.8258L19.864 21.5803L18.8044 20.8104H20.1141L20.5188 19.5649Z" fill="#FFDA44"/>
<path d="M34.323 27.1738L33.9182 28.4193H32.6086L33.6682 29.1892L33.2634 30.4347L34.323 29.6649L35.3825 30.4347L34.9778 29.1892L36.0374 28.4193H34.7278L34.323 27.1738Z" fill="#FFDA44"/>
<path d="M33.0684 22.8262L32.6636 24.0717H31.354L32.4136 24.8415L32.0088 26.087L33.0684 25.3173L34.1279 26.087L33.7231 24.8415L34.7827 24.0717H33.4731L33.0684 22.8262Z" fill="#FFDA44"/>
<path d="M29.4811 19.5649L29.0763 20.8104H27.7668L28.8262 21.5803L28.4215 22.8258L29.4811 22.0561L30.5406 22.8258L30.1359 21.5803L31.1954 20.8104H29.8858L29.4811 19.5649Z" fill="#FFDA44"/>
<path d="M25 17.9346L25.4048 19.1801H26.7144L25.6548 19.9499L26.0596 21.1954L25 20.4257L23.9404 21.1954L24.3452 19.9499L23.2856 19.1801H24.5952L25 17.9346Z" fill="#FFDA44"/>
</g>
<defs>
<clipPath id="clip0_105_2589">
<rect width="50" height="50" fill="white"/>
</clipPath>
</defs>
</svg>
