<svg width="50" height="50" viewBox="0 0 50 50" fill="none" xmlns="http://www.w3.org/2000/svg">
<g clip-path="url(#clip0_105_2613)">
<path d="M25 50C38.8071 50 50 38.8071 50 25C50 11.1929 38.8071 0 25 0C11.1929 0 0 11.1929 0 25C0 38.8071 11.1929 50 25 50Z" fill="#F0F0F0"/>
<path d="M10.9097 4.34785C14.9219 1.60508 19.7732 0 25.0002 0C30.2271 0 35.0785 1.60508 39.0907 4.34785L25.0002 5.43477L10.9097 4.34785Z" fill="#FFDA44"/>
<path d="M7.32363 42.6762L18.8512 31.1488L25 20.652L31.1481 31.1481L42.6764 42.6762C47.2008 38.1523 50 31.9034 50 24.9998C50 16.4196 45.6769 8.8499 39.0905 4.34766H10.9095C4.32314 8.8499 0 16.4196 0 24.9998C0 31.9034 2.79922 38.1523 7.32363 42.6762Z" fill="#D80027"/>
<path d="M48.1006 34.5721L29.8223 26.998L31.1471 31.1469L42.6762 42.676C44.9781 40.3743 46.8334 37.6261 48.1006 34.5721Z" fill="#0052B4"/>
<path d="M50 24.9996C50 21.6085 49.3241 18.3756 48.1008 15.4272L25 24.9996H50Z" fill="#0052B4"/>
<path d="M42.6764 7.32344C41.5775 6.2248 40.3774 5.22744 39.0905 4.34766H33.5578L25 24.9998L42.6764 7.32344Z" fill="#0052B4"/>
<path d="M25.0001 4.34766H16.4424L25.0001 24.9998V4.34766Z" fill="#0052B4"/>
<path d="M7.32373 7.32324C5.02178 9.625 3.1666 12.3731 1.89941 15.4271L25.0001 24.9996L7.32373 7.32324Z" fill="#0052B4"/>
<path d="M0 25C0 28.3911 0.675879 31.624 1.89922 34.5724L25 25H0Z" fill="#0052B4"/>
<path d="M10.9097 45.6519C14.9218 48.3946 19.7732 49.9997 25.0002 49.9997C30.2271 49.9997 35.0785 48.3946 39.0907 45.6519H10.9097Z" fill="#FFDA44"/>
<path d="M25.0003 24.9998L31.149 31.1485C32.7228 29.5749 33.696 27.4011 33.696 24.9998C33.696 20.1973 29.8028 16.3042 25.0004 16.3042C20.198 16.3042 16.3047 20.1973 16.3047 24.9998C16.3047 27.401 17.2779 29.5749 18.8517 31.1485L25.0003 24.9998Z" fill="#FFDA44"/>
<path d="M28.8046 37.4997C28.8046 39.6008 27.1012 40.2171 25.0002 40.2171C22.8992 40.2171 21.1958 39.6008 21.1958 37.4997C21.1958 35.3986 22.8992 33.6953 25.0002 33.6953C27.1012 33.6953 28.8046 35.3986 28.8046 37.4997Z" fill="#FFDA44"/>
<path d="M28.8046 37.5C28.8046 39.6011 27.1012 41.3044 25.0002 41.3044C22.8992 41.3044 21.1958 39.6011 21.1958 37.5" fill="#0052B4"/>
</g>
<defs>
<clipPath id="clip0_105_2613">
<rect width="50" height="50" fill="white"/>
</clipPath>
</defs>
</svg>
