<svg width="50" height="50" viewBox="0 0 50 50" fill="none" xmlns="http://www.w3.org/2000/svg">
<g clip-path="url(#clip0_105_1428)">
<path d="M25 50C38.8071 50 50 38.8071 50 25C50 11.1929 38.8071 0 25 0C11.1929 0 0 11.1929 0 25C0 38.8071 11.1929 50 25 50Z" fill="#F0F0F0"/>
<path d="M25.0002 0C14.2511 0 5.0875 6.78437 1.55518 16.3044H48.4453C44.9129 6.78437 35.7493 0 25.0002 0Z" fill="#D80027"/>
<path d="M25.0002 50.0002C35.7493 50.0002 44.9129 43.2158 48.4452 33.6958H1.55518C5.0875 43.2158 14.2511 50.0002 25.0002 50.0002Z" fill="black"/>
<path d="M33.6956 22.2828H27.1738C27.1738 21.0822 26.2005 20.1089 24.9999 20.1089C23.7993 20.1089 22.826 21.0822 22.826 22.2828H16.3042C16.3042 23.4835 17.35 24.4567 18.5506 24.4567H18.4781C18.4781 25.6574 19.4514 26.6307 20.6521 26.6307C20.6521 27.8313 21.6253 28.8046 22.826 28.8046H27.1738C28.3745 28.8046 29.3478 27.8313 29.3478 26.6307C30.5484 26.6307 31.5217 25.6574 31.5217 24.4567H31.4493C32.6499 24.4567 33.6956 23.4835 33.6956 22.2828Z" fill="#FF9811"/>
</g>
<defs>
<clipPath id="clip0_105_1428">
<rect width="50" height="50" fill="white"/>
</clipPath>
</defs>
</svg>
