<svg width="50" height="50" viewBox="0 0 50 50" fill="none" xmlns="http://www.w3.org/2000/svg">
<g clip-path="url(#clip0_105_1538)">
<path d="M25 50C38.8071 50 50 38.8071 50 25C50 11.1929 38.8071 0 25 0C11.1929 0 0 11.1929 0 25C0 38.8071 11.1929 50 25 50Z" fill="#F0F0F0"/>
<path d="M25 0C14.6645 0 5.79458 6.27207 1.98706 15.2174H48.0129C44.2054 6.27207 35.3354 0 25 0Z" fill="#A2001D"/>
<path d="M25 50.0001C35.3354 50.0001 44.2054 43.728 48.0128 34.7827H1.98706C5.79458 43.728 14.6645 50.0001 25 50.0001Z" fill="#496E2D"/>
<path d="M49.1388 18.478H0.86123C0.300781 20.5574 0 22.7433 0 24.9998C0 27.2563 0.300781 29.4422 0.86123 31.5216H49.1389C49.6992 29.4422 50 27.2563 50 24.9998C50 22.7433 49.6992 20.5574 49.1388 18.478Z" fill="#0052B4"/>
</g>
<defs>
<clipPath id="clip0_105_1538">
<rect width="50" height="50" fill="white"/>
</clipPath>
</defs>
</svg>
