<svg width="50" height="50" viewBox="0 0 50 50" fill="none" xmlns="http://www.w3.org/2000/svg">
<g clip-path="url(#clip0_105_1699)">
<path d="M25 50C38.8071 50 50 38.8071 50 25C50 11.1929 38.8071 0 25 0C11.1929 0 0 11.1929 0 25C0 38.8071 11.1929 50 25 50Z" fill="#F0F0F0"/>
<path d="M33.1198 18.4781H29.8489C29.876 18.8376 29.8913 19.2003 29.8913 19.565C29.8913 21.9834 29.2868 24.3274 28.233 25.996C27.9079 26.5106 27.3616 27.2374 26.6304 27.7276V18.478H23.3695V27.7276C22.6384 27.2374 22.092 26.5107 21.7669 25.996C20.713 24.3274 20.1086 21.9834 20.1086 19.565C20.1086 19.2003 20.124 18.8375 20.151 18.4781H16.8801C16.8591 18.8358 16.8477 19.1981 16.8477 19.565C16.8477 26.2697 20.4285 31.5216 24.9998 31.5216C29.5711 31.5216 33.152 26.2697 33.152 19.565C33.1521 19.1981 33.1407 18.8358 33.1198 18.4781Z" fill="#D80027"/>
<path d="M10.3261 11.9565H13.5869V14.1305H16.8477V11.9565H20.1086V14.1305H23.3694V11.9565H26.6303V14.1305H29.8911V11.9565H33.1519V14.1305H36.4128V11.9565H39.6736V14.1305H47.519C43.4756 5.76807 34.9114 0 25 0C15.0886 0 6.5244 5.76807 2.48065 14.1305H10.3261V11.9565Z" fill="#6DA544"/>
<path d="M39.6739 35.8696V38.0436H36.4131V35.8696H33.1522V38.0436H29.8914V35.8696H26.6306V38.0436H23.3697V35.8696H20.1089V38.0436H16.848V35.8696H13.5869V38.0436H10.3261V35.8696H2.48065C6.5244 44.232 15.0885 50.0001 25 50.0001C34.9115 50.0001 43.4756 44.232 47.5193 35.8696H39.6739Z" fill="#D80027"/>
</g>
<defs>
<clipPath id="clip0_105_1699">
<rect width="50" height="50" fill="white"/>
</clipPath>
</defs>
</svg>
