<svg width="50" height="50" viewBox="0 0 50 50" fill="none" xmlns="http://www.w3.org/2000/svg">
<g clip-path="url(#clip0_105_2125)">
<path d="M35.8695 2.48066C32.5828 0.891406 28.8956 0 25 0C21.1044 0 17.4172 0.891406 14.1305 2.48066L11.9565 25L14.1305 47.5193C17.4172 49.1086 21.1044 50 25 50C28.8956 50 32.5828 49.1086 35.8695 47.5193L38.0435 25L35.8695 2.48066Z" fill="#F0F0F0"/>
<path d="M14.1305 2.48145C5.76807 6.525 0 15.0884 0 24.9999C0 34.9114 5.76807 43.4748 14.1305 47.5184V2.48145Z" fill="#6DA544"/>
<path d="M35.8696 2.48145V47.5184C44.232 43.4748 50.0001 34.9113 50.0001 24.9999C50.0001 15.0885 44.232 6.525 35.8696 2.48145Z" fill="#6DA544"/>
<path d="M31.5216 32.6087L24.9998 11.9565L18.478 32.6087H23.3693V38.0435H26.6303V32.6087H31.5216Z" fill="#6DA544"/>
</g>
<defs>
<clipPath id="clip0_105_2125">
<rect width="50" height="50" fill="white"/>
</clipPath>
</defs>
</svg>
