<svg width="50" height="50" viewBox="0 0 50 50" fill="none" xmlns="http://www.w3.org/2000/svg">
<g clip-path="url(#clip0_105_2650)">
<path d="M49.1389 18.4782C46.2701 7.83408 36.5508 0 25.0001 0C13.4494 0 3.73008 7.83408 0.861328 18.4782L25.0001 19.5652L49.1389 18.4782Z" fill="#A2001D"/>
<path d="M0.861328 31.5216C3.73008 42.1656 13.4494 49.9998 25.0001 49.9998C36.5508 49.9998 46.2701 42.1657 49.1389 31.5216L25.0001 30.4346L0.861328 31.5216Z" fill="#A2001D"/>
<path d="M49.1388 18.478H0.86123C0.300781 20.5574 0 22.7433 0 24.9998C0 27.2563 0.300781 29.4422 0.86123 31.5216H49.1389C49.6992 29.4422 50 27.2563 50 24.9998C50 22.7433 49.6992 20.5574 49.1388 18.478Z" fill="#6DA544"/>
</g>
<defs>
<clipPath id="clip0_105_2650">
<rect width="50" height="50" fill="white"/>
</clipPath>
</defs>
</svg>
