<svg width="50" height="50" viewBox="0 0 50 50" fill="none" xmlns="http://www.w3.org/2000/svg">
<g clip-path="url(#clip0_105_2054)">
<path d="M25 50C38.8071 50 50 38.8071 50 25C50 11.1929 38.8071 0 25 0C11.1929 0 0 11.1929 0 25C0 38.8071 11.1929 50 25 50Z" fill="#0052B4"/>
<path d="M25 50C38.8071 50 50 38.8071 50 25C50 11.1929 38.8071 0 25 0C11.1929 0 0 11.1929 0 25C0 38.8071 11.1929 50 25 50Z" fill="#FFDA44"/>
<path d="M25 0C11.9254 0 1.19707 10.0372 0.0952148 22.8261H49.9049C48.8029 10.0372 38.0746 0 25 0Z" fill="#0052B4"/>
<path d="M25 49.9999C38.0746 49.9999 48.8029 39.9627 49.9049 27.1738H0.0952148C1.19707 39.9627 11.9254 49.9999 25 49.9999Z" fill="#0052B4"/>
<path d="M20.6522 33.6955L17.8509 35.0133L19.3426 37.7263L16.3007 37.1443L15.9152 40.2173L13.7964 37.9572L11.6776 40.2173L11.2922 37.1443L8.25018 37.7262L9.74198 35.0132L6.94061 33.6955L9.74208 32.3778L8.25018 29.6649L11.2921 30.2468L11.6777 27.1738L13.7964 29.4339L15.9153 27.1738L16.3007 30.2468L19.3427 29.6649L17.851 32.3779L20.6522 33.6955Z" fill="#F0F0F0"/>
</g>
<defs>
<clipPath id="clip0_105_2054">
<rect width="50" height="50" fill="white"/>
</clipPath>
</defs>
</svg>
