<svg width="50" height="50" viewBox="0 0 50 50" fill="none" xmlns="http://www.w3.org/2000/svg">
<g clip-path="url(#clip0_105_2030)">
<path d="M48.445 33.6955C49.45 30.9873 50 28.0579 50 24.9999C50 21.9419 49.45 19.0125 48.445 16.3043L25 14.1304L1.55498 16.3043C0.550098 19.0125 0 21.9419 0 24.9999C0 28.0579 0.550098 30.9873 1.55498 33.6955L25 35.8694L48.445 33.6955Z" fill="#6DA544"/>
<path d="M48.4452 16.3044C44.9129 6.78437 35.7493 0 25.0002 0C14.2511 0 5.0875 6.78437 1.55518 16.3044H48.4452Z" fill="#FFDA44"/>
<path d="M25.0002 50.0002C35.7493 50.0002 44.9129 43.2158 48.4452 33.6958H1.55518C5.0875 43.2158 14.2511 50.0002 25.0002 50.0002Z" fill="#D80027"/>
<path d="M42.1434 21.1512H29.047L24.9999 8.6958L20.9528 21.1512H7.85645L18.4517 28.849L14.4046 41.3046L24.9999 33.6958L35.5952 41.3045L31.5482 28.8489L42.1434 21.1512Z" fill="#F0F0F0"/>
</g>
<defs>
<clipPath id="clip0_105_2030">
<rect width="50" height="50" fill="white"/>
</clipPath>
</defs>
</svg>
