<svg width="50" height="50" viewBox="0 0 50 50" fill="none" xmlns="http://www.w3.org/2000/svg">
<g clip-path="url(#clip0_105_2061)">
<path d="M25 50C38.8071 50 50 38.8071 50 25C50 11.1929 38.8071 0 25 0C11.1929 0 0 11.1929 0 25C0 38.8071 11.1929 50 25 50Z" fill="#F0F0F0"/>
<path d="M49.8532 27.7171L49.8526 27.7163L49.8525 27.7171H49.8532Z" fill="#0052B4"/>
<path d="M49.8525 27.7173C49.8525 27.7171 49.8526 27.7169 49.8526 27.7165L22.4361 0.129883C21.1993 0.255957 19.9891 0.472168 18.8122 0.771875C7.99785 3.52529 0 24.9999 0 24.9999C0 24.9999 34.9998 48.4213 38.9927 45.719C39.7916 45.1784 40.5576 44.5928 41.2869 43.9658L25.0386 27.7173H49.8525Z" fill="#0052B4"/>
<path d="M43.4782 25.0001L19.1645 0.686523C8.17266 3.31514 0 13.2024 0 25.0001C0 38.8071 11.193 50.0001 25 50.0001C30.2372 50.0001 35.0974 48.3886 39.1142 45.6359L18.4782 25.0001H43.4782Z" fill="#D80027"/>
<path d="M23.7766 36.9134L20.7234 35.4772L22.3492 32.5203L19.0338 33.1546L18.6137 29.8052L16.3044 32.2686L13.9951 29.8052L13.5749 33.1546L10.2596 32.5202L11.8855 35.4772L8.83215 36.9134L11.8855 38.3494L10.2596 41.3064L13.5751 40.6723L13.995 44.0215L16.3044 41.5581L18.6137 44.0215L19.0338 40.6723L22.3491 41.3065L20.7233 38.3496L23.7766 36.9134Z" fill="#F0F0F0"/>
<path d="M21.7391 13.8657L19.5184 12.8213L20.701 10.6706L18.2895 11.1319L17.984 8.6958L16.3044 10.4875L14.6248 8.6958L14.3191 11.1319L11.9077 10.6706L13.0903 12.8213L10.8695 13.8657L16.3044 14.9528L21.7391 13.8657Z" fill="#F0F0F0"/>
<path d="M22.8261 13.8657C22.8261 17.4676 19.9062 20.3875 16.3044 20.3875C12.7025 20.3875 9.78259 17.4676 9.78259 13.8657" fill="#F0F0F0"/>
</g>
<defs>
<clipPath id="clip0_105_2061">
<rect width="50" height="50" fill="white"/>
</clipPath>
</defs>
</svg>
