<svg width="50" height="50" viewBox="0 0 50 50" fill="none" xmlns="http://www.w3.org/2000/svg">
<g clip-path="url(#clip0_105_2576)">
<path d="M25 50C38.8071 50 50 38.8071 50 25C50 11.1929 38.8071 0 25 0C11.1929 0 0 11.1929 0 25C0 38.8071 11.1929 50 25 50Z" fill="#F0F0F0"/>
<path d="M24.9997 0C14.2506 0 5.08701 6.78437 1.55469 16.3044H48.4448C44.9124 6.78437 35.7488 0 24.9997 0Z" fill="#D80027"/>
<path d="M24.9997 50.0002C35.7488 50.0002 44.9124 43.2158 48.4447 33.6958H1.55469C5.08701 43.2158 14.2506 50.0002 24.9997 50.0002Z" fill="black"/>
<path d="M14.9381 19.022L16.287 23.1735H20.6525L17.1208 25.7397L18.4698 29.8915L14.9381 27.3256L11.4063 29.8915L12.7554 25.7397L9.22363 23.1735H13.5892L14.9381 19.022Z" fill="#6DA544"/>
<path d="M35.0631 19.022L36.412 23.1735H40.7776L37.2458 25.7397L38.5948 29.8915L35.0631 27.3256L31.5313 29.8915L32.8804 25.7397L29.3486 23.1735H33.7142L35.0631 19.022Z" fill="#6DA544"/>
</g>
<defs>
<clipPath id="clip0_105_2576">
<rect width="50" height="50" fill="white"/>
</clipPath>
</defs>
</svg>
