<svg width="50" height="50" viewBox="0 0 50 50" fill="none" xmlns="http://www.w3.org/2000/svg">
<g clip-path="url(#clip0_105_1792)">
<path d="M48.445 33.6955C49.4499 30.9872 50 28.0579 50 24.9999C50 21.9419 49.4499 19.0126 48.445 16.3043L25 14.1304L1.55498 16.3043C0.550098 19.0126 0 21.9419 0 24.9999C0 28.0579 0.550098 30.9872 1.55498 33.6955L25 35.8694L48.445 33.6955Z" fill="#F0F0F0"/>
<path d="M25 50.0002C35.7491 50.0002 44.9127 43.2158 48.445 33.6958H1.55493C5.08735 43.2158 14.2508 50.0002 25 50.0002Z" fill="#D80027"/>
<path d="M25 0C14.2508 0 5.08735 6.78437 1.55493 16.3044H48.4451C44.9127 6.78437 35.7491 0 25 0Z" fill="#6DA544"/>
<path d="M7.32231 7.32227C-2.44077 17.0854 -2.44077 32.9145 7.32231 42.6777C9.87065 40.1294 12.358 37.6421 16.3043 33.6957V16.3044L7.32231 7.32227Z" fill="black"/>
</g>
<defs>
<clipPath id="clip0_105_1792">
<rect width="50" height="50" fill="white"/>
</clipPath>
</defs>
</svg>
