<svg width="50" height="50" viewBox="0 0 50 50" fill="none" xmlns="http://www.w3.org/2000/svg">
<g clip-path="url(#clip0_105_2298)">
<path d="M25 50C38.8071 50 50 38.8071 50 25C50 11.1929 38.8071 0 25 0C11.1929 0 0 11.1929 0 25C0 38.8071 11.1929 50 25 50Z" fill="#F0F0F0"/>
<path d="M25 9.26129e-06C24.9767 -0.0175689 -0.0066393 24.9935 1.32359e-06 25C1.32359e-06 11.193 11.193 9.26129e-06 25 9.26129e-06Z" fill="#D80027"/>
<path d="M25 9.26132e-06C25.0233 -0.0175689 50.0066 24.9934 50 25C50 11.193 38.807 9.26132e-06 25 9.26132e-06Z" fill="#D80027"/>
<path d="M25 50C24.9767 50.0176 -0.0066393 25.0066 1.32359e-06 25C1.32359e-06 38.807 11.193 50 25 50Z" fill="#0052B4"/>
<path d="M25 50C25.0233 50.0176 50.0066 25.0066 50 25C50 38.807 38.807 50 25 50Z" fill="#0052B4"/>
<path d="M25.0002 13.0435L27.6982 21.3471H36.4292L29.3656 26.4789L32.0637 34.7826L25.0002 29.6507L17.9367 34.7826L20.6348 26.4789L13.5713 21.3471H22.3021L25.0002 13.0435Z" fill="#FFDA44"/>
</g>
<defs>
<clipPath id="clip0_105_2298">
<rect width="50" height="50" fill="white"/>
</clipPath>
</defs>
</svg>
