<svg width="50" height="50" viewBox="0 0 50 50" fill="none" xmlns="http://www.w3.org/2000/svg">
<g clip-path="url(#clip0_105_1416)">
<path d="M25 50C38.8071 50 50 38.8071 50 25C50 11.1929 38.8071 0 25 0C11.1929 0 0 11.1929 0 25C0 38.8071 11.1929 50 25 50Z" fill="#FFDA44"/>
<path d="M25 0C18.8792 0 13.2731 2.20088 8.92725 5.85293L35.8695 25L8.92725 44.1471C13.2731 47.7991 18.8792 50 25 50C38.807 50 50 38.807 50 25C50 11.193 38.807 0 25 0Z" fill="#D80027"/>
<path d="M7.32227 7.32227C-2.44082 17.0854 -2.44082 32.9145 7.32227 42.6777C11.3567 38.6433 15.2369 34.7631 25 25L7.32227 7.32227Z" fill="black"/>
<path d="M6.93154 19.2729L10.7362 22.8737L15.3366 20.3675L13.0881 25.0989L16.8929 28.6998L11.6981 28.0232L9.44932 32.7546L8.4877 27.605L3.29297 26.9282L7.89316 24.4223L6.93154 19.2729Z" fill="#F0F0F0"/>
</g>
<defs>
<clipPath id="clip0_105_1416">
<rect width="50" height="50" fill="white"/>
</clipPath>
</defs>
</svg>
