<svg width="50" height="50" viewBox="0 0 50 50" fill="none" xmlns="http://www.w3.org/2000/svg">
<g clip-path="url(#clip0_105_2340)">
<path d="M25 50C38.8071 50 50 38.8071 50 25C50 11.1929 38.8071 0 25 0C11.1929 0 0 11.1929 0 25C0 38.8071 11.1929 50 25 50Z" fill="#F0F0F0"/>
<path d="M49.7884 21.7392H28.261H28.2609V0.211621C27.1935 0.0726563 26.1052 0 25 0C23.8948 0 22.8065 0.0726563 21.7392 0.211621V21.739V21.7391H0.211621C0.0726563 22.8065 0 23.8948 0 25C0 26.1052 0.0726563 27.1935 0.211621 28.2608H21.739H21.7391V49.7884C22.8065 49.9273 23.8948 50 25 50C26.1052 50 27.1935 49.9274 28.2608 49.7884V28.2611V28.2609H49.7884C49.9273 27.1935 50 26.1052 50 25C50 23.8948 49.9273 22.8065 49.7884 21.7392Z" fill="#D80027"/>
<path d="M36.9566 8.6958C34.9306 8.6958 33.2283 10.0814 32.7457 11.9566L36.9566 13.0436L41.1674 11.9566C40.6848 10.0815 38.9825 8.6958 36.9566 8.6958Z" fill="black"/>
<path d="M32.6086 18.4782L38.0434 19.5651V17.2543C39.5712 16.8609 40.7738 15.6581 41.167 14.1304L36.9565 13.0435H31.5217L32.6086 16.3043V18.4782Z" fill="black"/>
<path d="M41.1673 11.9565H31.5217V14.1305V16.3044H32.6086V14.1305H41.167C41.2565 13.7831 41.3043 13.4188 41.3043 13.0436C41.3043 12.6682 41.2568 12.3039 41.1673 11.9565Z" fill="#ACABB1"/>
<path d="M14.1305 8.6958C12.1045 8.6958 10.4023 10.0814 9.91968 11.9566L14.1305 13.0436L18.3414 11.9566C17.8587 10.0815 16.1565 8.6958 14.1305 8.6958Z" fill="black"/>
<path d="M9.78257 18.4782L15.2173 19.5651V17.2543C16.7452 16.8609 17.9477 15.6581 18.341 14.1304L14.1304 13.0435H8.69556L9.78247 16.3043V18.4782H9.78257Z" fill="black"/>
<path d="M18.3413 11.9565H8.69556V14.1305V16.3044H9.78247V14.1305H18.3409C18.4303 13.7831 18.4782 13.4188 18.4782 13.0436C18.4782 12.6682 18.4307 12.3039 18.3413 11.9565Z" fill="#ACABB1"/>
<path d="M36.9566 30.4346C34.9306 30.4346 33.2283 31.8202 32.7457 33.6954L36.9566 34.7823L41.1674 33.6954C40.6848 31.8202 38.9825 30.4346 36.9566 30.4346Z" fill="black"/>
<path d="M32.6086 40.2175L38.0434 41.3044V38.9936C39.5712 38.6002 40.7738 37.3974 41.167 35.8696L36.9565 34.7827H31.5217L32.6086 38.0436V40.2175Z" fill="black"/>
<path d="M41.1673 33.6958H31.5217V35.8697V38.0437H32.6086V35.8697H41.167C41.2565 35.5224 41.3043 35.1581 41.3043 34.7828C41.3043 34.4075 41.2568 34.0433 41.1673 33.6958Z" fill="#ACABB1"/>
<path d="M14.1305 30.4346C12.1045 30.4346 10.4023 31.8202 9.91968 33.6954L14.1305 34.7823L18.3414 33.6954C17.8587 31.8202 16.1565 30.4346 14.1305 30.4346Z" fill="black"/>
<path d="M9.78257 40.2175L15.2173 41.3044V38.9936C16.7452 38.6002 17.9477 37.3974 18.341 35.8696L14.1304 34.7827H8.69556L9.78247 38.0436V40.2175H9.78257Z" fill="black"/>
<path d="M18.3413 33.6958H8.69556V35.8697V38.0437H9.78247V35.8697H18.3409C18.4303 35.5224 18.4782 35.1581 18.4782 34.7828C18.4782 34.4075 18.4307 34.0433 18.3413 33.6958Z" fill="#ACABB1"/>
</g>
<defs>
<clipPath id="clip0_105_2340">
<rect width="50" height="50" fill="white"/>
</clipPath>
</defs>
</svg>
