<svg width="50" height="50" viewBox="0 0 50 50" fill="none" xmlns="http://www.w3.org/2000/svg">
<g clip-path="url(#clip0_105_1358)">
<path d="M47.2242 13.5365C46.069 11.2983 44.5549 9.19756 42.6787 7.32139C40.8024 5.44512 38.7016 3.93096 36.4635 2.77588L18.8513 18.8507L2.77637 36.4629C3.93154 38.7011 5.4457 40.802 7.32188 42.6781C9.19805 44.5543 11.2989 46.0685 13.537 47.2236L31.1492 31.1487L47.2242 13.5365Z" fill="#FFDA44"/>
<path d="M7.32158 42.6783C8.37031 43.727 9.48936 44.6624 10.6631 45.4859L45.4857 10.6631C44.6624 9.48936 43.7271 8.37031 42.6783 7.32158C41.6295 6.27285 40.5105 5.3376 39.3368 4.51416L4.51416 39.3368C5.3375 40.5103 6.27275 41.6296 7.32158 42.6783Z" fill="#D80027"/>
<path d="M7.32169 7.32148C-0.565711 15.2089 -2.07987 27.0544 2.77618 36.4631L36.4633 2.77607C27.0545 -2.07989 15.209 -0.565535 7.32169 7.32148Z" fill="#338AF3"/>
<path d="M42.6786 42.6781C50.5659 34.7908 52.08 22.9453 47.2242 13.5366L13.5371 47.2236C22.9458 52.0796 34.7914 50.5655 42.6786 42.6781Z" fill="#338AF3"/>
<path d="M13.3228 7.60791L14.6718 11.76H19.0374L15.5056 14.326L16.8546 18.4779L13.3228 15.9118L9.79072 18.4779L11.1399 14.326L7.60791 11.76H11.9735L13.3228 7.60791Z" fill="#FFDA44"/>
</g>
<defs>
<clipPath id="clip0_105_1358">
<rect width="50" height="50" fill="white"/>
</clipPath>
</defs>
</svg>
