<svg width="50" height="50" viewBox="0 0 50 50" fill="none" xmlns="http://www.w3.org/2000/svg">
<g clip-path="url(#clip0_105_1519)">
<path d="M25 50C38.8071 50 50 38.8071 50 25C50 11.1929 38.8071 0 25 0C11.1929 0 0 11.1929 0 25C0 38.8071 11.1929 50 25 50Z" fill="#F0F0F0"/>
<path d="M3.03955 13.0435H46.96C42.7199 5.27236 34.4759 0 24.9998 0C15.5237 0 7.27969 5.27236 3.03955 13.0435Z" fill="#D80027"/>
<path d="M24.9998 50C34.4759 50 42.7199 44.7276 46.9601 36.9565H3.03955C7.27969 44.7276 15.5237 50 24.9998 50Z" fill="#D80027"/>
<path d="M33.6957 24.9998C33.6957 29.8023 29.8025 32.6085 25 32.6085C20.1976 32.6085 16.3044 29.8023 16.3044 24.9998C16.3044 20.1973 20.1976 16.3042 25 16.3042C29.8025 16.3042 33.6957 20.1973 33.6957 24.9998Z" fill="#FFDA44"/>
<path d="M33.6957 25C33.6957 29.8025 29.8025 33.6956 25 33.6956C20.1976 33.6956 16.3044 29.8025 16.3044 25" fill="#0052B4"/>
<path d="M19.5652 22.8262H21.7391V27.174H19.5652V22.8262Z" fill="#D80027"/>
<path d="M28.2607 22.8262H30.4347V27.174H28.2607V22.8262Z" fill="#D80027"/>
<path d="M23.9131 19.5654H26.087V27.1741H23.9131V19.5654Z" fill="#D80027"/>
</g>
<defs>
<clipPath id="clip0_105_1519">
<rect width="50" height="50" fill="white"/>
</clipPath>
</defs>
</svg>
