<svg width="50" height="50" viewBox="0 0 50 50" fill="none" xmlns="http://www.w3.org/2000/svg">
<g clip-path="url(#clip0_105_1308)">
<path d="M50 24.9999C50 21.9419 49.4499 19.0125 48.445 16.3043L25 15.2173L1.55498 16.3042C0.550098 19.0125 0 21.9419 0 24.9999C0 28.0579 0.550098 30.9873 1.55498 33.6955L25 34.7825L48.445 33.6956C49.4499 30.9873 50 28.0579 50 24.9999Z" fill="#F0F0F0"/>
<path d="M25 50.0002C35.7491 50.0002 44.9127 43.2158 48.445 33.6958H1.55498C5.0873 43.2158 14.2509 50.0002 25 50.0002Z" fill="#0052B4"/>
<path d="M1.55498 16.3044H48.4451C44.9127 6.78437 35.7491 0 25 0C14.2509 0 5.0873 6.78437 1.55498 16.3044Z" fill="#D80027"/>
<path d="M31.5218 17.3915H27.1739L27.8986 11.9566L30.7971 9.78271L33.6956 11.9566V16.3045L31.5218 17.3915Z" fill="#338AF3"/>
<path d="M18.4782 17.3915H22.8261L22.1014 11.9566L19.2028 9.78271L16.3044 11.9566V16.3045L18.4782 17.3915Z" fill="#338AF3"/>
<path d="M27.8986 17.3915H22.1014V11.9566L25 9.78271L27.8986 11.9566V17.3915Z" fill="#0052B4"/>
<path d="M16.3044 16.3047V28.2611C16.3044 31.1081 17.6796 33.6399 19.8007 35.2271L21.3225 34.8464L23.2428 36.7782C23.8106 36.8952 24.3982 36.9568 25.0001 36.9568C25.5987 36.9568 26.1834 36.896 26.7482 36.7802L28.9403 34.955L30.1993 35.2236C32.3195 33.6365 33.6957 31.1073 33.6957 28.2611V16.3047H16.3044Z" fill="#F0F0F0"/>
<path d="M16.3044 16.3042H19.7826V19.7824H16.3044V16.3042Z" fill="#D80027"/>
<path d="M23.2608 16.3042H26.7391V19.7824H23.2608V16.3042Z" fill="#D80027"/>
<path d="M30.2174 16.3042H33.6956V19.7824H30.2174V16.3042Z" fill="#D80027"/>
<path d="M19.7826 19.7822H23.2608V23.2604H19.7826V19.7822Z" fill="#D80027"/>
<path d="M26.7392 19.7822H30.2174V23.2604H26.7392V19.7822Z" fill="#D80027"/>
<path d="M16.3044 23.2598H19.7826V26.738H16.3044V23.2598Z" fill="#D80027"/>
<path d="M19.7826 26.7378H23.2608V30.216H19.7826V26.7378Z" fill="#D80027"/>
<path d="M23.2608 23.2598H26.7391V26.738H23.2608V23.2598Z" fill="#D80027"/>
<path d="M30.2174 23.2598H33.6956V26.738H30.2174V23.2598Z" fill="#D80027"/>
<path d="M26.7392 26.7378H30.2174V30.216H26.7392V26.7378Z" fill="#D80027"/>
<path d="M23.2608 30.2163H26.7391V33.6945H23.2608V30.2163Z" fill="#D80027"/>
<path d="M19.7826 30.2163H16.5288C16.8272 31.5093 17.414 32.6924 18.2185 33.6945H19.7826V30.2163Z" fill="#D80027"/>
<path d="M30.2174 33.6945H31.7815C32.5861 32.6924 33.1727 31.5092 33.4711 30.2163H30.2174V33.6945Z" fill="#D80027"/>
<path d="M19.7826 33.6948V35.2125C20.7942 35.9737 21.9765 36.5195 23.2608 36.7814V33.6948H19.7826Z" fill="#D80027"/>
<path d="M26.7392 33.6948V36.7814C28.0236 36.5197 29.2058 35.9737 30.2174 35.2125V33.6948H26.7392Z" fill="#D80027"/>
</g>
<defs>
<clipPath id="clip0_105_1308">
<rect width="50" height="50" fill="white"/>
</clipPath>
</defs>
</svg>
