<svg width="50" height="50" viewBox="0 0 50 50" fill="none" xmlns="http://www.w3.org/2000/svg">
<g clip-path="url(#clip0_105_1212)">
<path d="M25 50C38.8071 50 50 38.8071 50 25C50 11.1929 38.8071 0 25 0C11.1929 0 0 11.1929 0 25C0 38.8071 11.1929 50 25 50Z" fill="#F0F0F0"/>
<path d="M25 0C18.0964 0 11.8464 2.79824 7.32227 7.32227L25 25V0Z" fill="black"/>
<path d="M0 25C0 31.9036 2.79824 38.1536 7.32227 42.6777L25 25H0Z" fill="black"/>
<path d="M25 50C31.9036 50 38.1536 47.2018 42.6777 42.6777L25 25V50Z" fill="black"/>
<path d="M50 25C50 18.0964 47.2018 11.8464 42.6777 7.32227L25 25H50Z" fill="black"/>
<path d="M16.3044 17.3915L25 18.4787L33.6956 17.3915V12.1741L30.2174 13.9133L25 8.6958L19.7826 13.9133L16.3044 12.1741V17.3915Z" fill="#FFDA44"/>
<path d="M25 38.0436C20.2052 38.0436 16.3044 34.1427 16.3044 29.3479V20.6527L19.5652 17.3916H30.4348L33.6956 20.6527V29.3479C33.6956 34.1427 29.7948 38.0436 25 38.0436Z" fill="#D80027"/>
<path d="M25 34.7826C22.0032 34.7826 19.5652 32.3445 19.5652 29.3479V20.6523H30.4348V29.3478C30.4348 32.3445 27.9968 34.7826 25 34.7826Z" fill="#F0F0F0"/>
<path d="M16.3044 17.3911H19.5652V20.652H16.3044V17.3911Z" fill="#FFDA44"/>
<path d="M30.4348 17.3911H33.6956V20.652H30.4348V17.3911Z" fill="#FFDA44"/>
<path d="M30.4348 24.4565H33.6956V27.7174H30.4348V24.4565Z" fill="#FFDA44"/>
<path d="M16.3044 24.4565H19.5652V27.7174H16.3044V24.4565Z" fill="#FFDA44"/>
<path d="M25 34.7824C24.432 34.7824 23.8844 34.6945 23.3695 34.5322V37.8878C23.898 37.9886 24.4426 38.0434 25 38.0434C25.5574 38.0434 26.1019 37.9886 26.6304 37.8878V34.5322C26.1155 34.6944 25.5679 34.7824 25 34.7824Z" fill="#FFDA44"/>
<path d="M19.6379 30.23L17.0355 32.8323C17.4867 33.8596 18.1304 34.7833 18.9217 35.5577L21.2263 33.253C20.4039 32.4584 19.8309 31.4076 19.6379 30.23Z" fill="#FFDA44"/>
<path d="M32.9645 32.8323L30.3621 30.23C30.169 31.4075 29.5961 32.4582 28.7737 33.2531L31.0784 35.5578C31.8694 34.7833 32.5133 33.8596 32.9645 32.8323Z" fill="#FFDA44"/>
<path d="M23.9131 22.4639V24.2754C23.9131 24.8756 24.3997 25.3623 25 25.3623C25.6003 25.3623 26.0869 24.8756 26.0869 24.2754V22.4639H23.9131Z" fill="#0052B4"/>
<path d="M23.9131 29.7104V31.522C23.9131 32.1222 24.3997 32.6089 25 32.6089C25.6003 32.6089 26.0869 32.1222 26.0869 31.522V29.7104H23.9131Z" fill="#0052B4"/>
<path d="M27.174 26.0869V27.8986C27.174 28.4988 27.6606 28.9855 28.2609 28.9855C28.8612 28.9855 29.3478 28.4988 29.3478 27.8986V26.0869H27.174Z" fill="#0052B4"/>
<path d="M23.9131 26.0869V27.8986C23.9131 28.4988 24.3997 28.9855 25 28.9855C25.6003 28.9855 26.0869 28.4988 26.0869 27.8986V26.0869H23.9131Z" fill="#0052B4"/>
<path d="M20.6522 26.0869V27.8986C20.6522 28.4988 21.1388 28.9855 21.7391 28.9855C22.3394 28.9855 22.826 28.4988 22.826 27.8986V26.0869H20.6522Z" fill="#0052B4"/>
</g>
<defs>
<clipPath id="clip0_105_1212">
<rect width="50" height="50" fill="white"/>
</clipPath>
</defs>
</svg>
