<svg width="50" height="50" viewBox="0 0 50 50" fill="none" xmlns="http://www.w3.org/2000/svg">
<g clip-path="url(#clip0_105_1498)">
<path d="M50 25C50 38.807 38.807 50 25 50C11.193 50 0 38.807 0 25C0 25.006 25 0.00273438 25 0C38.807 0 50 11.193 50 25Z" fill="#338AF3"/>
<path d="M24.9998 11.9565V20.3885L16.3042 11.9565H24.9998Z" fill="#0052B4"/>
<path d="M13.0435 24.9999H20.3884L13.0435 15.2173L11.9565 22.826L13.0435 24.9999Z" fill="#0052B4"/>
<path d="M24.9331 25H25C25 24.9775 25 24.9557 25 24.9331C24.9777 24.9555 24.9555 24.9777 24.9331 25Z" fill="#F0F0F0"/>
<path d="M25 13.0435C25 8.64453 25 5.76221 25 0H24.9958C11.1906 0.00234375 0 11.1942 0 25H13.0435V17.6552L20.3884 25H24.9333C24.9556 24.9777 24.9778 24.9555 25.0002 24.9331C25.0002 23.2488 25.0002 21.746 25.0002 20.3885L17.6551 13.0435H25Z" fill="#F0F0F0"/>
<path d="M12.6479 3.26074C8.73779 5.48721 5.48721 8.73779 3.26074 12.6479V24.9999H9.78252V9.78272V9.78252H24.9999C24.9999 7.72559 24.9999 5.76602 24.9999 3.26074H12.6479Z" fill="#D80027"/>
<path d="M24.9999 21.9256L16.1178 13.0435H13.0435V13.0437L24.9997 24.9999H24.9999C24.9999 24.9999 24.9999 22.8801 24.9999 21.9256Z" fill="#D80027"/>
<path d="M28.2607 16.3043V24.9998C28.2607 30.824 35.8694 32.6086 35.8694 32.6086C35.8694 32.6086 43.4781 30.824 43.4781 24.9998V16.3043L35.8694 14.1304L28.2607 16.3043Z" fill="#F3F3F3"/>
<path d="M43.4781 16.3043V13.0435H28.2607V16.3043H34.7823V22.8262H28.2607V24.9999V25.0001L34.7823 25.0002V32.2753C35.4384 32.5073 35.8694 32.6087 35.8694 32.6087C35.8694 32.6087 36.3003 32.5075 36.9563 32.2753V25.0001H43.4781V24.9999V22.8261H36.9563V16.3042H43.4781V16.3043Z" fill="#D80027"/>
</g>
<defs>
<clipPath id="clip0_105_1498">
<rect width="50" height="50" fill="white"/>
</clipPath>
</defs>
</svg>
