<svg width="50" height="50" viewBox="0 0 50 50" fill="none" xmlns="http://www.w3.org/2000/svg">
<g clip-path="url(#clip0_105_1444)">
<path d="M25 50C38.8071 50 50 38.8071 50 25C50 11.1929 38.8071 0 25 0C11.1929 0 0 11.1929 0 25C0 38.8071 11.1929 50 25 50Z" fill="#F0F0F0"/>
<path d="M15.2175 16.3044H48.445C44.9128 6.78437 35.7491 0 25.0001 0C18.0964 0 11.8471 2.79873 7.32324 7.32314L15.2175 16.3044Z" fill="#6DA544"/>
<path d="M15.2175 33.6958H48.445C44.9128 43.2158 35.7491 50.0002 25.0001 50.0002C18.0964 50.0002 11.8471 47.2015 7.32324 42.677L15.2175 33.6958Z" fill="#D80027"/>
<path d="M7.32231 7.32227C-2.44077 17.0854 -2.44077 32.9145 7.32231 42.6777C11.3568 38.6433 15.237 34.7631 25 25L7.32231 7.32227Z" fill="#0052B4"/>
<path d="M29.3477 20.6523V26.0871C29.3477 29.4152 33.6955 30.4351 33.6955 30.4351C33.6955 30.4351 38.0434 29.4152 38.0434 26.0871V20.6523H29.3477Z" fill="#DEDDE0"/>
<path d="M32.6089 25.1089H34.7828V28.261H32.6089V25.1089Z" fill="#786145"/>
<path d="M35.8693 23.9132C35.8693 22.7125 34.8961 21.7393 33.6954 21.7393C32.4947 21.7393 31.5215 22.7125 31.5215 23.9132C30.9212 23.9132 30.4346 24.3998 30.4346 25.0001C30.4346 25.6004 30.9212 26.087 31.5215 26.087H35.8693C36.4696 26.087 36.9562 25.6004 36.9562 25.0001C36.9562 24.3998 36.4697 23.9132 35.8693 23.9132Z" fill="#6DA544"/>
</g>
<defs>
<clipPath id="clip0_105_1444">
<rect width="50" height="50" fill="white"/>
</clipPath>
</defs>
</svg>
