<svg width="50" height="50" viewBox="0 0 50 50" fill="none" xmlns="http://www.w3.org/2000/svg">
<g clip-path="url(#clip0_105_1975)">
<path d="M35.8695 2.48066C32.5828 0.891406 28.8955 0 25 0C21.1045 0 17.4172 0.891406 14.1305 2.48066L11.9565 25L14.1305 47.5193C17.4172 49.1086 21.1045 50 25 50C28.8955 50 32.5828 49.1086 35.8695 47.5193L38.0435 25L35.8695 2.48066Z" fill="#FFDA44"/>
<path d="M14.1305 2.48145C5.76816 6.5251 0 15.0885 0 24.9999C0 34.9113 5.76816 43.4747 14.1305 47.5184V2.48145Z" fill="#0052B4"/>
<path d="M35.8695 2.48145V47.5184C44.2318 43.4747 50 34.9113 50 24.9999C50 15.0885 44.2318 6.5251 35.8695 2.48145Z" fill="#D80027"/>
<path d="M33.6956 19.67H27.7174C27.7174 18.1692 26.5008 16.9526 25 16.9526C23.4992 16.9526 22.2826 18.1692 22.2826 19.67H16.3044C16.3044 21.1477 17.5916 22.3454 19.069 22.3454H18.98C18.98 23.8231 20.1778 25.0211 21.6556 25.0211C21.6556 26.3294 22.5952 27.4165 23.8362 27.6489L21.7278 32.4089C22.7381 32.8195 23.8422 33.0478 25 33.0478C26.1577 33.0478 27.2619 32.8195 28.2721 32.4089L26.1638 27.6489C27.4048 27.4165 28.3444 26.3294 28.3444 25.0211C29.8222 25.0211 31.02 23.8231 31.02 22.3454H30.9308C32.4085 22.3454 33.6956 21.1476 33.6956 19.67Z" fill="#FF9811"/>
<path d="M25 23.3696L21.4674 25.0001V28.2609L25 30.4349L28.5326 28.2609V25.0001L25 23.3696Z" fill="#0052B4"/>
<path d="M21.4674 21.7393H28.5326V25.0001H21.4674V21.7393Z" fill="#D80027"/>
</g>
<defs>
<clipPath id="clip0_105_1975">
<rect width="50" height="50" fill="white"/>
</clipPath>
</defs>
</svg>
