<svg width="50" height="50" viewBox="0 0 50 50" fill="none" xmlns="http://www.w3.org/2000/svg">
<g clip-path="url(#clip0_105_2440)">
<path d="M25 50C38.8071 50 50 38.8071 50 25C50 11.1929 38.8071 0 25 0C11.1929 0 0 11.1929 0 25C0 38.8071 11.1929 50 25 50Z" fill="#F0F0F0"/>
<path d="M48.445 16.3045H21.7392V9.78271H8.69561V16.3045H1.55498C0.550098 19.0127 0 21.9421 0 25.0001C0 28.0581 0.550098 30.9874 1.55498 33.6957L25 35.8696L48.445 33.6957C49.4499 30.9874 50 28.0581 50 25.0001C50 21.9421 49.4499 19.0127 48.445 16.3045Z" fill="#0052B4"/>
<path d="M25 50.0002C35.7491 50.0002 44.9126 43.2158 48.445 33.6958H1.55493C5.08726 43.2158 14.2508 50.0002 25 50.0002Z" fill="#D80027"/>
<path d="M8.69556 16.3042V18.478C8.69556 23.4703 15.2173 24.9999 15.2173 24.9999C15.2173 24.9999 21.7391 23.4703 21.7391 18.478V16.3042L19.5652 18.4781L15.2173 15.2173L10.8695 18.4781L8.69556 16.3042Z" fill="#F0F0F0"/>
</g>
<defs>
<clipPath id="clip0_105_2440">
<rect width="50" height="50" fill="white"/>
</clipPath>
</defs>
</svg>
