<svg width="50" height="50" viewBox="0 0 50 50" fill="none" xmlns="http://www.w3.org/2000/svg">
<g clip-path="url(#clip0_105_1140)">
<path d="M0 25.0001C0 29.3312 1.10186 33.4048 3.03975 36.9566L25 39.1306L46.9603 36.9566C48.8981 33.4048 50 29.3312 50 25.0001C50 20.669 48.8981 16.5954 46.9603 13.0436L25 10.8696L3.03975 13.0436C1.10186 16.5954 0 20.669 0 25.0001H0Z" fill="#D80027"/>
<path d="M3.03955 13.0435H46.96C42.7199 5.27236 34.4759 0 24.9998 0C15.5237 0 7.27969 5.27236 3.03955 13.0435Z" fill="#0052B4"/>
<path d="M24.9998 50C34.4759 50 42.7199 44.7276 46.9601 36.9565H3.03955C7.27969 44.7276 15.5237 50 24.9998 50Z" fill="#0052B4"/>
<path d="M33.6955 29.8912V26.6304H31.5217V22.2825L29.3478 20.1086L27.1738 22.2825V17.9347L24.9999 15.7607L22.826 17.9347V22.2825L20.6521 20.1086L18.4781 22.2825V26.6304H16.3043V29.8912H14.1304V33.1521H35.8694V29.8912H33.6955Z" fill="#F0F0F0"/>
</g>
<defs>
<clipPath id="clip0_105_1140">
<rect width="50" height="50" fill="white"/>
</clipPath>
</defs>
</svg>
